SplineFontDB: 3.0
FontName: CheyenneSans-LightItalic
FullName: Cheyenne Sans Light Italic
FamilyName: Cheyenne Sans Light
Weight: Light
Version: 1.000; ttfautohint (v1.8.2)
ItalicAngle: -8
UnderlinePosition: -150
UnderlineWidth: 50
Ascent: 800
Descent: 200
InvalidEm: 0
sfntRevision: 0x00010000
LayerCount: 2
Layer: 0 1 "Back" 1
Layer: 1 1 "Fore" 0
XUID: [1021 646 1163163066 7917898]
StyleMap: 0x0001
FSType: 0
OS2Version: 3
OS2_WeightWidthSlopeOnly: 0
OS2_UseTypoMetrics: 0
CreationTime: 1513572760
ModificationTime: 1542989991
PfmFamily: 81
TTFWeight: 300
TTFWidth: 5
LineGap: 0
VLineGap: 0
Panose: 0 0 4 0 0 0 0 0 0 0
OS2TypoAscent: 743
OS2TypoAOffset: 0
OS2TypoDescent: -161
OS2TypoDOffset: 0
OS2TypoLinegap: 0
OS2WinAscent: 822
OS2WinAOffset: 0
OS2WinDescent: 178
OS2WinDOffset: 0
HheadAscent: 822
HheadAOffset: 0
HheadDescent: -178
HheadDOffset: 0
OS2SubXSize: 650
OS2SubYSize: 600
OS2SubXOff: 0
OS2SubYOff: 75
OS2SupXSize: 650
OS2SupYSize: 600
OS2SupXOff: 0
OS2SupYOff: 350
OS2StrikeYSize: 50
OS2StrikeYPos: 310
OS2CapHeight: 723
OS2XHeight: 517
OS2Vendor: 'IMPA'
OS2CodePages: 20000193.00000000
OS2UnicodeRanges: 00000007.00000000.00000000.00000000
Lookup: 1 0 0 "'aalt' Access All Alternates in Latin lookup 0" { "'aalt' Access All Alternates in Latin lookup 0 subtable"  } ['aalt' ('DFLT' <'dflt' > 'latn' <'AZE ' 'CAT ' 'CRT ' 'KAZ ' 'MOL ' 'ROM ' 'TAT ' 'TRK ' 'dflt' > ) ]
Lookup: 3 0 0 "'aalt' Access All Alternates in Latin lookup 1" { "'aalt' Access All Alternates in Latin lookup 1 subtable"  } ['aalt' ('DFLT' <'dflt' > 'latn' <'AZE ' 'CAT ' 'CRT ' 'KAZ ' 'MOL ' 'ROM ' 'TAT ' 'TRK ' 'dflt' > ) ]
Lookup: 6 0 0 "'ccmp' Glyph Composition/Decomposition in Latin lookup 2" { "'ccmp' Glyph Composition/Decomposition in Latin lookup 2 contextual 0"  "'ccmp' Glyph Composition/Decomposition in Latin lookup 2 contextual 1"  } ['ccmp' ('DFLT' <'dflt' > 'latn' <'AZE ' 'CAT ' 'CRT ' 'KAZ ' 'MOL ' 'ROM ' 'TAT ' 'TRK ' 'dflt' > ) ]

StartChar: .notdef
Encoding: 65536 -1 0
Width: 693
Flags: W
LayerCount: 2
Fore
SplineSet
661 805 m 2,0,-1
 529 -133 l 2,1,2
 527 -148 527 -148 518.5 -154.5 c 128,-1,3
 510 -161 510 -161 493 -161 c 2,4,-1
 57 -161 l 2,5,6
 42 -161 42 -161 37 -155.5 c 128,-1,7
 32 -150 32 -150 34 -137 c 2,8,-1
 166 803 l 2,9,10
 168 814 168 814 173.5 820 c 128,-1,11
 179 826 179 826 188 826 c 2,12,-1
 647 826 l 2,13,14
 664 826 664 826 661 805 c 2,0,-1
602.5 772.5 m 128,-1,16
 599 777 599 777 592 777 c 2,17,-1
 248 777 l 1,18,-1
 490 -57 l 1,19,-1
 605 760 l 2,20,15
 606 768 606 768 602.5 772.5 c 128,-1,16
94 -107 m 128,-1,22
 98 -112 98 -112 110 -112 c 2,23,-1
 445 -112 l 1,24,-1
 205 716 l 1,25,-1
 91 -92 l 2,26,21
 90 -102 90 -102 94 -107 c 128,-1,22
EndSplineSet
EndChar

StartChar: exclam
Encoding: 33 33 4
Width: 243
GlyphClass: 2
Flags: W
LayerCount: 2
Fore
SplineSet
123 169 m 1,0,-1
 72 169 l 1,1,-1
 131 723 l 1,2,-1
 220 723 l 1,3,-1
 123 169 l 1,0,-1
119 0 m 1,4,-1
 28 0 l 1,5,-1
 42 102 l 1,6,-1
 133 102 l 1,7,-1
 119 0 l 1,4,-1
EndSplineSet
EndChar

StartChar: quotedbl
Encoding: 34 34 5
Width: 398
GlyphClass: 2
Flags: W
LayerCount: 2
Fore
SplineSet
335 506 m 1,0,-1
 289 506 l 1,1,-1
 294 723 l 1,2,-1
 393 723 l 1,3,-1
 335 506 l 1,0,-1
173 506 m 1,4,-1
 127 506 l 1,5,-1
 132 723 l 1,6,-1
 231 723 l 1,7,-1
 173 506 l 1,4,-1
EndSplineSet
EndChar

StartChar: numbersign
Encoding: 35 35 6
Width: 594
GlyphClass: 2
Flags: W
LayerCount: 2
Fore
SplineSet
456 443 m 1,0,-1
 410 287 l 1,1,-1
 517 287 l 1,2,-1
 510 238 l 1,3,-1
 396 238 l 1,4,-1
 326 -1 l 1,5,-1
 278 6 l 1,6,-1
 345 238 l 1,7,-1
 193 238 l 1,8,-1
 124 -1 l 1,9,-1
 75 6 l 1,10,-1
 143 238 l 1,11,-1
 25 238 l 1,12,-1
 32 287 l 1,13,-1
 157 287 l 1,14,-1
 203 443 l 1,15,-1
 86 443 l 1,16,-1
 93 492 l 1,17,-1
 217 492 l 1,18,-1
 286 724 l 1,19,-1
 334 718 l 1,20,-1
 268 492 l 1,21,-1
 420 492 l 1,22,-1
 488 724 l 1,23,-1
 537 718 l 1,24,-1
 470 492 l 1,25,-1
 578 492 l 1,26,-1
 571 443 l 1,27,-1
 456 443 l 1,0,-1
405 443 m 1,28,-1
 253 443 l 1,29,-1
 208 287 l 1,30,-1
 360 287 l 1,31,-1
 405 443 l 1,28,-1
EndSplineSet
EndChar

StartChar: dollar
Encoding: 36 36 7
Width: 589
GlyphClass: 2
Flags: W
LayerCount: 2
Fore
SplineSet
488 83 m 128,-1,1
 457 42 457 42 407 18 c 128,-1,2
 357 -6 357 -6 297 -8 c 0,3,4
 287 -8 287 -8 286 -17 c 2,5,-1
 276 -87 l 1,6,-1
 220 -87 l 1,7,-1
 231 -8 l 1,8,9
 145 -7 145 -7 90.5 23 c 128,-1,10
 36 53 36 53 1 115 c 1,11,-1
 56 157 l 1,12,13
 90 107 90 107 132 81.5 c 128,-1,14
 174 56 174 56 240 54 c 1,15,-1
 279 326 l 1,16,17
 200 355 200 355 157 384.5 c 128,-1,18
 114 414 114 414 98 450 c 128,-1,19
 82 486 82 486 89 536 c 0,20,21
 100 614 100 614 164 666 c 128,-1,22
 228 718 228 718 323 729 c 0,23,24
 334 731 334 731 336 739 c 2,25,-1
 344 797 l 1,26,-1
 399 797 l 1,27,-1
 390 731 l 1,28,29
 450 722 450 722 495 698 c 128,-1,30
 540 674 540 674 575 634 c 1,31,-1
 520 586 l 1,32,33
 502 615 502 615 467 636 c 128,-1,34
 432 657 432 657 389 665 c 1,35,-1
 387 665 l 2,36,37
 380 665 380 665 379 658 c 2,38,-1
 342 389 l 1,39,-1
 385 372 l 2,40,41
 464 337 464 337 500 290.5 c 128,-1,42
 536 244 536 244 527 176 c 0,43,0
 519 124 519 124 488 83 c 128,-1,1
329 667 m 1,44,45
 297 667 297 667 260.5 652.5 c 128,-1,46
 224 638 224 638 196 609 c 128,-1,47
 168 580 168 580 162 539 c 0,48,49
 157 501 157 501 176 474 c 128,-1,50
 195 447 195 447 222 433 c 128,-1,51
 249 419 249 419 289 403 c 1,52,-1
 329 667 l 1,44,45
403 88.5 m 128,-1,54
 447 122 447 122 454 172 c 0,55,56
 461 220 461 220 432 252 c 128,-1,57
 403 284 403 284 331 312 c 1,58,-1
 295 54 l 1,59,53
 359 55 359 55 403 88.5 c 128,-1,54
EndSplineSet
EndChar

StartChar: percent
Encoding: 37 37 8
Width: 895
GlyphClass: 2
Flags: W
LayerCount: 2
Fore
SplineSet
393.5 678.5 m 128,-1,1
 432 623 432 623 418 527 c 0,2,3
 405 431 405 431 351 376 c 128,-1,4
 297 321 297 321 224 321 c 0,5,6
 150 321 150 321 111 376 c 128,-1,7
 72 431 72 431 85 527 c 0,8,9
 94 591 94 591 122 637.5 c 128,-1,10
 150 684 150 684 191.5 709 c 128,-1,11
 233 734 233 734 282 734 c 0,12,0
 355 734 355 734 393.5 678.5 c 128,-1,1
199 -4 m 1,13,-1
 145 -4 l 1,14,-1
 737 731 l 1,15,-1
 789 731 l 1,16,-1
 199 -4 l 1,13,-1
315 408.5 m 128,-1,18
 351 453 351 453 361 527 c 0,19,20
 371 600 371 600 348 645.5 c 128,-1,21
 325 691 325 691 275 691 c 128,-1,22
 225 691 225 691 189 645.5 c 128,-1,23
 153 600 153 600 143 527 c 128,-1,24
 133 454 133 454 155.5 409 c 128,-1,25
 178 364 178 364 229 364 c 0,26,17
 279 364 279 364 315 408.5 c 128,-1,18
792 348 m 128,-1,28
 830 292 830 292 817 197 c 0,29,30
 804 101 804 101 750 45.5 c 128,-1,31
 696 -10 696 -10 622 -10 c 0,32,33
 574 -10 574 -10 539.5 15 c 128,-1,34
 505 40 505 40 490 86.5 c 128,-1,35
 475 133 475 133 484 197 c 0,36,37
 493 260 493 260 521 307 c 128,-1,38
 549 354 549 354 590.5 379 c 128,-1,39
 632 404 632 404 680 404 c 0,40,27
 754 404 754 404 792 348 c 128,-1,28
712.5 79.5 m 128,-1,42
 749 125 749 125 759 196 c 0,43,44
 769 268 769 268 745.5 314 c 128,-1,45
 722 360 722 360 673 360 c 0,46,47
 625 360 625 360 588.5 313.5 c 128,-1,48
 552 267 552 267 542 196 c 128,-1,49
 532 125 532 125 555.5 79.5 c 128,-1,50
 579 34 579 34 627 34 c 0,51,41
 676 34 676 34 712.5 79.5 c 128,-1,42
EndSplineSet
EndChar

StartChar: ampersand
Encoding: 38 38 9
Width: 679
GlyphClass: 2
Flags: W
LayerCount: 2
Fore
SplineSet
442 715 m 128,-1,1
 483 696 483 696 504 661.5 c 128,-1,2
 525 627 525 627 519 581 c 0,3,4
 513 537 513 537 468 486.5 c 128,-1,5
 423 436 423 436 316 384 c 1,6,-1
 462 179 l 1,7,8
 489 207 489 207 518 260.5 c 128,-1,9
 547 314 547 314 560 382 c 1,10,-1
 630 382 l 1,11,12
 613 308 613 308 579 250.5 c 128,-1,13
 545 193 545 193 494 134 c 1,14,-1
 589 0 l 1,15,-1
 503 0 l 1,16,-1
 442 84 l 1,17,18
 327 -5 327 -5 206 -5 c 0,19,20
 106 -5 106 -5 57.5 46 c 128,-1,21
 9 97 9 97 21 182 c 0,22,23
 31 251 31 251 78.5 302.5 c 128,-1,24
 126 354 126 354 218 400 c 1,25,26
 179 448 179 448 162.5 490.5 c 128,-1,27
 146 533 146 533 152 579 c 0,28,29
 158 622 158 622 185.5 657.5 c 128,-1,30
 213 693 213 693 256.5 713.5 c 128,-1,31
 300 734 300 734 351 734 c 0,32,0
 401 734 401 734 442 715 c 128,-1,1
264.5 651 m 128,-1,34
 233 623 233 623 227 583 c 0,35,36
 222 546 222 546 237.5 509 c 128,-1,37
 253 472 253 472 274 446 c 2,38,-1
 288 428 l 1,39,40
 376 474 376 474 410.5 509 c 128,-1,41
 445 544 445 544 451 580 c 0,42,43
 458 631 458 631 426.5 655.5 c 128,-1,44
 395 680 395 680 346 680 c 0,45,33
 296 679 296 679 264.5 651 c 128,-1,34
147 279 m 128,-1,47
 107 236 107 236 100 186 c 0,48,49
 92 128 92 128 129.5 92 c 128,-1,50
 167 56 167 56 229 56 c 0,51,52
 274 56 274 56 322 76 c 128,-1,53
 370 96 370 96 410 130 c 1,54,-1
 251 354 l 1,55,46
 187 322 187 322 147 279 c 128,-1,47
EndSplineSet
EndChar

StartChar: quotesingle
Encoding: 39 39 10
Width: 246
GlyphClass: 2
Flags: W
LayerCount: 2
Fore
SplineSet
170 506 m 1,0,-1
 124 506 l 1,1,-1
 129 723 l 1,2,-1
 228 723 l 1,3,-1
 170 506 l 1,0,-1
EndSplineSet
EndChar

StartChar: parenleft
Encoding: 40 40 11
Width: 291
GlyphClass: 2
Flags: W
LayerCount: 2
Fore
SplineSet
205.5 505 m 128,-1,1
 158 390 158 390 142 277 c 0,2,3
 127 167 127 167 138.5 60 c 128,-1,4
 150 -47 150 -47 188 -161 c 1,5,-1
 139 -161 l 1,6,7
 88 -47 88 -47 69 55.5 c 128,-1,8
 50 158 50 158 67 278 c 0,9,10
 84 397 84 397 138.5 511.5 c 128,-1,11
 193 626 193 626 273 723 c 1,12,-1
 322 723 l 1,13,0
 253 620 253 620 205.5 505 c 128,-1,1
EndSplineSet
EndChar

StartChar: parenright
Encoding: 41 41 12
Width: 291
GlyphClass: 2
Flags: W
LayerCount: 2
Fore
SplineSet
175.5 57 m 128,-1,1
 223 172 223 172 239 285 c 0,2,3
 254 395 254 395 242.5 502 c 128,-1,4
 231 609 231 609 193 723 c 1,5,-1
 242 723 l 1,6,7
 293 609 293 609 312 506.5 c 128,-1,8
 331 404 331 404 314 284 c 0,9,10
 297 165 297 165 242.5 50.5 c 128,-1,11
 188 -64 188 -64 108 -161 c 1,12,-1
 59 -161 l 1,13,0
 128 -58 128 -58 175.5 57 c 128,-1,1
EndSplineSet
EndChar

StartChar: asterisk
Encoding: 42 42 13
Width: 367
GlyphClass: 2
Flags: W
LayerCount: 2
Fore
SplineSet
215 529 m 1,0,-1
 119 403 l 1,1,-1
 77 435 l 1,2,-1
 184 550 l 1,3,-1
 63 586 l 1,4,-1
 88 635 l 1,5,-1
 202 588 l 1,6,-1
 213 723 l 1,7,-1
 271 723 l 1,8,-1
 244 588 l 1,9,-1
 373 639 l 1,10,-1
 382 591 l 1,11,-1
 253 551 l 1,12,-1
 326 441 l 1,13,-1
 275 407 l 1,14,-1
 215 529 l 1,0,-1
EndSplineSet
EndChar

StartChar: plus
Encoding: 43 43 14
Width: 546
GlyphClass: 2
Flags: W
LayerCount: 2
Fore
SplineSet
481 334 m 1,0,-1
 303 334 l 1,1,-1
 278 155 l 1,2,-1
 219 155 l 1,3,-1
 244 333 l 1,4,-1
 64 333 l 1,5,-1
 72 392 l 1,6,-1
 251 392 l 1,7,-1
 276 572 l 1,8,-1
 335 572 l 1,9,-1
 310 393 l 1,10,-1
 489 393 l 1,11,-1
 481 334 l 1,0,-1
EndSplineSet
EndChar

StartChar: comma
Encoding: 44 44 15
Width: 226
GlyphClass: 2
Flags: W
LayerCount: 2
Fore
SplineSet
50 -1 m 1,0,-1
 9 0 l 1,1,-1
 23 100 l 1,2,-1
 127 100 l 1,3,-1
 115 14 l 1,4,-1
 17 -120 l 1,5,-1
 -22 -120 l 1,6,-1
 50 -1 l 1,0,-1
EndSplineSet
Substitution2: "'tnum' Tabular Numbers in Latin lookup 23 subtable" comma.tf
Substitution2: "'aalt' Access All Alternates in Latin lookup 0 subtable" comma.tf
EndChar

StartChar: hyphen
Encoding: 45 45 16
Width: 378
GlyphClass: 2
Flags: W
LayerCount: 2
Fore
SplineSet
297 229 m 1,0,-1
 50 228 l 1,1,-1
 58 288 l 1,2,-1
 306 289 l 1,3,-1
 297 229 l 1,0,-1
EndSplineSet
EndChar

StartChar: period
Encoding: 46 46 17
Width: 213
GlyphClass: 2
Flags: W
LayerCount: 2
Fore
SplineSet
105 0 m 1,0,-1
 12 0 l 1,1,-1
 26 103 l 1,2,-1
 119 103 l 1,3,-1
 105 0 l 1,0,-1
EndSplineSet
Substitution2: "'tnum' Tabular Numbers in Latin lookup 23 subtable" period.tf
Substitution2: "'aalt' Access All Alternates in Latin lookup 0 subtable" period.tf
EndChar

StartChar: slash
Encoding: 47 47 18
Width: 338
GlyphClass: 2
Flags: W
LayerCount: 2
Fore
SplineSet
318 723 m 1,0,-1
 379 723 l 1,1,-1
 22 -46 l 1,2,-1
 -39 -46 l 1,3,-1
 318 723 l 1,0,-1
EndSplineSet
Substitution2: "'frac' Diagonal Fractions in Latin lookup 16 subtable" fraction
Substitution2: "'aalt' Access All Alternates in Latin lookup 0 subtable" fraction
EndChar

StartChar: zero
Encoding: 48 48 19
Width: 632
GlyphClass: 2
Flags: W
LayerCount: 2
Fore
SplineSet
504 690.5 m 128,-1,1
 558 648 558 648 580.5 564.5 c 128,-1,2
 603 481 603 481 586 360 c 0,3,4
 569 240 569 240 523 156.5 c 128,-1,5
 477 73 477 73 411.5 31.5 c 128,-1,6
 346 -10 346 -10 268 -10 c 0,7,8
 191 -10 191 -10 136.5 31.5 c 128,-1,9
 82 73 82 73 60 155.5 c 128,-1,10
 38 238 38 238 55 358 c 0,11,12
 72 479 72 479 118 563.5 c 128,-1,13
 164 648 164 648 230 690.5 c 128,-1,14
 296 733 296 733 373 733 c 128,-1,0
 450 733 450 733 504 690.5 c 128,-1,1
424 130.5 m 128,-1,16
 483 205 483 205 505 360 c 0,17,18
 527 516 527 516 488 592 c 128,-1,19
 449 668 449 668 364 668 c 128,-1,20
 279 668 279 668 218.5 592 c 128,-1,21
 158 516 158 516 136 360 c 0,22,23
 114 206 114 206 153 131 c 128,-1,24
 192 56 192 56 279 56 c 0,25,15
 365 56 365 56 424 130.5 c 128,-1,16
EndSplineSet
Substitution2: "'onum' Oldstyle Figures in Latin lookup 24 subtable" zero.osf
Substitution2: "'tnum' Tabular Numbers in Latin lookup 23 subtable" zero.tf
Substitution2: "'frac' Diagonal Fractions in Latin lookup 17 subtable" zero.numr
Substitution2: "'dnom' Denominators in Latin lookup 15 subtable" zero.dnom
Substitution2: "'numr' Numerators in Latin lookup 14 subtable" zero.numr
Substitution2: "'sups' Superscript in Latin lookup 13 subtable" uni2070
Substitution2: "'sinf' Scientific Inferiors in Latin lookup 12 subtable" zero.subs
Substitution2: "'subs' Subscript in Latin lookup 11 subtable" zero.subs
AlternateSubs2: "'aalt' Access All Alternates in Latin lookup 1 subtable" zero.subs uni2070 zero.numr zero.dnom zero.tf zero.osf
EndChar

StartChar: one
Encoding: 49 49 20
Width: 379
GlyphClass: 2
Flags: W
LayerCount: 2
Fore
SplineSet
223 634 m 1,0,-1
 73 582 l 1,1,-1
 81 640 l 1,2,-1
 259 723 l 1,3,-1
 313 723 l 1,4,-1
 211 0 l 1,5,-1
 134 0 l 1,6,-1
 223 634 l 1,0,-1
EndSplineSet
Substitution2: "'onum' Oldstyle Figures in Latin lookup 24 subtable" one.osf
Substitution2: "'tnum' Tabular Numbers in Latin lookup 23 subtable" one.tf
Substitution2: "'frac' Diagonal Fractions in Latin lookup 17 subtable" one.numr
Substitution2: "'dnom' Denominators in Latin lookup 15 subtable" one.dnom
Substitution2: "'numr' Numerators in Latin lookup 14 subtable" one.numr
Substitution2: "'sups' Superscript in Latin lookup 13 subtable" uni00B9
Substitution2: "'sinf' Scientific Inferiors in Latin lookup 12 subtable" one.subs
Substitution2: "'subs' Subscript in Latin lookup 11 subtable" one.subs
AlternateSubs2: "'aalt' Access All Alternates in Latin lookup 1 subtable" one.subs uni00B9 one.numr one.dnom one.tf one.osf
EndChar

StartChar: two
Encoding: 50 50 21
Width: 569
GlyphClass: 2
Flags: W
LayerCount: 2
Fore
SplineSet
8 69 m 1,0,-1
 276 301 l 2,1,2
 371 382 371 382 410.5 431 c 128,-1,3
 450 480 450 480 458 532 c 0,4,5
 467 599 467 599 427 632.5 c 128,-1,6
 387 666 387 666 328 666 c 0,7,8
 274 666 274 666 224 641.5 c 128,-1,9
 174 617 174 617 138 564 c 1,10,-1
 77 586 l 1,11,12
 119 658 119 658 186.5 695.5 c 128,-1,13
 254 733 254 733 341 733 c 0,14,15
 405 733 405 733 451.5 709.5 c 128,-1,16
 498 686 498 686 521 641 c 128,-1,17
 544 596 544 596 535 534 c 0,18,19
 529 491 529 491 508.5 453.5 c 128,-1,20
 488 416 488 416 449.5 375 c 128,-1,21
 411 334 411 334 341 272 c 2,22,-1
 107 67 l 1,23,-1
 477 67 l 1,24,-1
 468 0 l 1,25,-1
 -2 0 l 1,26,-1
 8 69 l 1,0,-1
EndSplineSet
Substitution2: "'onum' Oldstyle Figures in Latin lookup 24 subtable" two.osf
Substitution2: "'tnum' Tabular Numbers in Latin lookup 23 subtable" two.tf
Substitution2: "'frac' Diagonal Fractions in Latin lookup 17 subtable" two.numr
Substitution2: "'dnom' Denominators in Latin lookup 15 subtable" two.dnom
Substitution2: "'numr' Numerators in Latin lookup 14 subtable" two.numr
Substitution2: "'sups' Superscript in Latin lookup 13 subtable" uni00B2
Substitution2: "'sinf' Scientific Inferiors in Latin lookup 12 subtable" two.subs
Substitution2: "'subs' Subscript in Latin lookup 11 subtable" two.subs
AlternateSubs2: "'aalt' Access All Alternates in Latin lookup 1 subtable" two.subs uni00B2 two.numr two.dnom two.tf two.osf
EndChar

StartChar: three
Encoding: 51 51 22
Width: 625
GlyphClass: 2
Flags: W
LayerCount: 2
Fore
SplineSet
213.5 700 m 128,-1,1
 284 733 284 733 365 733 c 0,2,3
 436 733 436 733 487.5 709 c 128,-1,4
 539 685 539 685 564 643.5 c 128,-1,5
 589 602 589 602 581 551 c 0,6,7
 565 435 565 435 417 385 c 1,8,9
 490 364 490 364 527 315.5 c 128,-1,10
 564 267 564 267 554 199 c 0,11,12
 546 140 546 140 505 92 c 128,-1,13
 464 44 464 44 398 17 c 128,-1,14
 332 -10 332 -10 251 -10 c 0,15,16
 160 -10 160 -10 102.5 20 c 128,-1,17
 45 50 45 50 16 121 c 1,18,-1
 84 143 l 1,19,20
 137 55 137 55 261 55 c 0,21,22
 349 55 349 55 406 94.5 c 128,-1,23
 463 134 463 134 472 196 c 0,24,25
 479 243 479 243 456.5 277 c 128,-1,26
 434 311 434 311 393 328.5 c 128,-1,27
 352 346 352 346 303 346 c 2,28,-1
 206 346 l 1,29,-1
 215 410 l 1,30,-1
 296 411 l 2,31,32
 347 411 347 411 392.5 428.5 c 128,-1,33
 438 446 438 446 467 477.5 c 128,-1,34
 496 509 496 509 501 547 c 0,35,36
 506 582 506 582 489 609.5 c 128,-1,37
 472 637 472 637 437 653 c 128,-1,38
 402 669 402 669 356 669 c 0,39,40
 296 669 296 669 249.5 647.5 c 128,-1,41
 203 626 203 626 168 581 c 1,42,-1
 108 604 l 1,43,0
 143 667 143 667 213.5 700 c 128,-1,1
EndSplineSet
Substitution2: "'onum' Oldstyle Figures in Latin lookup 24 subtable" three.osf
Substitution2: "'tnum' Tabular Numbers in Latin lookup 23 subtable" three.tf
Substitution2: "'frac' Diagonal Fractions in Latin lookup 17 subtable" three.numr
Substitution2: "'dnom' Denominators in Latin lookup 15 subtable" three.dnom
Substitution2: "'numr' Numerators in Latin lookup 14 subtable" three.numr
Substitution2: "'sups' Superscript in Latin lookup 13 subtable" uni00B3
Substitution2: "'sinf' Scientific Inferiors in Latin lookup 12 subtable" three.subs
Substitution2: "'subs' Subscript in Latin lookup 11 subtable" three.subs
AlternateSubs2: "'aalt' Access All Alternates in Latin lookup 1 subtable" three.subs uni00B3 three.numr three.dnom three.tf three.osf
EndChar

StartChar: four
Encoding: 52 52 23
Width: 617
GlyphClass: 2
Flags: W
LayerCount: 2
Fore
SplineSet
518 723 m 1,0,-1
 453 261 l 1,1,-1
 566 261 l 1,2,-1
 556 193 l 1,3,-1
 443 193 l 1,4,-1
 416 0 l 1,5,-1
 342 0 l 1,6,-1
 370 193 l 1,7,-1
 29 193 l 1,8,-1
 39 266 l 1,9,-1
 442 723 l 1,10,-1
 518 723 l 1,0,-1
377 261 m 1,11,-1
 426 613 l 1,12,-1
 116 261 l 1,13,-1
 377 261 l 1,11,-1
EndSplineSet
Substitution2: "'onum' Oldstyle Figures in Latin lookup 24 subtable" four.osf
Substitution2: "'tnum' Tabular Numbers in Latin lookup 23 subtable" four.tf
Substitution2: "'frac' Diagonal Fractions in Latin lookup 17 subtable" four.numr
Substitution2: "'dnom' Denominators in Latin lookup 15 subtable" four.dnom
Substitution2: "'numr' Numerators in Latin lookup 14 subtable" four.numr
Substitution2: "'sups' Superscript in Latin lookup 13 subtable" uni2074
Substitution2: "'sinf' Scientific Inferiors in Latin lookup 12 subtable" four.subs
Substitution2: "'subs' Subscript in Latin lookup 11 subtable" four.subs
AlternateSubs2: "'aalt' Access All Alternates in Latin lookup 1 subtable" four.subs uni2074 four.numr four.dnom four.tf four.osf
EndChar

StartChar: five
Encoding: 53 53 24
Width: 642
GlyphClass: 2
Flags: W
LayerCount: 2
Fore
SplineSet
603 723 m 1,0,-1
 587 658 l 1,1,-1
 231 658 l 1,2,-1
 175 402 l 1,3,4
 230 430 230 430 269.5 443 c 128,-1,5
 309 456 309 456 360 456 c 0,6,7
 426 456 426 456 477 432.5 c 128,-1,8
 528 409 528 409 554 359.5 c 128,-1,9
 580 310 580 310 569 237 c 0,10,11
 558 161 558 161 515.5 105 c 128,-1,12
 473 49 473 49 406.5 19.5 c 128,-1,13
 340 -10 340 -10 260 -10 c 0,14,15
 185 -10 185 -10 122.5 18.5 c 128,-1,16
 60 47 60 47 20 100 c 1,17,-1
 80 145 l 1,18,19
 121 98 121 98 159.5 76 c 128,-1,20
 198 54 198 54 259 54 c 0,21,22
 354 54 354 54 415.5 104 c 128,-1,23
 477 154 477 154 488 234 c 0,24,25
 499 312 499 312 456.5 352 c 128,-1,26
 414 392 414 392 339 392 c 0,27,28
 291 392 291 392 250.5 376.5 c 128,-1,29
 210 361 210 361 158 333 c 0,30,31
 152 329 152 329 149 329 c 0,32,33
 147 329 147 329 146 330.5 c 128,-1,34
 145 332 145 332 142 334 c 2,35,-1
 96 363 l 1,36,-1
 176 723 l 1,37,-1
 603 723 l 1,0,-1
EndSplineSet
Substitution2: "'onum' Oldstyle Figures in Latin lookup 24 subtable" five.osf
Substitution2: "'tnum' Tabular Numbers in Latin lookup 23 subtable" five.tf
Substitution2: "'frac' Diagonal Fractions in Latin lookup 17 subtable" five.numr
Substitution2: "'dnom' Denominators in Latin lookup 15 subtable" five.dnom
Substitution2: "'numr' Numerators in Latin lookup 14 subtable" five.numr
Substitution2: "'sups' Superscript in Latin lookup 13 subtable" uni2075
Substitution2: "'sinf' Scientific Inferiors in Latin lookup 12 subtable" five.subs
Substitution2: "'subs' Subscript in Latin lookup 11 subtable" five.subs
AlternateSubs2: "'aalt' Access All Alternates in Latin lookup 1 subtable" five.subs uni2075 five.numr five.dnom five.tf five.osf
EndChar

StartChar: six
Encoding: 54 54 25
Width: 606
GlyphClass: 2
Flags: W
LayerCount: 2
Fore
SplineSet
524.5 703 m 128,-1,1
 575 667 575 667 587 608 c 1,2,-1
 523 583 l 1,3,4
 501 629 501 629 471.5 652.5 c 128,-1,5
 442 676 442 676 384 676 c 0,6,7
 287 676 287 676 221.5 591 c 128,-1,8
 156 506 156 506 133 345 c 0,9,10
 129 318 129 318 129 304 c 1,11,12
 156 365 156 365 215 401 c 128,-1,13
 274 437 274 437 344 437 c 0,14,15
 416 437 416 437 463.5 408.5 c 128,-1,16
 511 380 511 380 530.5 330.5 c 128,-1,17
 550 281 550 281 542 220 c 0,18,19
 533 153 533 153 494 102.5 c 128,-1,20
 455 52 455 52 396.5 24.5 c 128,-1,21
 338 -3 338 -3 269 -3 c 0,22,23
 186 -3 186 -3 132.5 39.5 c 128,-1,24
 79 82 79 82 58 163.5 c 128,-1,25
 37 245 37 245 53 358 c 0,26,27
 70 476 70 476 116 562 c 128,-1,28
 162 648 162 648 232.5 693.5 c 128,-1,29
 303 739 303 739 392 739 c 0,30,0
 474 739 474 739 524.5 703 c 128,-1,1
199.5 336 m 128,-1,32
 143 298 143 298 134 235 c 1,33,34
 137 149 137 149 173.5 104.5 c 128,-1,35
 210 60 210 60 277 60 c 0,36,37
 323 60 323 60 363 80 c 128,-1,38
 403 100 403 100 429.5 135.5 c 128,-1,39
 456 171 456 171 462 216 c 0,40,41
 468 259 468 259 454.5 295 c 128,-1,42
 441 331 441 331 408.5 352.5 c 128,-1,43
 376 374 376 374 329 374 c 0,44,31
 256 374 256 374 199.5 336 c 128,-1,32
EndSplineSet
Substitution2: "'onum' Oldstyle Figures in Latin lookup 24 subtable" six.osf
Substitution2: "'tnum' Tabular Numbers in Latin lookup 23 subtable" six.tf
Substitution2: "'frac' Diagonal Fractions in Latin lookup 17 subtable" six.numr
Substitution2: "'dnom' Denominators in Latin lookup 15 subtable" six.dnom
Substitution2: "'numr' Numerators in Latin lookup 14 subtable" six.numr
Substitution2: "'sups' Superscript in Latin lookup 13 subtable" uni2076
Substitution2: "'sinf' Scientific Inferiors in Latin lookup 12 subtable" six.subs
Substitution2: "'subs' Subscript in Latin lookup 11 subtable" six.subs
AlternateSubs2: "'aalt' Access All Alternates in Latin lookup 1 subtable" six.subs uni2076 six.numr six.dnom six.tf six.osf
EndChar

StartChar: seven
Encoding: 55 55 26
Width: 570
GlyphClass: 2
Flags: W
LayerCount: 2
Fore
SplineSet
591 723 m 1,0,-1
 580 648 l 1,1,2
 503 558 503 558 423 433.5 c 128,-1,3
 343 309 343 309 283.5 191 c 128,-1,4
 224 73 224 73 203 0 c 1,5,-1
 121 0 l 1,6,7
 146 77 146 77 198.5 186.5 c 128,-1,8
 251 296 251 296 329 420.5 c 128,-1,9
 407 545 407 545 500 658 c 1,10,-1
 83 658 l 1,11,-1
 93 723 l 1,12,-1
 591 723 l 1,0,-1
EndSplineSet
Substitution2: "'onum' Oldstyle Figures in Latin lookup 24 subtable" seven.osf
Substitution2: "'tnum' Tabular Numbers in Latin lookup 23 subtable" seven.tf
Substitution2: "'frac' Diagonal Fractions in Latin lookup 17 subtable" seven.numr
Substitution2: "'dnom' Denominators in Latin lookup 15 subtable" seven.dnom
Substitution2: "'numr' Numerators in Latin lookup 14 subtable" seven.numr
Substitution2: "'sups' Superscript in Latin lookup 13 subtable" uni2077
Substitution2: "'sinf' Scientific Inferiors in Latin lookup 12 subtable" seven.subs
Substitution2: "'subs' Subscript in Latin lookup 11 subtable" seven.subs
AlternateSubs2: "'aalt' Access All Alternates in Latin lookup 1 subtable" seven.subs uni2077 seven.numr seven.dnom seven.tf seven.osf
EndChar

StartChar: eight
Encoding: 56 56 27
Width: 617
GlyphClass: 2
Flags: W
LayerCount: 2
Fore
SplineSet
483.5 708 m 128,-1,1
 533 683 533 683 555.5 638 c 128,-1,2
 578 593 578 593 570 534 c 0,3,4
 560 466 560 466 517.5 427 c 128,-1,5
 475 388 475 388 434 368 c 1,6,7
 439 366 439 366 476 350.5 c 128,-1,8
 513 335 513 335 537.5 292.5 c 128,-1,9
 562 250 562 250 554 190 c 128,-1,10
 546 130 546 130 505.5 84.5 c 128,-1,11
 465 39 465 39 401 14.5 c 128,-1,12
 337 -10 337 -10 257 -10 c 0,13,14
 136 -10 136 -10 74 40 c 128,-1,15
 12 90 12 90 24 179 c 0,16,17
 31 231 31 231 70.5 280.5 c 128,-1,18
 110 330 110 330 185 363 c 1,19,20
 148 379 148 379 114.5 415 c 128,-1,21
 81 451 81 451 92 525 c 0,22,23
 100 583 100 583 137.5 630.5 c 128,-1,24
 175 678 175 678 234.5 705.5 c 128,-1,25
 294 733 294 733 364 733 c 128,-1,0
 434 733 434 733 483.5 708 c 128,-1,1
270 652 m 128,-1,27
 230 634 230 634 204 602.5 c 128,-1,28
 178 571 178 571 173 532 c 0,29,30
 167 486 167 486 189 456.5 c 128,-1,31
 211 427 211 427 261 416 c 2,32,-1
 360 392 l 2,33,34
 378 388 378 388 409 409 c 128,-1,35
 440 430 440 430 465.5 465 c 128,-1,36
 491 500 491 500 496 536 c 0,37,38
 504 596 504 596 466 633 c 128,-1,39
 428 670 428 670 356 670 c 0,40,26
 310 670 310 670 270 652 c 128,-1,27
408.5 89.5 m 128,-1,42
 464 126 464 126 472 188 c 0,43,44
 479 235 479 235 457.5 264 c 128,-1,45
 436 293 436 293 382 306 c 2,46,-1
 256 337 l 2,47,48
 253 338 253 338 249 338 c 0,49,50
 226 338 226 338 193 317.5 c 128,-1,51
 160 297 160 297 133 263 c 128,-1,52
 106 229 106 229 100 188 c 0,53,54
 91 124 91 124 135 88.5 c 128,-1,55
 179 53 179 53 269 53 c 0,56,41
 353 53 353 53 408.5 89.5 c 128,-1,42
EndSplineSet
Substitution2: "'onum' Oldstyle Figures in Latin lookup 24 subtable" eight.osf
Substitution2: "'tnum' Tabular Numbers in Latin lookup 23 subtable" eight.tf
Substitution2: "'frac' Diagonal Fractions in Latin lookup 17 subtable" eight.numr
Substitution2: "'dnom' Denominators in Latin lookup 15 subtable" eight.dnom
Substitution2: "'numr' Numerators in Latin lookup 14 subtable" eight.numr
Substitution2: "'sups' Superscript in Latin lookup 13 subtable" uni2078
Substitution2: "'sinf' Scientific Inferiors in Latin lookup 12 subtable" eight.subs
Substitution2: "'subs' Subscript in Latin lookup 11 subtable" eight.subs
AlternateSubs2: "'aalt' Access All Alternates in Latin lookup 1 subtable" eight.subs uni2078 eight.numr eight.dnom eight.tf eight.osf
EndChar

StartChar: nine
Encoding: 57 57 28
Width: 607
GlyphClass: 2
Flags: W
LayerCount: 2
Fore
SplineSet
90 27 m 128,-1,1
 39 64 39 64 26 123 c 1,2,-1
 92 146 l 1,3,4
 113 101 113 101 142 77.5 c 128,-1,5
 171 54 171 54 228 54 c 0,6,7
 328 54 328 54 395 137.5 c 128,-1,8
 462 221 462 221 485 387 c 0,9,10
 489 414 489 414 490 428 c 1,11,12
 463 365 463 365 403.5 328 c 128,-1,13
 344 291 344 291 272 291 c 0,14,15
 201 291 201 291 152.5 320 c 128,-1,16
 104 349 104 349 84 399 c 128,-1,17
 64 449 64 449 73 511 c 0,18,19
 82 578 82 578 120.5 628 c 128,-1,20
 159 678 159 678 218 705.5 c 128,-1,21
 277 733 277 733 346 733 c 0,22,23
 428 733 428 733 482 690.5 c 128,-1,24
 536 648 536 648 556.5 566.5 c 128,-1,25
 577 485 577 485 561 372 c 0,26,27
 535 190 535 190 446 90 c 128,-1,28
 357 -10 357 -10 221 -10 c 0,29,0
 141 -10 141 -10 90 27 c 128,-1,1
375 373 m 128,-1,31
 418 391 418 391 446.5 423 c 128,-1,32
 475 455 475 455 480 494 c 1,33,34
 476 581 476 581 440 625.5 c 128,-1,35
 404 670 404 670 336 670 c 0,36,37
 266 670 266 670 215 626 c 128,-1,38
 164 582 164 582 154 514 c 0,39,40
 148 471 148 471 161.5 435 c 128,-1,41
 175 399 175 399 207 377 c 128,-1,42
 239 355 239 355 286 355 c 0,43,30
 332 355 332 355 375 373 c 128,-1,31
EndSplineSet
Substitution2: "'onum' Oldstyle Figures in Latin lookup 24 subtable" nine.osf
Substitution2: "'tnum' Tabular Numbers in Latin lookup 23 subtable" nine.tf
Substitution2: "'frac' Diagonal Fractions in Latin lookup 17 subtable" nine.numr
Substitution2: "'dnom' Denominators in Latin lookup 15 subtable" nine.dnom
Substitution2: "'numr' Numerators in Latin lookup 14 subtable" nine.numr
Substitution2: "'sups' Superscript in Latin lookup 13 subtable" uni2079
Substitution2: "'sinf' Scientific Inferiors in Latin lookup 12 subtable" nine.subs
Substitution2: "'subs' Subscript in Latin lookup 11 subtable" nine.subs
AlternateSubs2: "'aalt' Access All Alternates in Latin lookup 1 subtable" nine.subs uni2079 nine.numr nine.dnom nine.tf nine.osf
EndChar

StartChar: colon
Encoding: 58 58 29
Width: 213
GlyphClass: 2
Flags: W
LayerCount: 2
Fore
SplineSet
160 390 m 1,0,-1
 67 390 l 1,1,-1
 81 493 l 1,2,-1
 174 493 l 1,3,-1
 160 390 l 1,0,-1
105 3 m 1,4,-1
 12 3 l 1,5,-1
 27 105 l 1,6,-1
 120 105 l 1,7,-1
 105 3 l 1,4,-1
EndSplineSet
EndChar

StartChar: semicolon
Encoding: 59 59 30
Width: 237
GlyphClass: 2
Flags: W
LayerCount: 2
Fore
SplineSet
83 493 m 1,0,-1
 175 493 l 1,1,-1
 161 389 l 1,2,-1
 69 389 l 1,3,-1
 83 493 l 1,0,-1
55 0 m 1,4,-1
 18 0 l 1,5,-1
 32 102 l 1,6,-1
 124 102 l 1,7,-1
 112 12 l 1,8,-1
 15 -138 l 1,9,-1
 -18 -138 l 1,10,-1
 55 0 l 1,4,-1
EndSplineSet
EndChar

StartChar: less
Encoding: 60 60 31
Width: 540
GlyphClass: 2
Flags: W
LayerCount: 2
Fore
SplineSet
441 152 m 1,0,-1
 56 311 l 1,1,-1
 66 382 l 1,2,-1
 498 545 l 1,3,-1
 487 472 l 1,4,-1
 153 347 l 1,5,-1
 451 222 l 1,6,-1
 441 152 l 1,0,-1
EndSplineSet
EndChar

StartChar: equal
Encoding: 61 61 32
Width: 546
GlyphClass: 2
Flags: W
LayerCount: 2
Fore
SplineSet
495 431 m 1,0,-1
 77 430 l 1,1,-1
 86 490 l 1,2,-1
 503 490 l 1,3,-1
 495 431 l 1,0,-1
464 212 m 1,4,-1
 47 211 l 1,5,-1
 55 270 l 1,6,-1
 472 271 l 1,7,-1
 464 212 l 1,4,-1
EndSplineSet
EndChar

StartChar: greater
Encoding: 62 62 33
Width: 540
GlyphClass: 2
Flags: W
LayerCount: 2
Fore
SplineSet
390 347 m 1,0,-1
 90 472 l 1,1,-1
 101 545 l 1,2,-1
 486 382 l 1,3,-1
 476 311 l 1,4,-1
 46 152 l 1,5,-1
 56 222 l 1,6,-1
 390 347 l 1,0,-1
EndSplineSet
EndChar

StartChar: question
Encoding: 63 63 34
Width: 515
GlyphClass: 2
Flags: W
LayerCount: 2
Fore
SplineSet
174 696.5 m 128,-1,1
 241 733 241 733 317 733 c 0,2,3
 382 733 382 733 428 711 c 128,-1,4
 474 689 474 689 495 649.5 c 128,-1,5
 516 610 516 610 508 558 c 0,6,7
 502 518 502 518 484.5 485 c 128,-1,8
 467 452 467 452 443 426.5 c 128,-1,9
 419 401 419 401 380 365 c 0,10,11
 340 328 340 328 317.5 303 c 128,-1,12
 295 278 295 278 276.5 245 c 128,-1,13
 258 212 258 212 252 171 c 1,14,-1
 187 171 l 1,15,16
 194 219 194 219 214 258 c 128,-1,17
 234 297 234 297 259 325.5 c 128,-1,18
 284 354 284 354 323 393 c 0,19,20
 374 442 374 442 399.5 476.5 c 128,-1,21
 425 511 425 511 431 556 c 0,22,23
 439 610 439 610 405.5 641.5 c 128,-1,24
 372 673 372 673 309 673 c 0,25,26
 257 673 257 673 204.5 644 c 128,-1,27
 152 615 152 615 131 573 c 1,28,-1
 66 596 l 1,29,0
 107 660 107 660 174 696.5 c 128,-1,1
242 0 m 1,30,-1
 150 0 l 1,31,-1
 164 102 l 1,32,-1
 256 102 l 1,33,-1
 242 0 l 1,30,-1
EndSplineSet
EndChar

StartChar: at
Encoding: 64 64 35
Width: 818
GlyphClass: 2
Flags: W
LayerCount: 2
Fore
SplineSet
490.5 -90.5 m 128,-1,1
 430 -110 430 -110 365 -110 c 0,2,3
 250 -110 250 -110 171 -61.5 c 128,-1,4
 92 -13 92 -13 58.5 70 c 128,-1,5
 25 153 25 153 39 254 c 0,6,7
 54 360 54 360 116 449 c 128,-1,8
 178 538 178 538 274.5 591 c 128,-1,9
 371 644 371 644 485 644 c 0,10,11
 573 644 573 644 646.5 610 c 128,-1,12
 720 576 720 576 759 506 c 128,-1,13
 798 436 798 436 784 332 c 0,14,15
 774 258 774 258 741 200.5 c 128,-1,16
 708 143 708 143 660.5 111 c 128,-1,17
 613 79 613 79 560 79 c 0,18,19
 522 79 522 79 503 91.5 c 128,-1,20
 484 104 484 104 481 132 c 0,21,22
 481 139 481 139 478 139 c 0,23,24
 476 139 476 139 470 133 c 0,25,26
 409 65 409 65 324 65 c 0,27,28
 287 65 287 65 258.5 86.5 c 128,-1,29
 230 108 230 108 217 147.5 c 128,-1,30
 204 187 204 187 211 237 c 0,31,32
 220 299 220 299 251.5 351 c 128,-1,33
 283 403 283 403 330 433 c 128,-1,34
 377 463 377 463 431 463 c 0,35,36
 470 463 470 463 496 446 c 128,-1,37
 522 429 522 429 535 399 c 0,38,39
 537 397 537 397 539 398 c 128,-1,40
 541 399 541 399 543 403 c 2,41,-1
 557 438 l 1,42,-1
 612 438 l 1,43,-1
 542 213 l 2,44,45
 536 195 536 195 535 182 c 0,46,47
 531 157 531 157 540.5 145.5 c 128,-1,48
 550 134 550 134 572 134 c 0,49,50
 605 134 605 134 636 157.5 c 128,-1,51
 667 181 667 181 690 224.5 c 128,-1,52
 713 268 713 268 721 326 c 0,53,54
 734 416 734 416 701 476 c 128,-1,55
 668 536 668 536 608 563.5 c 128,-1,56
 548 591 548 591 476 591 c 0,57,58
 375 591 375 591 294 545.5 c 128,-1,59
 213 500 213 500 163 423 c 128,-1,60
 113 346 113 346 100 253 c 0,61,62
 88 165 88 165 116 95 c 128,-1,63
 144 25 144 25 212 -16 c 128,-1,64
 280 -57 280 -57 385 -57 c 0,65,66
 445 -57 445 -57 484 -41.5 c 128,-1,67
 523 -26 523 -26 577 7 c 1,68,-1
 603 -35 l 1,69,0
 551 -71 551 -71 490.5 -90.5 c 128,-1,1
288 154 m 128,-1,71
 305 122 305 122 343 122 c 0,72,73
 379 122 379 122 413.5 146 c 128,-1,74
 448 170 448 170 472 209.5 c 128,-1,75
 496 249 496 249 502 293 c 0,76,77
 510 347 510 347 487 376.5 c 128,-1,78
 464 406 464 406 427 406 c 0,79,80
 372 406 372 406 330.5 358.5 c 128,-1,81
 289 311 289 311 279 241 c 0,82,70
 271 186 271 186 288 154 c 128,-1,71
EndSplineSet
EndChar

StartChar: A
Encoding: 65 65 36
Width: 693
GlyphClass: 2
Flags: W
AnchorPoint: "Anchor-5" -46 0 basechar 0
AnchorPoint: "Anchor-4" -46 0 basechar 0
AnchorPoint: "Anchor-3" 304 723 basechar 0
AnchorPoint: "Anchor-2" 599 11 basechar 0
LayerCount: 2
Fore
SplineSet
360 723 m 1,0,-1
 446 723 l 1,1,-1
 606 0 l 1,2,-1
 531 0 l 1,3,-1
 484 209 l 1,4,-1
 176 209 l 1,5,-1
 70 0 l 1,6,-1
 -5 0 l 1,7,-1
 360 723 l 1,0,-1
473 279 m 1,8,-1
 392 650 l 1,9,-1
 206 279 l 1,10,-1
 473 279 l 1,8,-1
EndSplineSet
Substitution2: "Single Substitution lookup 30 subtable" ordfeminine
Substitution2: "'aalt' Access All Alternates in Latin lookup 0 subtable" ordfeminine
EndChar

StartChar: B
Encoding: 66 66 37
Width: 664
GlyphClass: 2
Flags: W
LayerCount: 2
Fore
SplineSet
155 723 m 1,0,-1
 376 723 l 2,1,2
 504 723 504 723 565 674.5 c 128,-1,3
 626 626 626 626 613 535 c 0,4,5
 604 474 604 474 566.5 433 c 128,-1,6
 529 392 529 392 453 368 c 1,7,8
 604 337 604 337 583 194 c 0,9,10
 569 97 569 97 492.5 48.5 c 128,-1,11
 416 0 416 0 280 0 c 2,12,-1
 53 0 l 1,13,-1
 155 723 l 1,0,-1
346 398 m 2,14,15
 419 398 419 398 474.5 427.5 c 128,-1,16
 530 457 530 457 540 526 c 0,17,18
 549 593 549 593 503 626.5 c 128,-1,19
 457 660 457 660 369 660 c 2,20,-1
 219 660 l 1,21,-1
 182 398 l 1,22,-1
 346 398 l 2,14,15
287 64 m 2,23,24
 389 64 389 64 444.5 95.5 c 128,-1,25
 500 127 500 127 509 194 c 0,26,27
 519 266 519 266 471 299.5 c 128,-1,28
 423 333 423 333 337 333 c 2,29,-1
 173 333 l 1,30,-1
 135 64 l 1,31,-1
 287 64 l 2,23,24
EndSplineSet
EndChar

StartChar: C
Encoding: 67 67 38
Width: 676
GlyphClass: 2
Flags: W
AnchorPoint: "Anchor-5" -46 0 basechar 0
AnchorPoint: "Anchor-4" 311 0 basechar 0
AnchorPoint: "Anchor-3" 311 723 basechar 0
AnchorPoint: "Anchor-2" -46 0 basechar 0
LayerCount: 2
Fore
SplineSet
537 704.5 m 128,-1,1
 592 676 592 676 620 627.5 c 128,-1,2
 648 579 648 579 647 521 c 1,3,-1
 569 516 l 1,4,5
 566 585 566 585 522.5 626 c 128,-1,6
 479 667 479 667 399 667 c 0,7,8
 293 667 293 667 227.5 590 c 128,-1,9
 162 513 162 513 141 361 c 0,10,11
 120 211 120 211 164.5 133.5 c 128,-1,12
 209 56 209 56 319 56 c 0,13,14
 388 56 388 56 443 95.5 c 128,-1,15
 498 135 498 135 523 203 c 1,16,-1
 598 194 l 1,17,18
 583 137 583 137 542 90.5 c 128,-1,19
 501 44 501 44 440.5 17 c 128,-1,20
 380 -10 380 -10 310 -10 c 0,21,22
 166 -10 166 -10 100.5 88.5 c 128,-1,23
 35 187 35 187 60 362 c 128,-1,24
 85 537 85 537 176 635 c 128,-1,25
 267 733 267 733 408 733 c 0,26,0
 482 733 482 733 537 704.5 c 128,-1,1
EndSplineSet
EndChar

StartChar: D
Encoding: 68 68 39
Width: 681
GlyphClass: 2
Flags: W
AnchorPoint: "Anchor-5" -46 0 basechar 0
AnchorPoint: "Anchor-4" -46 0 basechar 0
AnchorPoint: "Anchor-3" 287 723 basechar 0
AnchorPoint: "Anchor-2" -46 0 basechar 0
LayerCount: 2
Fore
SplineSet
304 722 m 2,0,1
 501 720 501 720 578.5 632 c 128,-1,2
 656 544 656 544 631 366 c 0,3,4
 605 181 605 181 497 90.5 c 128,-1,5
 389 0 389 0 192 0 c 2,6,-1
 53 0 l 1,7,-1
 155 723 l 1,8,-1
 304 722 l 2,0,1
138 66 m 1,9,-1
 200 66 l 2,10,11
 355 66 355 66 443 135.5 c 128,-1,12
 531 205 531 205 553 364 c 0,13,14
 576 525 576 525 508.5 591.5 c 128,-1,15
 441 658 441 658 288 658 c 2,16,-1
 221 658 l 1,17,-1
 138 66 l 1,9,-1
EndSplineSet
EndChar

StartChar: E
Encoding: 69 69 40
Width: 618
GlyphClass: 2
Flags: W
AnchorPoint: "Anchor-5" -46 0 basechar 0
AnchorPoint: "Anchor-4" 299 0 basechar 0
AnchorPoint: "Anchor-3" 284 723 basechar 0
AnchorPoint: "Anchor-2" 498 10 basechar 0
LayerCount: 2
Fore
SplineSet
155 723 m 1,0,-1
 596 723 l 1,1,-1
 585 657 l 1,2,-1
 218 657 l 1,3,-1
 182 398 l 1,4,-1
 517 398 l 1,5,-1
 508 332 l 1,6,-1
 173 332 l 1,7,-1
 136 68 l 1,8,-1
 514 67 l 1,9,-1
 505 0 l 1,10,-1
 53 0 l 1,11,-1
 155 723 l 1,0,-1
EndSplineSet
EndChar

StartChar: F
Encoding: 70 70 41
Width: 576
GlyphClass: 2
Flags: W
LayerCount: 2
Fore
SplineSet
590 723 m 1,0,-1
 580 657 l 1,1,-1
 221 657 l 1,2,-1
 185 397 l 1,3,-1
 512 397 l 1,4,-1
 503 331 l 1,5,-1
 176 331 l 1,6,-1
 129 0 l 1,7,-1
 53 0 l 1,8,-1
 155 723 l 1,9,-1
 590 723 l 1,0,-1
EndSplineSet
EndChar

StartChar: G
Encoding: 71 71 42
Width: 721
GlyphClass: 2
Flags: W
AnchorPoint: "Anchor-5" -46 0 basechar 0
AnchorPoint: "Anchor-4" 314 0 basechar 0
AnchorPoint: "Anchor-3" 310 723 basechar 0
AnchorPoint: "Anchor-2" -46 0 basechar 0
LayerCount: 2
Fore
SplineSet
153.5 34.5 m 128,-1,1
 92 79 92 79 67.5 162 c 128,-1,2
 43 245 43 245 59 359 c 0,3,4
 75 476 75 476 124.5 560 c 128,-1,5
 174 644 174 644 248.5 688.5 c 128,-1,6
 323 733 323 733 415 733 c 0,7,8
 482 733 482 733 536.5 704 c 128,-1,9
 591 675 591 675 621.5 626.5 c 128,-1,10
 652 578 652 578 649 523 c 1,11,-1
 568 516 l 1,12,13
 566 580 566 580 521 623 c 128,-1,14
 476 666 476 666 405 666 c 0,15,16
 300 666 300 666 229.5 587.5 c 128,-1,17
 159 509 159 509 138 365 c 0,18,19
 117 213 117 213 166 135 c 128,-1,20
 215 57 215 57 321 57 c 0,21,22
 383 57 383 57 431.5 86 c 128,-1,23
 480 115 480 115 508.5 158 c 128,-1,24
 537 201 537 201 545 244 c 2,25,-1
 557 316 l 1,26,-1
 371 316 l 1,27,-1
 379 372 l 1,28,-1
 640 371 l 1,29,-1
 588 0 l 1,30,-1
 529 0 l 1,31,-1
 545 116 l 1,32,33
 505 60 505 60 446 25 c 128,-1,34
 387 -10 387 -10 308 -10 c 0,35,0
 215 -10 215 -10 153.5 34.5 c 128,-1,1
EndSplineSet
EndChar

StartChar: H
Encoding: 72 72 43
Width: 704
GlyphClass: 2
Flags: W
AnchorPoint: "Anchor-5" -46 0 basechar 0
AnchorPoint: "Anchor-4" 305 0 basechar 0
AnchorPoint: "Anchor-3" 305 723 basechar 0
AnchorPoint: "Anchor-2" -46 0 basechar 0
LayerCount: 2
Fore
SplineSet
174 342 m 1,0,-1
 126 0 l 1,1,-1
 53 0 l 1,2,-1
 155 723 l 1,3,-1
 228 723 l 1,4,-1
 183 408 l 1,5,-1
 542 408 l 1,6,-1
 587 723 l 1,7,-1
 660 723 l 1,8,-1
 558 0 l 1,9,-1
 485 0 l 1,10,-1
 533 342 l 1,11,-1
 174 342 l 1,0,-1
EndSplineSet
EndChar

StartChar: I
Encoding: 73 73 44
Width: 271
GlyphClass: 2
Flags: W
AnchorPoint: "Anchor-5" -46 0 basechar 0
AnchorPoint: "Anchor-4" 93 0 basechar 0
AnchorPoint: "Anchor-3" 93 723 basechar 0
AnchorPoint: "Anchor-2" 115 8 basechar 0
LayerCount: 2
Fore
SplineSet
228 723 m 1,0,-1
 126 0 l 1,1,-1
 53 0 l 1,2,-1
 155 723 l 1,3,-1
 228 723 l 1,0,-1
EndSplineSet
EndChar

StartChar: J
Encoding: 74 74 45
Width: 380
GlyphClass: 2
Flags: W
AnchorPoint: "Anchor-5" -46 0 basechar 0
AnchorPoint: "Anchor-4" -46 0 basechar 0
AnchorPoint: "Anchor-3" 189 723 basechar 0
AnchorPoint: "Anchor-2" -46 0 basechar 0
LayerCount: 2
Fore
SplineSet
207.5 32 m 128,-1,1
 171 -10 171 -10 91 -10 c 0,2,3
 56 -10 56 -10 24.5 -1.5 c 128,-1,4
 -7 7 -7 7 -21 15 c 1,5,-1
 -3 87 l 1,6,-1
 17 77 l 2,7,8
 31 70 31 70 48 65.5 c 128,-1,9
 65 61 65 61 85 61 c 0,10,11
 133 61 133 61 155 88 c 128,-1,12
 177 115 177 115 186 181 c 2,13,-1
 263 723 l 1,14,-1
 336 723 l 1,15,-1
 256 159 l 2,16,0
 244 74 244 74 207.5 32 c 128,-1,1
EndSplineSet
EndChar

StartChar: K
Encoding: 75 75 46
Width: 665
GlyphClass: 2
Flags: W
AnchorPoint: "Anchor-5" -46 0 basechar 0
AnchorPoint: "Anchor-4" 290 0 basechar 0
AnchorPoint: "Anchor-3" 313 723 basechar 0
AnchorPoint: "Anchor-2" -46 0 basechar 0
LayerCount: 2
Fore
SplineSet
499 0 m 1,0,-1
 314 385 l 1,1,-1
 162 235 l 1,2,-1
 129 0 l 1,3,-1
 53 0 l 1,4,-1
 155 723 l 1,5,-1
 231 723 l 1,6,-1
 176 333 l 1,7,-1
 577 723 l 1,8,-1
 667 723 l 1,9,-1
 379 440 l 1,10,-1
 585 0 l 1,11,-1
 499 0 l 1,0,-1
EndSplineSet
EndChar

StartChar: L
Encoding: 76 76 47
Width: 558
GlyphClass: 2
Flags: W
AnchorPoint: "Anchor-5" 379 723 basechar 0
AnchorPoint: "Anchor-4" 261 0 basechar 0
AnchorPoint: "Anchor-3" 91 723 basechar 0
AnchorPoint: "Anchor-2" -46 0 basechar 0
LayerCount: 2
Fore
SplineSet
231 723 m 1,0,-1
 139 69 l 1,1,-1
 490 69 l 1,2,-1
 480 0 l 1,3,-1
 53 0 l 1,4,-1
 155 723 l 1,5,-1
 231 723 l 1,0,-1
EndSplineSet
EndChar

StartChar: M
Encoding: 77 77 48
Width: 870
GlyphClass: 2
Flags: W
LayerCount: 2
Fore
SplineSet
155 723 m 1,0,-1
 252 723 l 1,1,-1
 401 96 l 1,2,-1
 730 723 l 1,3,-1
 827 723 l 1,4,-1
 725 0 l 1,5,-1
 649 0 l 1,6,-1
 733 596 l 1,7,-1
 425 0 l 1,8,-1
 350 0 l 1,9,-1
 212 590 l 1,10,-1
 129 0 l 1,11,-1
 53 0 l 1,12,-1
 155 723 l 1,0,-1
EndSplineSet
EndChar

StartChar: N
Encoding: 78 78 49
Width: 741
GlyphClass: 2
Flags: W
AnchorPoint: "Anchor-5" -46 0 basechar 0
AnchorPoint: "Anchor-4" 305 0 basechar 0
AnchorPoint: "Anchor-3" 335 723 basechar 0
AnchorPoint: "Anchor-2" -46 0 basechar 0
LayerCount: 2
Fore
SplineSet
697 723 m 1,0,-1
 595 0 l 1,1,-1
 530 0 l 1,2,-1
 210 597 l 1,3,-1
 126 0 l 1,4,-1
 53 0 l 1,5,-1
 155 723 l 1,6,-1
 222 723 l 1,7,-1
 540 131 l 1,8,-1
 624 723 l 1,9,-1
 697 723 l 1,0,-1
EndSplineSet
EndChar

StartChar: O
Encoding: 79 79 50
Width: 722
GlyphClass: 2
Flags: W
AnchorPoint: "Anchor-5" -46 0 basechar 0
AnchorPoint: "Anchor-4" 317 0 basechar 0
AnchorPoint: "Anchor-3" 317 723 basechar 0
AnchorPoint: "Anchor-2" 390 9 basechar 0
LayerCount: 2
Fore
SplineSet
102.5 86 m 128,-1,1
 35 182 35 182 59 358 c 0,2,3
 76 477 76 477 125 561.5 c 128,-1,4
 174 646 174 646 249 689.5 c 128,-1,5
 324 733 324 733 419 733 c 0,6,7
 513 733 513 733 575.5 689.5 c 128,-1,8
 638 646 638 646 662.5 562 c 128,-1,9
 687 478 687 478 671 360 c 0,10,11
 646 183 646 183 551.5 86.5 c 128,-1,12
 457 -10 457 -10 314 -10 c 0,13,0
 170 -10 170 -10 102.5 86 c 128,-1,1
501.5 131 m 128,-1,15
 569 206 569 206 590 359 c 0,16,17
 612 514 612 514 565.5 590.5 c 128,-1,18
 519 667 519 667 410 667 c 128,-1,19
 301 667 301 667 231.5 590 c 128,-1,20
 162 513 162 513 140 359 c 0,21,22
 119 207 119 207 167 131.5 c 128,-1,23
 215 56 215 56 325 56 c 0,24,14
 434 56 434 56 501.5 131 c 128,-1,15
EndSplineSet
Substitution2: "Single Substitution lookup 30 subtable" ordmasculine
Substitution2: "'aalt' Access All Alternates in Latin lookup 0 subtable" ordmasculine
EndChar

StartChar: P
Encoding: 80 80 51
Width: 633
GlyphClass: 2
Flags: W
LayerCount: 2
Fore
SplineSet
155 723 m 1,0,-1
 391 723 l 2,1,2
 513 723 513 723 577.5 671 c 128,-1,3
 642 619 642 619 627 513 c 0,4,5
 612 409 612 409 535.5 355.5 c 128,-1,6
 459 302 459 302 342 302 c 2,7,-1
 171 302 l 1,8,-1
 129 0 l 1,9,-1
 53 0 l 1,10,-1
 155 723 l 1,0,-1
350 367 m 2,11,12
 435 367 435 367 489 405 c 128,-1,13
 543 443 543 443 554 518 c 0,14,15
 574 659 574 659 386 659 c 2,16,-1
 221 659 l 1,17,-1
 180 367 l 1,18,-1
 350 367 l 2,11,12
EndSplineSet
EndChar

StartChar: Q
Encoding: 81 81 52
Width: 727
GlyphClass: 2
Flags: W
LayerCount: 2
Fore
SplineSet
121 563 m 128,-1,1
 170 647 170 647 244.5 690 c 128,-1,2
 319 733 319 733 414 733 c 0,3,4
 558 733 558 733 625.5 636 c 128,-1,5
 693 539 693 539 668 360 c 0,6,7
 651 241 651 241 604 159.5 c 128,-1,8
 557 78 557 78 472 32 c 1,9,10
 499 -51 499 -51 602 -56 c 1,11,-1
 593 -120 l 1,12,13
 533 -120 533 -120 480 -94 c 128,-1,14
 427 -68 427 -68 398 0 c 1,15,16
 350 -10 350 -10 310 -10 c 0,17,18
 216 -10 216 -10 153.5 32.5 c 128,-1,19
 91 75 91 75 65 158 c 128,-1,20
 39 241 39 241 56 360 c 0,21,0
 72 479 72 479 121 563 c 128,-1,1
162.5 131 m 128,-1,23
 210 56 210 56 319 56 c 0,24,25
 429 56 429 56 497.5 131 c 128,-1,26
 566 206 566 206 588 360 c 0,27,28
 609 512 609 512 562 589.5 c 128,-1,29
 515 667 515 667 405 667 c 128,-1,30
 295 667 295 667 226.5 589 c 128,-1,31
 158 511 158 511 136 358 c 0,32,22
 115 206 115 206 162.5 131 c 128,-1,23
EndSplineSet
EndChar

StartChar: R
Encoding: 82 82 53
Width: 672
GlyphClass: 2
Flags: W
AnchorPoint: "Anchor-5" -46 0 basechar 0
AnchorPoint: "Anchor-4" 285 0 basechar 0
AnchorPoint: "Anchor-3" 278 723 basechar 0
AnchorPoint: "Anchor-2" -46 0 basechar 0
LayerCount: 2
Fore
SplineSet
475 0 m 1,0,-1
 383 323 l 1,1,-1
 171 323 l 1,2,-1
 126 0 l 1,3,-1
 53 0 l 1,4,-1
 155 723 l 1,5,-1
 426 723 l 2,6,7
 538 723 538 723 590 673.5 c 128,-1,8
 642 624 642 624 629 532 c 0,9,10
 618 451 618 451 569.5 404.5 c 128,-1,11
 521 358 521 358 456 337 c 1,12,-1
 554 0 l 1,13,-1
 475 0 l 1,0,-1
552 526 m 0,14,15
 571 660 571 660 411 660 c 2,16,-1
 219 660 l 1,17,-1
 180 387 l 1,18,-1
 346 387 l 2,19,20
 532 387 532 387 552 526 c 0,14,15
EndSplineSet
EndChar

StartChar: S
Encoding: 83 83 54
Width: 662
GlyphClass: 2
Flags: W
AnchorPoint: "Anchor-5" -46 0 basechar 0
AnchorPoint: "Anchor-4" 280 0 basechar 0
AnchorPoint: "Anchor-3" 285 723 basechar 0
AnchorPoint: "Anchor-2" -46 0 basechar 0
LayerCount: 2
Fore
SplineSet
162.5 12 m 128,-1,1
 105 34 105 34 70.5 77 c 128,-1,2
 36 120 36 120 34 179 c 1,3,-1
 112 186 l 1,4,5
 117 122 117 122 169 87.5 c 128,-1,6
 221 53 221 53 297 53 c 0,7,8
 382 53 382 53 441 88.5 c 128,-1,9
 500 124 500 124 509 182 c 0,10,11
 516 233 516 233 488.5 265.5 c 128,-1,12
 461 298 461 298 398 313 c 2,13,-1
 252 348 l 2,14,15
 173 366 173 366 134.5 411 c 128,-1,16
 96 456 96 456 105 525 c 0,17,18
 113 585 113 585 152 632 c 128,-1,19
 191 679 191 679 253 705.5 c 128,-1,20
 315 732 315 732 390 732 c 0,21,22
 470 732 470 732 523 704.5 c 128,-1,23
 576 677 576 677 600.5 631.5 c 128,-1,24
 625 586 625 586 624 532 c 1,25,-1
 548 526 l 1,26,27
 546 599 546 599 500 633 c 128,-1,28
 454 667 454 667 380 667 c 0,29,30
 336 667 336 667 293 651.5 c 128,-1,31
 250 636 250 636 220.5 605.5 c 128,-1,32
 191 575 191 575 185 531 c 0,33,34
 179 488 179 488 205.5 458.5 c 128,-1,35
 232 429 232 429 304 411 c 2,36,-1
 444 376 l 2,37,38
 609 337 609 337 587 183 c 0,39,40
 579 129 579 129 541 85 c 128,-1,41
 503 41 503 41 438 15.5 c 128,-1,42
 373 -10 373 -10 289 -10 c 0,43,0
 220 -10 220 -10 162.5 12 c 128,-1,1
EndSplineSet
EndChar

StartChar: T
Encoding: 84 84 55
Width: 564
GlyphClass: 2
Flags: W
AnchorPoint: "Anchor-5" -46 0 basechar 0
AnchorPoint: "Anchor-4" 247 0 basechar 0
AnchorPoint: "Anchor-3" 247 723 basechar 0
AnchorPoint: "Anchor-2" -46 0 basechar 0
LayerCount: 2
Fore
SplineSet
70 723 m 1,0,-1
 605 723 l 1,1,-1
 595 654 l 1,2,-1
 372 654 l 1,3,-1
 280 0 l 1,4,-1
 207 0 l 1,5,-1
 299 654 l 1,6,-1
 60 654 l 1,7,-1
 70 723 l 1,0,-1
EndSplineSet
EndChar

StartChar: U
Encoding: 85 85 56
Width: 709
GlyphClass: 2
Flags: W
AnchorPoint: "Anchor-5" -46 0 basechar 0
AnchorPoint: "Anchor-4" -46 0 basechar 0
AnchorPoint: "Anchor-3" 306 723 basechar 0
AnchorPoint: "Anchor-2" 380 10 basechar 0
LayerCount: 2
Fore
SplineSet
307 -10 m 0,0,1
 174 -10 174 -10 122 55 c 128,-1,2
 70 120 70 120 88 252 c 2,3,-1
 155 723 l 1,4,-1
 231 723 l 1,5,-1
 162 237 l 2,6,7
 149 147 149 147 188 101 c 128,-1,8
 227 55 227 55 316 55 c 128,-1,9
 405 55 405 55 458 100.5 c 128,-1,10
 511 146 511 146 523 237 c 2,11,-1
 592 723 l 1,12,-1
 665 723 l 1,13,-1
 597 240 l 2,14,15
 562 -10 562 -10 307 -10 c 0,0,1
EndSplineSet
EndChar

StartChar: V
Encoding: 86 86 57
Width: 629
GlyphClass: 2
Flags: W
LayerCount: 2
Fore
SplineSet
313 0 m 1,0,-1
 221 0 l 1,1,-1
 69 723 l 1,2,-1
 143 723 l 1,3,-1
 279 82 l 1,4,-1
 600 723 l 1,5,-1
 673 723 l 1,6,-1
 313 0 l 1,0,-1
EndSplineSet
EndChar

StartChar: W
Encoding: 87 87 58
Width: 949
GlyphClass: 2
Flags: W
AnchorPoint: "Anchor-5" -46 0 basechar 0
AnchorPoint: "Anchor-4" -46 0 basechar 0
AnchorPoint: "Anchor-3" 433 723 basechar 0
AnchorPoint: "Anchor-2" -46 0 basechar 0
LayerCount: 2
Fore
SplineSet
668 0 m 1,0,-1
 594 0 l 1,1,-1
 510 592 l 1,2,-1
 257 0 l 1,3,-1
 186 0 l 1,4,-1
 81 723 l 1,5,-1
 157 723 l 1,6,-1
 240 112 l 1,7,-1
 499 723 l 1,8,-1
 560 723 l 1,9,-1
 646 112 l 1,10,-1
 905 723 l 1,11,-1
 980 723 l 1,12,-1
 668 0 l 1,0,-1
EndSplineSet
EndChar

StartChar: X
Encoding: 88 88 59
Width: 638
GlyphClass: 2
Flags: W
LayerCount: 2
Fore
SplineSet
474 0 m 1,0,-1
 312 309 l 1,1,-1
 64 0 l 1,2,-1
 -21 0 l 1,3,-1
 278 370 l 1,4,-1
 91 723 l 1,5,-1
 185 723 l 1,6,-1
 334 434 l 1,7,-1
 566 723 l 1,8,-1
 650 723 l 1,9,-1
 368 376 l 1,10,-1
 567 0 l 1,11,-1
 474 0 l 1,0,-1
EndSplineSet
EndChar

StartChar: Y
Encoding: 89 89 60
Width: 576
GlyphClass: 2
Flags: W
AnchorPoint: "Anchor-5" -46 0 basechar 0
AnchorPoint: "Anchor-4" -46 0 basechar 0
AnchorPoint: "Anchor-3" 245 723 basechar 0
AnchorPoint: "Anchor-2" -46 0 basechar 0
LayerCount: 2
Fore
SplineSet
323 309 m 1,0,-1
 280 0 l 1,1,-1
 207 0 l 1,2,-1
 251 310 l 1,3,-1
 64 723 l 1,4,-1
 144 723 l 1,5,-1
 297 376 l 1,6,-1
 544 723 l 1,7,-1
 624 723 l 1,8,-1
 323 309 l 1,0,-1
EndSplineSet
EndChar

StartChar: Z
Encoding: 90 90 61
Width: 613
GlyphClass: 2
Flags: W
AnchorPoint: "Anchor-5" -46 0 basechar 0
AnchorPoint: "Anchor-4" 271 0 basechar 0
AnchorPoint: "Anchor-3" 270 723 basechar 0
AnchorPoint: "Anchor-2" -46 0 basechar 0
LayerCount: 2
Fore
SplineSet
13 44 m 1,0,-1
 505 658 l 1,1,-1
 113 658 l 1,2,-1
 123 723 l 1,3,-1
 616 723 l 1,4,-1
 610 681 l 1,5,-1
 114 66 l 1,6,-1
 522 66 l 1,7,-1
 513 0 l 1,8,-1
 7 0 l 1,9,-1
 13 44 l 1,0,-1
EndSplineSet
EndChar

StartChar: bracketleft
Encoding: 91 91 62
Width: 289
GlyphClass: 2
Flags: W
LayerCount: 2
Fore
SplineSet
323 723 m 1,0,-1
 315 672 l 1,1,-1
 211 672 l 1,2,-1
 101 -110 l 1,3,-1
 205 -110 l 1,4,-1
 197 -161 l 1,5,-1
 27 -161 l 1,6,-1
 152 723 l 1,7,-1
 323 723 l 1,0,-1
EndSplineSet
EndChar

StartChar: backslash
Encoding: 92 92 63
Width: 338
GlyphClass: 2
Flags: W
LayerCount: 2
Fore
SplineSet
67 723 m 1,0,-1
 128 723 l 1,1,-1
 270 -46 l 1,2,-1
 208 -46 l 1,3,-1
 67 723 l 1,0,-1
EndSplineSet
EndChar

StartChar: bracketright
Encoding: 93 93 64
Width: 289
GlyphClass: 2
Flags: W
LayerCount: 2
Fore
SplineSet
27 -161 m 1,0,-1
 35 -110 l 1,1,-1
 139 -110 l 1,2,-1
 249 672 l 1,3,-1
 145 672 l 1,4,-1
 153 723 l 1,5,-1
 323 723 l 1,6,-1
 198 -161 l 1,7,-1
 27 -161 l 1,0,-1
EndSplineSet
EndChar

StartChar: asciicircum
Encoding: 94 94 65
Width: 470
GlyphClass: 2
Flags: W
LayerCount: 2
Fore
SplineSet
247 436 m 1,0,-1
 84 132 l 1,1,-1
 22 132 l 1,2,-1
 218 491 l 2,3,4
 227 508 227 508 238.5 517 c 128,-1,5
 250 526 250 526 261 526 c 0,6,7
 271 526 271 526 279.5 517 c 128,-1,8
 288 508 288 508 293 491 c 2,9,-1
 389 130 l 1,10,-1
 325 130 l 1,11,-1
 247 436 l 1,0,-1
EndSplineSet
EndChar

StartChar: underscore
Encoding: 95 95 66
Width: 508
GlyphClass: 2
Flags: W
LayerCount: 2
Fore
SplineSet
380 -111 m 1,0,-1
 2 -111 l 1,1,-1
 11 -51 l 1,2,-1
 389 -50 l 1,3,-1
 380 -111 l 1,0,-1
EndSplineSet
EndChar

StartChar: grave
Encoding: 96 96 67
Width: 280
GlyphClass: 2
Flags: W
LayerCount: 2
Fore
SplineSet
313 637 m 1,0,-1
 294 596 l 1,1,-1
 56 671 l 1,2,-1
 86 732 l 1,3,-1
 313 637 l 1,0,-1
EndSplineSet
EndChar

StartChar: a
Encoding: 97 97 68
Width: 590
GlyphClass: 2
Flags: W
LayerCount: 2
Fore
SplineSet
387 0 m 1,0,-1
 394 50 l 1,1,2
 352 18 352 18 314 4 c 128,-1,3
 276 -10 276 -10 233 -10 c 0,4,5
 165 -10 165 -10 118 23 c 128,-1,6
 71 56 71 56 51 118.5 c 128,-1,7
 31 181 31 181 43 266 c 128,-1,8
 55 351 55 351 92 409.5 c 128,-1,9
 129 468 129 468 182.5 497.5 c 128,-1,10
 236 527 236 527 298 527 c 0,11,12
 341 527 341 527 371.5 513.5 c 128,-1,13
 402 500 402 500 415.5 486.5 c 128,-1,14
 429 473 429 473 451 448 c 1,15,-1
 461 517 l 1,16,-1
 533 517 l 1,17,-1
 459 0 l 1,18,-1
 387 0 l 1,0,-1
406 137 m 1,19,-1
 434 335 l 2,20,21
 439 368 439 368 425 399.5 c 128,-1,22
 411 431 411 431 380.5 450.5 c 128,-1,23
 350 470 350 470 309 470 c 0,24,25
 240 470 240 470 186 417.5 c 128,-1,26
 132 365 132 365 118 264 c 0,27,28
 109 197 109 197 124 148 c 128,-1,29
 139 99 139 99 173 72.5 c 128,-1,30
 207 46 207 46 256 46 c 0,31,32
 331 46 331 46 406 137 c 1,19,-1
EndSplineSet
Substitution2: "Single Substitution lookup 30 subtable" ordfeminine
Substitution2: "'aalt' Access All Alternates in Latin lookup 0 subtable" ordfeminine
EndChar

StartChar: b
Encoding: 98 98 69
Width: 590
GlyphClass: 2
Flags: W
LayerCount: 2
Fore
SplineSet
163.5 18.5 m 128,-1,1
 124 47 124 47 112 77 c 1,2,-1
 94 0 l 1,3,-1
 37 0 l 1,4,-1
 141 743 l 1,5,-1
 214 743 l 1,6,-1
 173 447 l 1,7,8
 195 473 195 473 243.5 500 c 128,-1,9
 292 527 292 527 355 527 c 0,10,11
 459 527 459 527 501.5 453 c 128,-1,12
 544 379 544 379 528 260 c 0,13,14
 510 135 510 135 441 62.5 c 128,-1,15
 372 -10 372 -10 267 -10 c 0,16,0
 203 -10 203 -10 163.5 18.5 c 128,-1,1
384.5 102 m 128,-1,18
 437 155 437 155 452 261 c 0,19,20
 466 359 466 359 433 413 c 128,-1,21
 400 467 400 467 327 467 c 0,22,23
 278 467 278 467 235 442 c 128,-1,24
 192 417 192 417 163 374 c 1,25,-1
 137 193 l 2,26,27
 131 153 131 153 147 120 c 128,-1,28
 163 87 163 87 193.5 68 c 128,-1,29
 224 49 224 49 261 49 c 0,30,17
 332 49 332 49 384.5 102 c 128,-1,18
EndSplineSet
EndChar

StartChar: c
Encoding: 99 99 70
Width: 538
GlyphClass: 2
Flags: W
AnchorPoint: "Anchor-5" -46 0 basechar 0
AnchorPoint: "Anchor-4" 239 0 basechar 0
AnchorPoint: "Anchor-3" 237 517 basechar 0
AnchorPoint: "Anchor-2" -46 0 basechar 0
LayerCount: 2
Fore
SplineSet
488 391 m 1,0,-1
 426 375 l 1,1,2
 396 426 396 426 372 446 c 128,-1,3
 348 466 348 466 307 466 c 0,4,5
 231 466 231 466 179 409.5 c 128,-1,6
 127 353 127 353 113 258 c 0,7,8
 100 162 100 162 136.5 105 c 128,-1,9
 173 48 173 48 249 48 c 0,10,11
 296 48 296 48 330.5 72.5 c 128,-1,12
 365 97 365 97 401 147 c 1,13,-1
 457 130 l 1,14,15
 419 63 419 63 363.5 26.5 c 128,-1,16
 308 -10 308 -10 237 -10 c 0,17,18
 167 -10 167 -10 119 23.5 c 128,-1,19
 71 57 71 57 51 117 c 128,-1,20
 31 177 31 177 42 256 c 128,-1,21
 53 335 53 335 90 396.5 c 128,-1,22
 127 458 127 458 184.5 492.5 c 128,-1,23
 242 527 242 527 312 527 c 0,24,25
 445 527 445 527 488 391 c 1,0,-1
EndSplineSet
EndChar

StartChar: d
Encoding: 100 100 71
Width: 580
GlyphClass: 2
Flags: W
AnchorPoint: "Anchor-5" 550 678 basechar 0
AnchorPoint: "Anchor-4" 241 0 basechar 0
AnchorPoint: "Anchor-3" -46 0 basechar 0
AnchorPoint: "Anchor-2" -46 0 basechar 0
LayerCount: 2
Fore
SplineSet
71.5 58 m 128,-1,1
 24 126 24 126 41 252 c 0,2,3
 59 377 59 377 127 452 c 128,-1,4
 195 527 195 527 298 527 c 0,5,6
 342 527 342 527 377 511 c 128,-1,7
 412 495 412 495 442 462 c 1,8,-1
 481 743 l 1,9,-1
 555 743 l 1,10,-1
 451 0 l 1,11,-1
 392 0 l 1,12,-1
 399 75 l 1,13,14
 320 -10 320 -10 218 -10 c 0,15,0
 119 -10 119 -10 71.5 58 c 128,-1,1
315.5 68.5 m 128,-1,17
 351 88 351 88 374.5 119 c 128,-1,18
 398 150 398 150 403 182 c 2,19,-1
 431 386 l 1,20,21
 388 467 388 467 305 467 c 0,22,23
 230 467 230 467 179.5 412.5 c 128,-1,24
 129 358 129 358 115 255 c 128,-1,25
 101 152 101 152 136 100.5 c 128,-1,26
 171 49 171 49 240 49 c 0,27,16
 280 49 280 49 315.5 68.5 c 128,-1,17
EndSplineSet
EndChar

StartChar: e
Encoding: 101 101 72
Width: 556
GlyphClass: 2
Flags: W
AnchorPoint: "Anchor-5" -46 0 basechar 0
AnchorPoint: "Anchor-4" 231 0 basechar 0
AnchorPoint: "Anchor-3" 237 517 basechar 0
AnchorPoint: "Anchor-2" 338 20 basechar 0
LayerCount: 2
Fore
SplineSet
138 104 m 128,-1,1
 173 50 173 50 253 50 c 0,2,3
 356 50 356 50 401 134 c 1,4,-1
 466 121 l 1,5,6
 439 60 439 60 379.5 25 c 128,-1,7
 320 -10 320 -10 246 -10 c 0,8,9
 175 -10 175 -10 124.5 21.5 c 128,-1,10
 74 53 74 53 52 112.5 c 128,-1,11
 30 172 30 172 42 254 c 0,12,13
 60 380 60 380 131 453.5 c 128,-1,14
 202 527 202 527 311 527 c 0,15,16
 415 527 415 527 463.5 459.5 c 128,-1,17
 512 392 512 392 495 273 c 2,18,-1
 491 241 l 1,19,-1
 115 241 l 1,20,0
 103 158 103 158 138 104 c 128,-1,1
427 295 m 1,21,22
 438 372 438 372 407 420 c 128,-1,23
 376 468 376 468 302 468 c 0,24,25
 251 468 251 468 212.5 443 c 128,-1,26
 174 418 174 418 151.5 378.5 c 128,-1,27
 129 339 129 339 122 295 c 1,28,-1
 427 295 l 1,21,22
EndSplineSet
EndChar

StartChar: f
Encoding: 102 102 73
Width: 385
GlyphClass: 2
Flags: W
LayerCount: 2
Fore
SplineSet
368 462 m 1,0,-1
 236 462 l 1,1,-1
 148 -161 l 1,2,-1
 75 -161 l 1,3,-1
 163 462 l 1,4,-1
 49 462 l 1,5,-1
 57 517 l 1,6,-1
 171 517 l 1,7,-1
 182 599 l 2,8,9
 199 723 199 723 320 723 c 2,10,-1
 410 723 l 1,11,-1
 402 669 l 1,12,-1
 322 669 l 2,13,14
 290 669 290 669 275 651.5 c 128,-1,15
 260 634 260 634 255 597 c 2,16,-1
 244 517 l 1,17,-1
 376 517 l 1,18,-1
 368 462 l 1,0,-1
EndSplineSet
EndChar

StartChar: g
Encoding: 103 103 74
Width: 595
GlyphClass: 2
Flags: W
AnchorPoint: "Anchor-5" -46 0 basechar 0
AnchorPoint: "Anchor-4" -46 0 basechar 0
AnchorPoint: "Anchor-3" 247 517 basechar 0
AnchorPoint: "Anchor-2" -46 0 basechar 0
LayerCount: 2
Fore
SplineSet
37.5 -134 m 128,-1,1
 -22 -97 -22 -97 -12 -32 c 0,2,3
 -6 9 -6 9 22 34 c 128,-1,4
 50 59 50 59 73 71 c 128,-1,5
 96 83 96 83 101 86 c 1,6,7
 98 88 98 88 85 96 c 128,-1,8
 72 104 72 104 64.5 117 c 128,-1,9
 57 130 57 130 60 147 c 0,10,11
 63 171 63 171 88 190 c 128,-1,12
 113 209 113 209 156 219 c 1,13,14
 111 245 111 245 93.5 279 c 128,-1,15
 76 313 76 313 83 361 c 0,16,17
 94 438 94 438 159 481.5 c 128,-1,18
 224 525 224 525 323 525 c 0,19,20
 371 525 371 525 404 513.5 c 128,-1,21
 437 502 437 502 464 479 c 1,22,-1
 597 531 l 1,23,-1
 586 455 l 1,24,-1
 492 437 l 1,25,26
 497 422 497 422 500 399.5 c 128,-1,27
 503 377 503 377 501 361 c 0,28,29
 491 291 491 291 431 245.5 c 128,-1,30
 371 200 371 200 269 200 c 1,31,-1
 246 201 l 2,32,33
 188 200 188 200 161.5 188.5 c 128,-1,34
 135 177 135 177 133 161 c 0,35,36
 131 146 131 146 151.5 140 c 128,-1,37
 172 134 172 134 230 130 c 2,38,-1
 343 123 l 2,39,40
 424 118 424 118 459 82 c 128,-1,41
 494 46 494 46 486 -14 c 0,42,43
 476 -88 476 -88 405.5 -129.5 c 128,-1,44
 335 -171 335 -171 217 -171 c 0,45,0
 97 -171 97 -171 37.5 -134 c 128,-1,1
384 280 m 128,-1,47
 423 308 423 308 431 361 c 0,48,49
 439 415 439 415 407.5 445 c 128,-1,50
 376 475 376 475 310 475 c 0,51,52
 245 475 245 475 204 444.5 c 128,-1,53
 163 414 163 414 156 361 c 0,54,55
 149 309 149 309 180.5 280.5 c 128,-1,56
 212 252 212 252 278 252 c 0,57,46
 345 252 345 252 384 280 c 128,-1,47
362 -96 m 128,-1,59
 405 -72 405 -72 412 -23 c 0,60,61
 417 14 417 14 396.5 34 c 128,-1,62
 376 54 376 54 324 57 c 2,63,-1
 170 67 l 2,64,65
 152 69 152 69 127.5 57 c 128,-1,66
 103 45 103 45 84 23 c 128,-1,67
 65 1 65 1 62 -24 c 0,68,69
 55 -71 55 -71 100.5 -95.5 c 128,-1,70
 146 -120 146 -120 238 -120 c 0,71,58
 319 -120 319 -120 362 -96 c 128,-1,59
EndSplineSet
EndChar

StartChar: h
Encoding: 104 104 75
Width: 584
GlyphClass: 2
Flags: W
AnchorPoint: "Anchor-5" -46 0 basechar 0
AnchorPoint: "Anchor-4" 254 0 basechar 0
AnchorPoint: "Anchor-3" 301 517 basechar 0
AnchorPoint: "Anchor-2" -46 0 basechar 0
LayerCount: 2
Fore
SplineSet
141 743 m 1,0,-1
 211 743 l 1,1,-1
 169 443 l 1,2,3
 215 475 215 475 242 490.5 c 128,-1,4
 269 506 269 506 299 515.5 c 128,-1,5
 329 525 329 525 365 525 c 0,6,7
 441 525 441 525 478.5 484 c 128,-1,8
 516 443 516 443 507 375 c 2,9,-1
 454 0 l 1,10,-1
 381 0 l 1,11,-1
 431 358 l 2,12,13
 438 409 438 409 415.5 436 c 128,-1,14
 393 463 393 463 339 463 c 0,15,16
 296 463 296 463 258 444.5 c 128,-1,17
 220 426 220 426 164 383 c 1,18,-1
 110 0 l 1,19,-1
 37 0 l 1,20,-1
 141 743 l 1,0,-1
EndSplineSet
EndChar

StartChar: i
Encoding: 105 105 76
Width: 246
GlyphClass: 2
Flags: W
LayerCount: 2
Fore
SplineSet
206 632 m 1,0,-1
 126 632 l 1,1,-1
 141 743 l 1,2,-1
 221 743 l 1,3,-1
 206 632 l 1,0,-1
114 0 m 1,4,-1
 40 0 l 1,5,-1
 113 517 l 1,6,-1
 187 517 l 1,7,-1
 114 0 l 1,4,-1
EndSplineSet
Substitution2: "Single Substitution lookup 28 subtable" dotlessi
Substitution2: "'locl' Localized Forms in Latin lookup 10 subtable" i.loclTRK
Substitution2: "'locl' Localized Forms in Latin lookup 9 subtable" i.loclTRK
Substitution2: "'locl' Localized Forms in Latin lookup 8 subtable" i.loclTRK
Substitution2: "'locl' Localized Forms in Latin lookup 7 subtable" i.loclTRK
Substitution2: "'locl' Localized Forms in Latin lookup 6 subtable" i.loclTRK
AlternateSubs2: "'aalt' Access All Alternates in Latin lookup 1 subtable" dotlessi i.loclTRK
EndChar

StartChar: j
Encoding: 106 106 77
Width: 269
GlyphClass: 2
Flags: W
LayerCount: 2
Fore
SplineSet
219 632 m 1,0,-1
 138 632 l 1,1,-1
 153 743 l 1,2,-1
 234 743 l 1,3,-1
 219 632 l 1,0,-1
78.5 -134.5 m 128,-1,5
 45 -166 45 -166 -28 -166 c 0,6,7
 -63 -166 -63 -166 -76.5 -161.5 c 128,-1,8
 -90 -157 -90 -157 -90 -155 c 2,9,-1
 -84 -107 l 1,10,-1
 -29 -105 l 2,11,12
 8 -103 8 -103 25.5 -86 c 128,-1,13
 43 -69 43 -69 49 -29 c 2,14,-1
 126 517 l 1,15,-1
 199 517 l 1,16,-1
 121 -33 l 2,17,4
 112 -103 112 -103 78.5 -134.5 c 128,-1,5
EndSplineSet
Substitution2: "Single Substitution lookup 28 subtable" uni0237
Substitution2: "'aalt' Access All Alternates in Latin lookup 0 subtable" uni0237
EndChar

StartChar: k
Encoding: 107 107 78
Width: 554
GlyphClass: 2
Flags: W
AnchorPoint: "Anchor-5" -46 0 basechar 0
AnchorPoint: "Anchor-4" 230 0 basechar 0
AnchorPoint: "Anchor-3" -46 0 basechar 0
AnchorPoint: "Anchor-2" -46 0 basechar 0
LayerCount: 2
Fore
SplineSet
394 0 m 1,0,-1
 262 273 l 1,1,-1
 132 155 l 1,2,-1
 110 0 l 1,3,-1
 37 0 l 1,4,-1
 141 743 l 1,5,-1
 214 743 l 1,6,-1
 144 240 l 1,7,-1
 447 517 l 1,8,-1
 532 517 l 1,9,-1
 319 323 l 1,10,-1
 474 0 l 1,11,-1
 394 0 l 1,0,-1
EndSplineSet
EndChar

StartChar: l
Encoding: 108 108 79
Width: 282
GlyphClass: 2
Flags: W
AnchorPoint: "Anchor-5" 234 732 basechar 0
AnchorPoint: "Anchor-4" 67 0 basechar 0
AnchorPoint: "Anchor-3" 70 763 basechar 0
AnchorPoint: "Anchor-2" -46 0 basechar 0
LayerCount: 2
Fore
SplineSet
68 34 m 128,-1,1
 47 70 47 70 56 133 c 2,2,-1
 141 743 l 1,3,-1
 213 743 l 1,4,-1
 128 138 l 2,5,6
 122 96 122 96 135.5 75.5 c 128,-1,7
 149 55 149 55 175 54 c 2,8,-1
 203 53 l 1,9,-1
 197 5 l 1,10,11
 172 -2 172 -2 155 -2 c 0,12,0
 89 -2 89 -2 68 34 c 128,-1,1
EndSplineSet
Substitution2: "'ss01' Style Set 1 in Latin lookup 27 subtable" l.ss01
Substitution2: "'salt' Stylistic Alternatives in Latin lookup 26 subtable" l.ss01
Substitution2: "'aalt' Access All Alternates in Latin lookup 0 subtable" l.ss01
EndChar

StartChar: m
Encoding: 109 109 80
Width: 897
GlyphClass: 2
Flags: W
LayerCount: 2
Fore
SplineSet
110 517 m 1,0,-1
 180 517 l 1,1,-1
 169 443 l 1,2,3
 196 478 196 478 240.5 502.5 c 128,-1,4
 285 527 285 527 340 527 c 0,5,6
 397 527 397 527 437.5 506 c 128,-1,7
 478 485 478 485 491 444 c 1,8,9
 521 484 521 484 565.5 505.5 c 128,-1,10
 610 527 610 527 665 527 c 0,11,12
 739 527 739 527 785 486 c 128,-1,13
 831 445 831 445 816 341 c 2,14,-1
 768 0 l 1,15,-1
 695 0 l 1,16,-1
 742 336 l 2,17,18
 752 409 752 409 723.5 438 c 128,-1,19
 695 467 695 467 638 467 c 128,-1,20
 581 467 581 467 538.5 439 c 128,-1,21
 496 411 496 411 487 349 c 2,22,-1
 438 0 l 1,23,-1
 365 0 l 1,24,-1
 417 368 l 2,25,26
 424 415 424 415 393 441 c 128,-1,27
 362 467 362 467 309 467 c 0,28,29
 258 467 258 467 213 438.5 c 128,-1,30
 168 410 168 410 160 356 c 2,31,-1
 110 0 l 1,32,-1
 37 0 l 1,33,-1
 110 517 l 1,0,-1
EndSplineSet
EndChar

StartChar: n
Encoding: 110 110 81
Width: 584
GlyphClass: 2
Flags: W
AnchorPoint: "Anchor-5" -46 0 basechar 0
AnchorPoint: "Anchor-4" 246 0 basechar 0
AnchorPoint: "Anchor-3" 254 517 basechar 0
AnchorPoint: "Anchor-2" -46 0 basechar 0
LayerCount: 2
Fore
SplineSet
110 517 m 1,0,-1
 180 517 l 1,1,-1
 169 443 l 1,2,3
 196 480 196 480 242 502.5 c 128,-1,4
 288 525 288 525 347 525 c 0,5,6
 426 525 426 525 470 476.5 c 128,-1,7
 514 428 514 428 502 338 c 2,8,-1
 454 0 l 1,9,-1
 381 0 l 1,10,-1
 428 332 l 2,11,12
 437 395 437 395 408 429 c 128,-1,13
 379 463 379 463 322 463 c 0,14,15
 259 463 259 463 213 434.5 c 128,-1,16
 167 406 167 406 159 352 c 2,17,-1
 110 0 l 1,18,-1
 37 0 l 1,19,-1
 110 517 l 1,0,-1
EndSplineSet
EndChar

StartChar: o
Encoding: 111 111 82
Width: 568
GlyphClass: 2
Flags: W
AnchorPoint: "Anchor-5" -46 0 basechar 0
AnchorPoint: "Anchor-4" 236 0 basechar 0
AnchorPoint: "Anchor-3" 239 517 basechar 0
AnchorPoint: "Anchor-2" 303 10 basechar 0
LayerCount: 2
Fore
SplineSet
76.5 62.5 m 128,-1,1
 25 135 25 135 42 255 c 0,2,3
 53 335 53 335 89.5 396.5 c 128,-1,4
 126 458 126 458 183.5 492.5 c 128,-1,5
 241 527 241 527 313 527 c 0,6,7
 384 527 384 527 431 492.5 c 128,-1,8
 478 458 478 458 497 397 c 128,-1,9
 516 336 516 336 505 257 c 128,-1,10
 494 178 494 178 458 117.5 c 128,-1,11
 422 57 422 57 365.5 23.5 c 128,-1,12
 309 -10 309 -10 237 -10 c 0,13,0
 128 -10 128 -10 76.5 62.5 c 128,-1,1
371 106.5 m 128,-1,15
 418 163 418 163 431 258 c 128,-1,16
 444 353 444 353 413 410 c 128,-1,17
 382 467 382 467 305 467 c 0,18,19
 227 467 227 467 178 409.5 c 128,-1,20
 129 352 129 352 116 258 c 0,21,22
 103 165 103 165 135.5 107.5 c 128,-1,23
 168 50 168 50 246 50 c 128,-1,14
 324 50 324 50 371 106.5 c 128,-1,15
EndSplineSet
Substitution2: "Single Substitution lookup 30 subtable" ordmasculine
Substitution2: "'aalt' Access All Alternates in Latin lookup 0 subtable" ordmasculine
EndChar

StartChar: p
Encoding: 112 112 83
Width: 589
GlyphClass: 2
Flags: W
LayerCount: 2
Fore
SplineSet
110 517 m 1,0,-1
 181 517 l 1,1,-1
 170 444 l 1,2,3
 202 477 202 477 243 502 c 128,-1,4
 284 527 284 527 346 527 c 128,-1,5
 408 527 408 527 453.5 497.5 c 128,-1,6
 499 468 499 468 519 409.5 c 128,-1,7
 539 351 539 351 527 266 c 128,-1,8
 515 181 515 181 477.5 118.5 c 128,-1,9
 440 56 440 56 383 23 c 128,-1,10
 326 -10 326 -10 258 -10 c 0,11,12
 215 -10 215 -10 181 4 c 128,-1,13
 147 18 147 18 117 52 c 1,14,-1
 87 -161 l 1,15,-1
 14 -161 l 1,16,-1
 110 517 l 1,0,-1
347 74.5 m 128,-1,18
 389 100 389 100 418 148.5 c 128,-1,19
 447 197 447 197 456 263 c 0,20,21
 465 330 465 330 449 376 c 128,-1,22
 433 422 433 422 399.5 444.5 c 128,-1,23
 366 467 366 467 321 467 c 0,24,25
 281 467 281 467 244.5 448 c 128,-1,26
 208 429 208 429 185 400 c 128,-1,27
 162 371 162 371 158 343 c 2,28,-1
 128 127 l 1,29,30
 177 49 177 49 256 49 c 0,31,17
 305 49 305 49 347 74.5 c 128,-1,18
EndSplineSet
EndChar

StartChar: q
Encoding: 113 113 84
Width: 590
GlyphClass: 2
Flags: W
LayerCount: 2
Fore
SplineSet
364 -161 m 1,0,-1
 394 50 l 1,1,2
 352 18 352 18 314 4 c 128,-1,3
 276 -10 276 -10 233 -10 c 0,4,5
 165 -10 165 -10 118 23 c 128,-1,6
 71 56 71 56 51 118.5 c 128,-1,7
 31 181 31 181 43 266 c 128,-1,8
 55 351 55 351 92 409.5 c 128,-1,9
 129 468 129 468 182.5 497.5 c 128,-1,10
 236 527 236 527 298 527 c 0,11,12
 341 527 341 527 371.5 513.5 c 128,-1,13
 402 500 402 500 415.5 486.5 c 128,-1,14
 429 473 429 473 451 448 c 1,15,-1
 461 517 l 1,16,-1
 533 517 l 1,17,-1
 437 -161 l 1,18,-1
 364 -161 l 1,0,-1
406 137 m 1,19,-1
 434 335 l 2,20,21
 439 368 439 368 425 399.5 c 128,-1,22
 411 431 411 431 380.5 450.5 c 128,-1,23
 350 470 350 470 309 470 c 0,24,25
 240 470 240 470 186 417.5 c 128,-1,26
 132 365 132 365 118 264 c 0,27,28
 109 197 109 197 124 148 c 128,-1,29
 139 99 139 99 173 72.5 c 128,-1,30
 207 46 207 46 256 46 c 0,31,32
 331 46 331 46 406 137 c 1,19,-1
EndSplineSet
EndChar

StartChar: r
Encoding: 114 114 85
Width: 377
GlyphClass: 2
Flags: W
AnchorPoint: "Anchor-5" -46 0 basechar 0
AnchorPoint: "Anchor-4" 75 0 basechar 0
AnchorPoint: "Anchor-3" 162 517 basechar 0
AnchorPoint: "Anchor-2" -46 0 basechar 0
LayerCount: 2
Fore
SplineSet
110 517 m 1,0,-1
 179 517 l 1,1,-1
 164 413 l 1,2,3
 198 462 198 462 257.5 494.5 c 128,-1,4
 317 527 317 527 372 527 c 1,5,-1
 362 456 l 1,6,7
 314 458 314 458 268 438 c 128,-1,8
 222 418 222 418 191 386 c 128,-1,9
 160 354 160 354 155 321 c 2,10,-1
 110 0 l 1,11,-1
 37 0 l 1,12,-1
 110 517 l 1,0,-1
EndSplineSet
EndChar

StartChar: s
Encoding: 115 115 86
Width: 504
GlyphClass: 2
Flags: W
AnchorPoint: "Anchor-5" -46 0 basechar 0
AnchorPoint: "Anchor-4" 204 0 basechar 0
AnchorPoint: "Anchor-3" 198 517 basechar 0
AnchorPoint: "Anchor-2" -46 0 basechar 0
LayerCount: 2
Fore
SplineSet
72.5 28.5 m 128,-1,1
 23 67 23 67 20 132 c 1,2,-1
 85 144 l 1,3,4
 99 47 99 47 212 47 c 0,5,6
 269 47 269 47 312.5 71.5 c 128,-1,7
 356 96 356 96 362 137 c 0,8,9
 371 202 371 202 293 222 c 2,10,-1
 187 246 l 2,11,12
 121 261 121 261 93.5 293.5 c 128,-1,13
 66 326 66 326 73 376 c 0,14,15
 83 447 83 447 139.5 487 c 128,-1,16
 196 527 196 527 284 527 c 0,17,18
 374 527 374 527 418 486 c 128,-1,19
 462 445 462 445 456 381 c 1,20,-1
 391 374 l 1,21,22
 385 470 385 470 274 470 c 0,23,24
 224 470 224 470 186.5 449.5 c 128,-1,25
 149 429 149 429 142 380 c 0,26,27
 138 354 138 354 155 336 c 128,-1,28
 172 318 172 318 221 305 c 2,29,-1
 327 277 l 2,30,31
 390 261 390 261 413.5 224 c 128,-1,32
 437 187 437 187 431 140 c 0,33,34
 425 96 425 96 394 62 c 128,-1,35
 363 28 363 28 313.5 9 c 128,-1,36
 264 -10 264 -10 203 -10 c 0,37,0
 122 -10 122 -10 72.5 28.5 c 128,-1,1
EndSplineSet
EndChar

StartChar: t
Encoding: 116 116 87
Width: 382
GlyphClass: 2
Flags: W
AnchorPoint: "Anchor-5" 328 749 basechar 0
AnchorPoint: "Anchor-4" 212 0 basechar 0
AnchorPoint: "Anchor-3" -46 0 basechar 0
AnchorPoint: "Anchor-2" -46 0 basechar 0
LayerCount: 2
Fore
SplineSet
224 462 m 1,0,-1
 177 128 l 2,1,2
 171 84 171 84 181.5 68.5 c 128,-1,3
 192 53 192 53 220 53 c 2,4,-1
 289 53 l 1,5,-1
 283 6 l 1,6,7
 261 -2 261 -2 210 -2 c 0,8,9
 140 -2 140 -2 117 27.5 c 128,-1,10
 94 57 94 57 103 122 c 2,11,-1
 151 462 l 1,12,-1
 67 462 l 1,13,-1
 75 517 l 1,14,-1
 161 517 l 1,15,-1
 191 689 l 1,16,-1
 256 689 l 1,17,-1
 232 517 l 1,18,-1
 350 517 l 1,19,-1
 342 462 l 1,20,-1
 224 462 l 1,0,-1
EndSplineSet
EndChar

StartChar: u
Encoding: 117 117 88
Width: 584
GlyphClass: 2
Flags: W
AnchorPoint: "Anchor-5" -46 0 basechar 0
AnchorPoint: "Anchor-4" 244 0 basechar 0
AnchorPoint: "Anchor-3" 236 517 basechar 0
AnchorPoint: "Anchor-2" 440 11 basechar 0
LayerCount: 2
Fore
SplineSet
142.5 9 m 128,-1,1
 100 27 100 27 76 67 c 128,-1,2
 52 107 52 107 61 169 c 2,3,-1
 110 519 l 1,4,-1
 183 519 l 1,5,-1
 135 175 l 2,6,7
 126 110 126 110 162 80 c 128,-1,8
 198 50 198 50 249 50 c 0,9,10
 306 50 306 50 351.5 84.5 c 128,-1,11
 397 119 397 119 407 182 c 2,12,-1
 454 519 l 1,13,-1
 527 519 l 1,14,-1
 453 1 l 1,15,-1
 394 1 l 1,16,-1
 403 82 l 1,17,18
 382 46 382 46 332 18.5 c 128,-1,19
 282 -9 282 -9 232 -9 c 0,20,0
 185 -9 185 -9 142.5 9 c 128,-1,1
EndSplineSet
EndChar

StartChar: v
Encoding: 118 118 89
Width: 525
GlyphClass: 2
Flags: W
LayerCount: 2
Fore
SplineSet
247 0 m 1,0,-1
 186 0 l 1,1,-1
 50 517 l 1,2,-1
 121 517 l 1,3,-1
 230 93 l 1,4,-1
 460 517 l 1,5,-1
 529 517 l 1,6,-1
 247 0 l 1,0,-1
EndSplineSet
EndChar

StartChar: w
Encoding: 119 119 90
Width: 770
GlyphClass: 2
Flags: W
AnchorPoint: "Anchor-5" -46 0 basechar 0
AnchorPoint: "Anchor-4" -46 0 basechar 0
AnchorPoint: "Anchor-3" 343 517 basechar 0
AnchorPoint: "Anchor-2" -46 0 basechar 0
LayerCount: 2
Fore
SplineSet
541 0 m 1,0,-1
 468 0 l 1,1,-1
 395 406 l 1,2,-1
 215 0 l 1,3,-1
 143 0 l 1,4,-1
 54 517 l 1,5,-1
 124 517 l 1,6,-1
 194 92 l 1,7,-1
 383 517 l 1,8,-1
 441 517 l 1,9,-1
 516 93 l 1,10,-1
 700 517 l 1,11,-1
 770 517 l 1,12,-1
 541 0 l 1,0,-1
EndSplineSet
EndChar

StartChar: x
Encoding: 120 120 91
Width: 528
GlyphClass: 2
Flags: W
LayerCount: 2
Fore
SplineSet
378 0 m 1,0,-1
 248 215 l 1,1,-1
 58 0 l 1,2,-1
 -24 0 l 1,3,-1
 214 268 l 1,4,-1
 65 517 l 1,5,-1
 147 517 l 1,6,-1
 263 322 l 1,7,-1
 435 517 l 1,8,-1
 517 517 l 1,9,-1
 298 268 l 1,10,-1
 460 0 l 1,11,-1
 378 0 l 1,0,-1
EndSplineSet
EndChar

StartChar: y
Encoding: 121 121 92
Width: 516
GlyphClass: 2
Flags: W
AnchorPoint: "Anchor-5" -46 0 basechar 0
AnchorPoint: "Anchor-4" -46 0 basechar 0
AnchorPoint: "Anchor-3" 219 517 basechar 0
AnchorPoint: "Anchor-2" -46 0 basechar 0
LayerCount: 2
Fore
SplineSet
8 -162.5 m 128,-1,1
 -8 -160 -8 -160 -15.5 -157.5 c 128,-1,2
 -23 -155 -23 -155 -24 -154 c 2,3,-1
 -17 -106 l 1,4,-1
 37 -107 l 2,5,6
 86 -108 86 -108 111 -91.5 c 128,-1,7
 136 -75 136 -75 151 -47 c 2,8,-1
 180 9 l 1,9,-1
 50 517 l 1,10,-1
 125 517 l 1,11,-1
 227 95 l 1,12,-1
 449 517 l 1,13,-1
 520 517 l 1,14,-1
 219 -52 l 2,15,16
 185 -114 185 -114 143.5 -139.5 c 128,-1,17
 102 -165 102 -165 49 -165 c 0,18,0
 24 -165 24 -165 8 -162.5 c 128,-1,1
EndSplineSet
EndChar

StartChar: z
Encoding: 122 122 93
Width: 481
GlyphClass: 2
Flags: W
AnchorPoint: "Anchor-5" -46 0 basechar 0
AnchorPoint: "Anchor-4" -46 0 basechar 0
AnchorPoint: "Anchor-3" 211 517 basechar 0
AnchorPoint: "Anchor-2" -46 0 basechar 0
LayerCount: 2
Fore
SplineSet
4 50 m 1,0,-1
 369 464 l 1,1,-1
 83 464 l 1,2,-1
 91 517 l 1,3,-1
 463 517 l 1,4,-1
 455 466 l 1,5,-1
 91 53 l 1,6,-1
 403 53 l 1,7,-1
 396 0 l 1,8,-1
 -3 0 l 1,9,-1
 4 50 l 1,0,-1
EndSplineSet
EndChar

StartChar: braceleft
Encoding: 123 123 94
Width: 304
GlyphClass: 2
Flags: W
LayerCount: 2
Fore
SplineSet
203.5 696.5 m 128,-1,1
 240 723 240 723 295 723 c 2,2,-1
 338 723 l 1,3,-1
 330 672 l 1,4,-1
 297 672 l 2,5,6
 262 672 262 672 247 660 c 128,-1,7
 232 648 232 648 228 621 c 2,8,-1
 198 403 l 2,9,10
 189 349 189 349 157.5 319.5 c 128,-1,11
 126 290 126 290 84 286 c 0,12,13
 78 285 78 285 77 282.5 c 128,-1,14
 76 280 76 280 83 279 c 0,15,16
 124 276 124 276 147.5 247.5 c 128,-1,17
 171 219 171 219 164 163 c 2,18,-1
 133 -57 l 2,19,20
 129 -86 129 -86 141 -98 c 128,-1,21
 153 -110 153 -110 188 -110 c 2,22,-1
 221 -110 l 1,23,-1
 213 -161 l 1,24,-1
 172 -161 l 2,25,26
 114 -161 114 -161 86 -134 c 128,-1,27
 58 -107 58 -107 64 -62 c 2,28,-1
 95 159 l 2,29,30
 100 198 100 198 74.5 228 c 128,-1,31
 49 258 49 258 -4 258 c 1,32,-1
 3 307 l 1,33,34
 59 308 59 308 91.5 336 c 128,-1,35
 124 364 124 364 131 410 c 2,36,-1
 161 626 l 2,37,0
 167 670 167 670 203.5 696.5 c 128,-1,1
EndSplineSet
EndChar

StartChar: bar
Encoding: 124 124 95
Width: 258
GlyphClass: 2
Flags: W
LayerCount: 2
Fore
SplineSet
30 -161 m 1,0,-1
 169 826 l 1,1,-1
 228 826 l 1,2,-1
 89 -161 l 1,3,-1
 30 -161 l 1,0,-1
EndSplineSet
EndChar

StartChar: braceright
Encoding: 125 125 96
Width: 304
GlyphClass: 2
Flags: W
LayerCount: 2
Fore
SplineSet
130.5 -134.5 m 128,-1,1
 94 -161 94 -161 39 -161 c 2,2,-1
 -4 -161 l 1,3,-1
 4 -110 l 1,4,-1
 37 -110 l 2,5,6
 72 -110 72 -110 87 -98 c 128,-1,7
 102 -86 102 -86 106 -59 c 2,8,-1
 136 159 l 2,9,10
 145 213 145 213 176.5 242.5 c 128,-1,11
 208 272 208 272 250 276 c 0,12,13
 256 277 256 277 257 279.5 c 128,-1,14
 258 282 258 282 251 283 c 0,15,16
 210 286 210 286 186.5 314.5 c 128,-1,17
 163 343 163 343 170 399 c 2,18,-1
 201 619 l 2,19,20
 205 648 205 648 193 660 c 128,-1,21
 181 672 181 672 146 672 c 2,22,-1
 113 672 l 1,23,-1
 121 723 l 1,24,-1
 162 723 l 2,25,26
 220 723 220 723 248 696 c 128,-1,27
 276 669 276 669 270 624 c 2,28,-1
 239 403 l 2,29,30
 234 364 234 364 259.5 334 c 128,-1,31
 285 304 285 304 338 304 c 1,32,-1
 331 255 l 1,33,34
 275 254 275 254 242.5 226 c 128,-1,35
 210 198 210 198 203 152 c 2,36,-1
 173 -64 l 2,37,0
 167 -108 167 -108 130.5 -134.5 c 128,-1,1
EndSplineSet
EndChar

StartChar: asciitilde
Encoding: 126 126 97
Width: 554
GlyphClass: 2
Flags: W
LayerCount: 2
Fore
SplineSet
444.5 330 m 128,-1,1
 411 314 411 314 369 314 c 0,2,3
 342 314 342 314 321.5 320.5 c 128,-1,4
 301 327 301 327 274 340 c 0,5,6
 251 351 251 351 233 357 c 128,-1,7
 215 363 215 363 193 363 c 0,8,9
 158 363 158 363 131 349 c 128,-1,10
 104 335 104 335 79 311 c 1,11,-1
 64 356 l 1,12,13
 98 386 98 386 129 401.5 c 128,-1,14
 160 417 160 417 199 417 c 0,15,16
 224 417 224 417 245 410.5 c 128,-1,17
 266 404 266 404 292 391 c 0,18,19
 319 379 319 379 337 373 c 128,-1,20
 355 367 355 367 377 367 c 0,21,22
 411 367 411 367 435.5 381 c 128,-1,23
 460 395 460 395 482 418 c 1,24,-1
 498 372 l 1,25,0
 478 346 478 346 444.5 330 c 128,-1,1
EndSplineSet
EndChar

StartChar: exclamdown
Encoding: 161 161 99
Width: 243
GlyphClass: 2
Flags: W
LayerCount: 2
Fore
SplineSet
86 415 m 1,0,-1
 101 517 l 1,1,-1
 193 517 l 1,2,-1
 178 415 l 1,3,-1
 86 415 l 1,0,-1
7 -161 m 1,4,-1
 98 347 l 1,5,-1
 149 347 l 1,6,-1
 96 -161 l 1,7,-1
 7 -161 l 1,4,-1
EndSplineSet
EndChar

StartChar: cent
Encoding: 162 162 100
Width: 537
GlyphClass: 2
Flags: W
AnchorPoint: "Anchor-1" 240 628 basechar 0
AnchorPoint: "Anchor-0" 242 111 basechar 0
LayerCount: 2
Fore
SplineSet
280 102 m 1,0,-1
 266 0 l 1,1,-1
 208 0 l 1,2,-1
 222 103 l 1,3,4
 132 115 132 115 88.5 186.5 c 128,-1,5
 45 258 45 258 61 367 c 0,6,7
 76 477 76 477 140 550.5 c 128,-1,8
 204 624 204 624 297 636 c 1,9,-1
 310 723 l 1,10,-1
 368 723 l 1,11,-1
 356 637 l 1,12,13
 468 625 468 625 507 502 c 1,14,-1
 444 486 l 1,15,16
 414 537 414 537 390.5 557 c 128,-1,17
 367 577 367 577 326 577 c 0,18,19
 250 577 250 577 197.5 520.5 c 128,-1,20
 145 464 145 464 132 369 c 0,21,22
 119 273 119 273 155 216 c 128,-1,23
 191 159 191 159 267 159 c 0,24,25
 314 159 314 159 348.5 183.5 c 128,-1,26
 383 208 383 208 419 258 c 1,27,-1
 476 241 l 1,28,29
 402 115 402 115 280 102 c 1,0,-1
EndSplineSet
EndChar

StartChar: sterling
Encoding: 163 163 101
Width: 602
GlyphClass: 2
Flags: W
LayerCount: 2
Fore
SplineSet
-23 64 m 1,0,-1
 15 64 l 2,1,2
 56 64 56 64 87 102 c 128,-1,3
 118 140 118 140 128 214 c 0,4,5
 135 267 135 267 135 346 c 1,6,-1
 35 346 l 1,7,-1
 42 397 l 1,8,-1
 133 397 l 1,9,-1
 128 477 l 2,10,11
 125 506 125 506 129 537 c 0,12,13
 137 597 137 597 171.5 641.5 c 128,-1,14
 206 686 206 686 256 709.5 c 128,-1,15
 306 733 306 733 361 733 c 0,16,17
 427 733 427 733 476.5 701 c 128,-1,18
 526 669 526 669 539 623 c 1,19,-1
 470 598 l 1,20,21
 457 633 457 633 431.5 650 c 128,-1,22
 406 667 406 667 360 667 c 0,23,24
 303 667 303 667 261.5 635 c 128,-1,25
 220 603 220 603 212 546 c 0,26,27
 208 515 208 515 209 475 c 128,-1,28
 210 435 210 435 216 398 c 1,29,-1
 383 398 l 1,30,-1
 376 347 l 1,31,-1
 216 347 l 1,32,33
 218 277 218 277 208 228 c 0,34,35
 191 124 191 124 127 65 c 1,36,-1
 315 65 l 2,37,38
 369 65 369 65 403 83.5 c 128,-1,39
 437 102 437 102 461 147 c 1,40,-1
 522 129 l 1,41,42
 458 0 458 0 310 0 c 2,43,-1
 -32 0 l 1,44,-1
 -23 64 l 1,0,-1
EndSplineSet
EndChar

StartChar: currency
Encoding: 164 164 102
Width: 525
GlyphClass: 2
Flags: W
LayerCount: 2
Fore
SplineSet
143 213 m 0,0,1
 136 218 136 218 130 212 c 2,2,-1
 70 159 l 1,3,-1
 38 200 l 1,4,-1
 103 256 l 1,5,6
 76 305 76 305 84 364 c 0,7,8
 92 418 92 418 128 464 c 0,9,10
 134 471 134 471 129 477 c 2,11,-1
 85 529 l 1,12,-1
 130 568 l 1,13,-1
 179 509 l 1,14,15
 232 544 232 544 290 544 c 0,16,17
 347 544 347 544 386 513 c 0,18,19
 391 508 391 508 398 514 c 2,20,-1
 459 568 l 1,21,-1
 492 528 l 1,22,-1
 425 470 l 1,23,24
 453 421 453 421 445 364 c 0,25,26
 437 306 437 306 401 264 c 0,27,28
 395 258 395 258 399 252 c 2,29,-1
 446 201 l 1,30,-1
 403 161 l 1,31,-1
 353 219 l 1,32,33
 298 182 298 182 241 182 c 128,-1,34
 184 182 184 182 143 213 c 0,0,1
340.5 278 m 128,-1,36
 380 314 380 314 387 364 c 0,37,38
 391 396 391 396 380 424 c 128,-1,39
 369 452 369 452 343.5 469 c 128,-1,40
 318 486 318 486 284 486 c 128,-1,41
 250 486 250 486 220 469 c 128,-1,42
 190 452 190 452 170 424 c 128,-1,43
 150 396 150 396 145 364 c 0,44,45
 141 332 141 332 153 304 c 128,-1,46
 165 276 165 276 190.5 259 c 128,-1,47
 216 242 216 242 250 242 c 0,48,35
 301 242 301 242 340.5 278 c 128,-1,36
EndSplineSet
EndChar

StartChar: yen
Encoding: 165 165 103
Width: 592
GlyphClass: 2
Flags: W
LayerCount: 2
Fore
SplineSet
351 335 m 1,0,-1
 496 335 l 1,1,-1
 489 285 l 1,2,-1
 335 285 l 1,3,-1
 322 192 l 1,4,-1
 476 192 l 1,5,-1
 469 141 l 1,6,-1
 315 141 l 1,7,-1
 295 0 l 1,8,-1
 211 0 l 1,9,-1
 231 141 l 1,10,-1
 77 141 l 1,11,-1
 84 191 l 1,12,-1
 238 191 l 1,13,-1
 251 284 l 1,14,-1
 97 284 l 1,15,-1
 104 334 l 1,16,-1
 239 334 l 1,17,-1
 64 723 l 1,18,-1
 159 723 l 1,19,-1
 310 377 l 1,20,-1
 561 723 l 1,21,-1
 641 723 l 1,22,-1
 351 335 l 1,0,-1
EndSplineSet
EndChar

StartChar: brokenbar
Encoding: 166 166 104
Width: 258
GlyphClass: 2
Flags: W
LayerCount: 2
Fore
SplineSet
113 428 m 1,0,-1
 169 826 l 1,1,-1
 228 826 l 1,2,-1
 172 428 l 1,3,-1
 113 428 l 1,0,-1
30 -161 m 1,4,-1
 86 237 l 1,5,-1
 145 237 l 1,6,-1
 89 -161 l 1,7,-1
 30 -161 l 1,4,-1
EndSplineSet
EndChar

StartChar: section
Encoding: 167 167 105
Width: 479
GlyphClass: 2
Flags: W
LayerCount: 2
Fore
SplineSet
69.5 -38 m 128,-1,1
 16 -6 16 -6 -3 46 c 1,2,-1
 52 74 l 1,3,4
 70 34 70 34 109 9.5 c 128,-1,5
 148 -15 148 -15 201 -15 c 0,6,7
 253 -15 253 -15 289 5.5 c 128,-1,8
 325 26 325 26 330 63 c 0,9,10
 334 92 334 92 314.5 115.5 c 128,-1,11
 295 139 295 139 240 162 c 2,12,-1
 156 197 l 2,13,14
 94 221 94 221 69.5 256 c 128,-1,15
 45 291 45 291 52 338 c 0,16,17
 58 383 58 383 90.5 416.5 c 128,-1,18
 123 450 123 450 172 468 c 1,19,20
 119 497 119 497 102 528.5 c 128,-1,21
 85 560 85 560 90 598 c 128,-1,22
 95 636 95 636 122.5 667 c 128,-1,23
 150 698 150 698 194 715.5 c 128,-1,24
 238 733 238 733 292 733 c 0,25,26
 353 733 353 733 398.5 704.5 c 128,-1,27
 444 676 444 676 465 634 c 1,28,-1
 410 606 l 1,29,30
 362 678 362 678 288 678 c 0,31,32
 234 678 234 678 200 657.5 c 128,-1,33
 166 637 166 637 161 604 c 0,34,35
 157 579 157 579 173.5 557.5 c 128,-1,36
 190 536 190 536 235 517 c 2,37,-1
 315 483 l 2,38,39
 386 452 386 452 414 413.5 c 128,-1,40
 442 375 442 375 435 324 c 0,41,42
 429 278 429 278 399.5 248 c 128,-1,43
 370 218 370 218 325 197 c 1,44,45
 368 170 368 170 387 139.5 c 128,-1,46
 406 109 406 109 401 69 c 0,47,48
 395 29 395 29 367 -2.5 c 128,-1,49
 339 -34 339 -34 293.5 -52 c 128,-1,50
 248 -70 248 -70 192 -70 c 0,51,0
 123 -70 123 -70 69.5 -38 c 128,-1,1
327.5 251 m 128,-1,53
 360 276 360 276 365 312 c 128,-1,54
 370 348 370 348 355 371.5 c 128,-1,55
 340 395 340 395 291 416 c 2,56,-1
 237 438 l 1,57,58
 195 435 195 435 159.5 407.5 c 128,-1,59
 124 380 124 380 120 347 c 0,60,61
 116 317 116 317 131.5 297.5 c 128,-1,62
 147 278 147 278 197 256 c 2,63,-1
 256 229 l 1,64,52
 295 226 295 226 327.5 251 c 128,-1,53
EndSplineSet
EndChar

StartChar: dieresis
Encoding: 168 168 106
Width: 235
GlyphClass: 2
Flags: W
LayerCount: 2
Fore
SplineSet
126 618 m 1,0,-1
 53 618 l 1,1,-1
 68 723 l 1,2,-1
 141 723 l 1,3,-1
 126 618 l 1,0,-1
263 618 m 1,4,-1
 188 618 l 1,5,-1
 203 723 l 1,6,-1
 278 723 l 1,7,-1
 263 618 l 1,4,-1
EndSplineSet
EndChar

StartChar: copyright
Encoding: 169 169 107
Width: 814
GlyphClass: 2
Flags: W
LayerCount: 2
Fore
SplineSet
180 40 m 128,-1,1
 102 90 102 90 64 175 c 128,-1,2
 26 260 26 260 40 362 c 0,3,4
 54 462 54 462 116 547.5 c 128,-1,5
 178 633 178 633 270 683 c 128,-1,6
 362 733 362 733 463 733 c 128,-1,7
 564 733 564 733 642.5 683 c 128,-1,8
 721 633 721 633 759 547.5 c 128,-1,9
 797 462 797 462 783 362 c 0,10,11
 769 260 769 260 707 175 c 128,-1,12
 645 90 645 90 552.5 40 c 128,-1,13
 460 -10 460 -10 359 -10 c 128,-1,0
 258 -10 258 -10 180 40 c 128,-1,1
528 84.5 m 128,-1,15
 605 124 605 124 658 196 c 128,-1,16
 711 268 711 268 724 362 c 0,17,18
 737 454 737 454 704.5 526.5 c 128,-1,19
 672 599 672 599 606 639 c 128,-1,20
 540 679 540 679 455 679 c 0,21,22
 369 679 369 679 291.5 639 c 128,-1,23
 214 599 214 599 162.5 527 c 128,-1,24
 111 455 111 455 98 362 c 0,25,26
 85 268 85 268 116 196 c 128,-1,27
 147 124 147 124 213 84.5 c 128,-1,28
 279 45 279 45 366 45 c 0,29,14
 451 45 451 45 528 84.5 c 128,-1,15
590 469 m 1,30,-1
 531 451 l 1,31,32
 499 523 499 523 440 523 c 0,33,34
 384 523 384 523 342.5 480 c 128,-1,35
 301 437 301 437 291 366 c 0,36,37
 281 293 281 293 310.5 249.5 c 128,-1,38
 340 206 340 206 396 206 c 0,39,40
 434 206 434 206 466 227 c 128,-1,41
 498 248 498 248 522 284 c 1,42,-1
 564 265 l 1,43,44
 530 216 530 216 485 185.5 c 128,-1,45
 440 155 440 155 385 155 c 128,-1,46
 330 155 330 155 290.5 181 c 128,-1,47
 251 207 251 207 233.5 254.5 c 128,-1,48
 216 302 216 302 225 364 c 0,49,50
 234 425 234 425 264.5 473 c 128,-1,51
 295 521 295 521 342 547.5 c 128,-1,52
 389 574 389 574 444 574 c 0,53,54
 545 574 545 574 590 469 c 1,30,-1
EndSplineSet
EndChar

StartChar: ordfeminine
Encoding: 170 170 108
Width: 419
GlyphClass: 2
Flags: W
LayerCount: 2
Fore
SplineSet
93.5 420 m 128,-1,1
 68 444 68 444 74 486 c 0,2,3
 80 532 80 532 125 559.5 c 128,-1,4
 170 587 170 587 249 593 c 2,5,-1
 311 599 l 1,6,-1
 315 623 l 2,7,8
 324 689 324 689 246 689 c 0,9,10
 217 689 217 689 195 678 c 128,-1,11
 173 667 173 667 152 639 c 1,12,-1
 106 654 l 1,13,14
 155 731 155 731 255 731 c 0,15,16
 318 730 318 730 346 701.5 c 128,-1,17
 374 673 374 673 366 621 c 2,18,-1
 350 506 l 2,19,20
 345 471 345 471 345 440 c 2,21,-1
 346 402 l 1,22,-1
 290 402 l 1,23,-1
 289 447 l 1,24,25
 257 420 257 420 230 408 c 128,-1,26
 203 396 203 396 171 396 c 0,27,0
 119 396 119 396 93.5 420 c 128,-1,1
266 462 m 0,28,29
 281 474 281 474 289 484.5 c 128,-1,30
 297 495 297 495 298 506 c 2,31,-1
 306 561 l 1,32,-1
 254 558 l 2,33,34
 196 554 196 554 165.5 536 c 128,-1,35
 135 518 135 518 131 488 c 0,36,37
 128 464 128 464 144.5 450 c 128,-1,38
 161 436 161 436 193 436 c 0,39,40
 233 436 233 436 266 462 c 0,28,29
EndSplineSet
EndChar

StartChar: guillemotleft
Encoding: 171 171 109
Width: 436
GlyphClass: 2
Flags: W
LayerCount: 2
Fore
SplineSet
178 72 m 1,0,-1
 135 72 l 1,1,-1
 25 251 l 1,2,-1
 188 438 l 1,3,-1
 232 438 l 1,4,-1
 97 251 l 1,5,-1
 178 72 l 1,0,-1
350 72 m 1,6,-1
 307 72 l 1,7,-1
 197 251 l 1,8,-1
 359 438 l 1,9,-1
 403 438 l 1,10,-1
 269 251 l 1,11,-1
 350 72 l 1,6,-1
EndSplineSet
EndChar

StartChar: logicalnot
Encoding: 172 172 110
Width: 546
GlyphClass: 2
Flags: W
LayerCount: 2
Fore
SplineSet
489 393 m 1,0,-1
 461 193 l 1,1,-1
 399 193 l 1,2,-1
 418 334 l 1,3,-1
 64 333 l 1,4,-1
 72 392 l 1,5,-1
 489 393 l 1,0,-1
EndSplineSet
EndChar

StartChar: uni00AD
Encoding: 173 173 111
Width: 366
GlyphClass: 2
Flags: W
LayerCount: 2
Fore
SplineSet
300 229 m 1,0,-1
 53 228 l 1,1,-1
 61 288 l 1,2,-1
 309 289 l 1,3,-1
 300 229 l 1,0,-1
EndSplineSet
EndChar

StartChar: registered
Encoding: 174 174 112
Width: 536
GlyphClass: 2
Flags: W
LayerCount: 2
Fore
SplineSet
146.5 299 m 128,-1,1
 97 330 97 330 73.5 383 c 128,-1,2
 50 436 50 436 59 500 c 128,-1,3
 68 564 68 564 106.5 617 c 128,-1,4
 145 670 145 670 203 701.5 c 128,-1,5
 261 733 261 733 325 733 c 0,6,7
 388 733 388 733 437 701.5 c 128,-1,8
 486 670 486 670 509.5 616.5 c 128,-1,9
 533 563 533 563 524 500 c 128,-1,10
 515 437 515 437 476.5 383.5 c 128,-1,11
 438 330 438 330 380.5 299 c 128,-1,12
 323 268 323 268 260 268 c 0,13,0
 196 268 196 268 146.5 299 c 128,-1,1
366.5 333.5 m 128,-1,15
 412 357 412 357 442 400 c 128,-1,16
 472 443 472 443 480 500 c 128,-1,17
 488 557 488 557 470 600 c 128,-1,18
 452 643 452 643 413 667 c 128,-1,19
 374 691 374 691 319 691 c 0,20,21
 234 691 234 691 174.5 638.5 c 128,-1,22
 115 586 115 586 103 500 c 0,23,24
 91 413 91 413 136 361.5 c 128,-1,25
 181 310 181 310 266 310 c 0,26,14
 321 310 321 310 366.5 333.5 c 128,-1,15
220 614 m 1,27,-1
 322 614 l 2,28,29
 359 614 359 614 377 599 c 128,-1,30
 395 584 395 584 391 556 c 0,31,32
 385 512 385 512 333 494 c 1,33,-1
 363 383 l 1,34,-1
 322 383 l 1,35,-1
 297 491 l 1,36,-1
 241 491 l 1,37,-1
 226 383 l 1,38,-1
 188 383 l 1,39,-1
 220 614 l 1,27,-1
305 523 m 2,40,41
 348 523 348 523 352 552 c 0,42,43
 356 583 356 583 310 583 c 2,44,-1
 254 583 l 1,45,-1
 246 523 l 1,46,-1
 305 523 l 2,40,41
EndSplineSet
EndChar

StartChar: macron
Encoding: 175 175 113
Width: 304
GlyphClass: 2
Flags: W
LayerCount: 2
Fore
SplineSet
336 653 m 1,0,-1
 58 653 l 1,1,-1
 66 708 l 1,2,-1
 344 708 l 1,3,-1
 336 653 l 1,0,-1
EndSplineSet
EndChar

StartChar: degree
Encoding: 176 176 114
Width: 458
GlyphClass: 2
Flags: W
LayerCount: 2
Fore
SplineSet
371.5 573.5 m 128,-1,1
 322 530 322 530 256 530 c 0,2,3
 189 530 189 530 152.5 573 c 128,-1,4
 116 616 116 616 125 683 c 128,-1,5
 134 750 134 750 183.5 793.5 c 128,-1,6
 233 837 233 837 300 837 c 0,7,8
 366 837 366 837 402.5 793.5 c 128,-1,9
 439 750 439 750 430 683 c 0,10,0
 421 617 421 617 371.5 573.5 c 128,-1,1
357.5 756 m 128,-1,12
 335 784 335 784 290 784 c 0,13,14
 246 784 246 784 215 756 c 128,-1,15
 184 728 184 728 178 684 c 0,16,17
 171 637 171 637 194 608.5 c 128,-1,18
 217 580 217 580 263 580 c 0,19,20
 307 580 307 580 337 608 c 128,-1,21
 367 636 367 636 374 682 c 0,22,11
 380 728 380 728 357.5 756 c 128,-1,12
EndSplineSet
EndChar

StartChar: plusminus
Encoding: 177 177 115
Width: 546
GlyphClass: 2
Flags: W
LayerCount: 2
Fore
SplineSet
500 467 m 1,0,-1
 491 408 l 1,1,-1
 312 408 l 1,2,-1
 287 229 l 1,3,-1
 229 229 l 1,4,-1
 254 407 l 1,5,-1
 74 407 l 1,6,-1
 82 466 l 1,7,-1
 261 466 l 1,8,-1
 287 646 l 1,9,-1
 346 646 l 1,10,-1
 321 467 l 1,11,-1
 500 467 l 1,0,-1
35 125 m 1,12,-1
 452 126 l 1,13,-1
 443 67 l 1,14,-1
 26 67 l 1,15,-1
 35 125 l 1,12,-1
EndSplineSet
EndChar

StartChar: uni00B2
Encoding: 178 178 116
Width: 375
GlyphClass: 2
Flags: W
LayerCount: 2
Fore
SplineSet
30 427 m 1,0,-1
 199 573 l 2,1,2
 259 624 259 624 284 655 c 128,-1,3
 309 686 309 686 313 719 c 0,4,5
 319 761 319 761 293.5 782 c 128,-1,6
 268 803 268 803 231 803 c 0,7,8
 197 803 197 803 166 787.5 c 128,-1,9
 135 772 135 772 112 739 c 1,10,-1
 74 753 l 1,11,12
 100 798 100 798 142.5 821.5 c 128,-1,13
 185 845 185 845 240 845 c 0,14,15
 301 845 301 845 335.5 812 c 128,-1,16
 370 779 370 779 362 721 c 0,17,18
 356 681 356 681 330 646.5 c 128,-1,19
 304 612 304 612 240 555 c 2,20,-1
 93 426 l 1,21,-1
 325 426 l 1,22,-1
 319 384 l 1,23,-1
 24 384 l 1,24,-1
 30 427 l 1,0,-1
EndSplineSet
EndChar

StartChar: uni00B3
Encoding: 179 179 117
Width: 390
GlyphClass: 2
Flags: W
LayerCount: 2
Fore
SplineSet
169 824.5 m 128,-1,1
 214 845 214 845 265 845 c 0,2,3
 332 845 332 845 370 812.5 c 128,-1,4
 408 780 408 780 401 731 c 0,5,6
 391 657 391 657 297 626 c 1,7,8
 343 613 343 613 366.5 582.5 c 128,-1,9
 390 552 390 552 384 509 c 0,10,11
 376 452 376 452 323 415 c 128,-1,12
 270 378 270 378 192 378 c 0,13,14
 135 378 135 378 99 396.5 c 128,-1,15
 63 415 63 415 45 460 c 1,16,-1
 88 474 l 1,17,18
 121 419 121 419 199 419 c 0,19,20
 255 419 255 419 290.5 443.5 c 128,-1,21
 326 468 326 468 331 507 c 0,22,23
 337 551 337 551 305.5 576.5 c 128,-1,24
 274 602 274 602 226 602 c 2,25,-1
 165 602 l 1,26,-1
 170 642 l 1,27,-1
 222 643 l 2,28,29
 271 643 271 643 308 667.5 c 128,-1,30
 345 692 345 692 351 728 c 0,31,32
 356 761 356 761 329.5 783 c 128,-1,33
 303 805 303 805 259 805 c 0,34,35
 184 805 184 805 141 749 c 1,36,-1
 103 764 l 1,37,0
 124 804 124 804 169 824.5 c 128,-1,1
EndSplineSet
EndChar

StartChar: acute
Encoding: 180 180 118
Width: 280
GlyphClass: 2
Flags: W
LayerCount: 2
Fore
SplineSet
318 671 m 1,0,-1
 61 596 l 1,1,-1
 53 637 l 1,2,-1
 307 732 l 1,3,-1
 318 671 l 1,0,-1
EndSplineSet
EndChar

StartChar: paragraph
Encoding: 182 182 119
Width: 558
GlyphClass: 2
Flags: W
LayerCount: 2
Fore
SplineSet
464 676 m 1,0,-1
 357 -83 l 1,1,-1
 306 -83 l 1,2,-1
 413 676 l 1,3,-1
 365 676 l 1,4,-1
 258 -83 l 1,5,-1
 206 -83 l 1,6,-1
 260 297 l 1,7,8
 196 298 196 298 152 326.5 c 128,-1,9
 108 355 108 355 88.5 401.5 c 128,-1,10
 69 448 69 448 77 503 c 0,11,12
 85 561 85 561 118 611 c 128,-1,13
 151 661 151 661 207 692 c 128,-1,14
 263 723 263 723 336 723 c 2,15,-1
 531 723 l 1,16,-1
 524 676 l 1,17,-1
 464 676 l 1,0,-1
EndSplineSet
EndChar

StartChar: periodcentered
Encoding: 183 183 120
Width: 197
GlyphClass: 2
Flags: W
LayerCount: 2
Fore
SplineSet
146 315 m 1,0,-1
 44 315 l 1,1,-1
 58 414 l 1,2,-1
 160 414 l 1,3,-1
 146 315 l 1,0,-1
EndSplineSet
EndChar

StartChar: cedilla
Encoding: 184 184 121
Width: 216
GlyphClass: 2
Flags: W
LayerCount: 2
Fore
SplineSet
100 -183 m 128,-1,1
 67 -203 67 -203 23 -203 c 0,2,3
 -30 -203 -30 -203 -61 -179 c 1,4,-1
 -42 -144 l 1,5,6
 -17 -167 -17 -167 20 -167 c 0,7,8
 76 -167 76 -167 81 -129 c 0,9,10
 84 -106 84 -106 66.5 -95.5 c 128,-1,11
 49 -85 49 -85 9 -84 c 0,12,13
 1 -84 1 -84 4 -78 c 2,14,-1
 53 5 l 1,15,-1
 96 5 l 1,16,-1
 63 -56 l 1,17,18
 108 -59 108 -59 125 -79.5 c 128,-1,19
 142 -100 142 -100 138 -128 c 0,20,0
 133 -163 133 -163 100 -183 c 128,-1,1
EndSplineSet
EndChar

StartChar: uni00B9
Encoding: 185 185 122
Width: 293
GlyphClass: 2
Flags: W
LayerCount: 2
Fore
SplineSet
153 779 m 1,0,-1
 58 746 l 1,1,-1
 63 783 l 1,2,-1
 176 835 l 1,3,-1
 210 835 l 1,4,-1
 146 380 l 1,5,-1
 97 380 l 1,6,-1
 153 779 l 1,0,-1
EndSplineSet
EndChar

StartChar: ordmasculine
Encoding: 186 186 123
Width: 413
GlyphClass: 2
Flags: W
LayerCount: 2
Fore
SplineSet
369 685.5 m 128,-1,1
 404 639 404 639 393 563 c 0,2,3
 383 489 383 489 335.5 443 c 128,-1,4
 288 397 288 397 216 397 c 128,-1,5
 144 397 144 397 109.5 443 c 128,-1,6
 75 489 75 489 85 563 c 0,7,8
 96 639 96 639 144.5 685.5 c 128,-1,9
 193 732 193 732 263 732 c 0,10,0
 334 732 334 732 369 685.5 c 128,-1,1
181 656.5 m 128,-1,12
 152 624 152 624 144 566 c 0,13,14
 136 506 136 506 155.5 472.5 c 128,-1,15
 175 439 175 439 222 439 c 128,-1,16
 269 439 269 439 298 472.5 c 128,-1,17
 327 506 327 506 336 566 c 0,18,19
 344 623 344 623 323.5 656 c 128,-1,20
 303 689 303 689 257 689 c 0,21,11
 210 689 210 689 181 656.5 c 128,-1,12
EndSplineSet
EndChar

StartChar: guillemotright
Encoding: 187 187 124
Width: 435
GlyphClass: 2
Flags: W
LayerCount: 2
Fore
SplineSet
63 438 m 1,0,-1
 106 438 l 1,1,-1
 215 251 l 1,2,-1
 54 72 l 1,3,-1
 12 72 l 1,4,-1
 143 251 l 1,5,-1
 63 438 l 1,0,-1
234 438 m 1,6,-1
 278 438 l 1,7,-1
 386 251 l 1,8,-1
 226 72 l 1,9,-1
 184 72 l 1,10,-1
 315 251 l 1,11,-1
 234 438 l 1,6,-1
EndSplineSet
EndChar

StartChar: onequarter
Encoding: 188 188 125
Width: 947
GlyphClass: 2
Flags: W
LayerCount: 2
Fore
SplineSet
138 675 m 1,0,-1
 43 642 l 1,1,-1
 48 679 l 1,2,-1
 161 731 l 1,3,-1
 195 731 l 1,4,-1
 131 276 l 1,5,-1
 82 276 l 1,6,-1
 138 675 l 1,0,-1
151 -4 m 1,7,-1
 97 -4 l 1,8,-1
 689 731 l 1,9,-1
 741 731 l 1,10,-1
 151 -4 l 1,7,-1
841 455 m 1,11,-1
 800 164 l 1,12,-1
 871 164 l 1,13,-1
 865 121 l 1,14,-1
 794 121 l 1,15,-1
 777 0 l 1,16,-1
 730 0 l 1,17,-1
 748 121 l 1,18,-1
 533 121 l 1,19,-1
 539 167 l 1,20,-1
 793 455 l 1,21,-1
 841 455 l 1,11,-1
752 164 m 1,22,-1
 783 386 l 1,23,-1
 588 164 l 1,24,-1
 752 164 l 1,22,-1
EndSplineSet
EndChar

StartChar: onehalf
Encoding: 189 189 126
Width: 915
GlyphClass: 2
Flags: W
LayerCount: 2
Fore
SplineSet
138 675 m 1,0,-1
 43 642 l 1,1,-1
 48 679 l 1,2,-1
 161 731 l 1,3,-1
 195 731 l 1,4,-1
 131 276 l 1,5,-1
 82 276 l 1,6,-1
 138 675 l 1,0,-1
151 -4 m 1,7,-1
 97 -4 l 1,8,-1
 689 731 l 1,9,-1
 741 731 l 1,10,-1
 151 -4 l 1,7,-1
516 43 m 1,11,-1
 685 189 l 2,12,13
 744 240 744 240 769 271 c 128,-1,14
 794 302 794 302 799 335 c 0,15,16
 805 377 805 377 779.5 398 c 128,-1,17
 754 419 754 419 717 419 c 0,18,19
 683 419 683 419 651.5 403.5 c 128,-1,20
 620 388 620 388 598 355 c 1,21,-1
 559 369 l 1,22,23
 586 414 586 414 628.5 437.5 c 128,-1,24
 671 461 671 461 725 461 c 0,25,26
 766 461 766 461 795 446 c 128,-1,27
 824 431 824 431 838.5 403 c 128,-1,28
 853 375 853 375 847 336 c 0,29,30
 844 309 844 309 831 285.5 c 128,-1,31
 818 262 818 262 793.5 236 c 128,-1,32
 769 210 769 210 725 171 c 2,33,-1
 578 42 l 1,34,-1
 811 42 l 1,35,-1
 805 0 l 1,36,-1
 510 0 l 1,37,-1
 516 43 l 1,11,-1
EndSplineSet
EndChar

StartChar: threequarters
Encoding: 190 190 127
Width: 1044
GlyphClass: 2
Flags: W
LayerCount: 2
Fore
SplineSet
154 719.5 m 128,-1,1
 199 740 199 740 250 740 c 0,2,3
 317 740 317 740 355 707.5 c 128,-1,4
 393 675 393 675 386 626 c 0,5,6
 376 552 376 552 282 521 c 1,7,8
 328 508 328 508 351.5 477.5 c 128,-1,9
 375 447 375 447 369 404 c 0,10,11
 361 347 361 347 308 310 c 128,-1,12
 255 273 255 273 177 273 c 0,13,14
 120 273 120 273 84 291.5 c 128,-1,15
 48 310 48 310 30 355 c 1,16,-1
 73 369 l 1,17,18
 106 314 106 314 184 314 c 0,19,20
 240 314 240 314 275.5 338.5 c 128,-1,21
 311 363 311 363 316 402 c 0,22,23
 322 446 322 446 290.5 471.5 c 128,-1,24
 259 497 259 497 211 497 c 2,25,-1
 150 497 l 1,26,-1
 155 537 l 1,27,-1
 207 538 l 2,28,29
 256 538 256 538 293 562.5 c 128,-1,30
 330 587 330 587 336 623 c 0,31,32
 341 656 341 656 314.5 678 c 128,-1,33
 288 700 288 700 244 700 c 0,34,35
 169 700 169 700 126 644 c 1,36,-1
 88 659 l 1,37,0
 109 699 109 699 154 719.5 c 128,-1,1
248 -4 m 1,38,-1
 194 -4 l 1,39,-1
 786 731 l 1,40,-1
 838 731 l 1,41,-1
 248 -4 l 1,38,-1
938 455 m 1,42,-1
 897 164 l 1,43,-1
 968 164 l 1,44,-1
 962 121 l 1,45,-1
 891 121 l 1,46,-1
 874 0 l 1,47,-1
 827 0 l 1,48,-1
 845 121 l 1,49,-1
 630 121 l 1,50,-1
 636 167 l 1,51,-1
 890 455 l 1,52,-1
 938 455 l 1,42,-1
849 164 m 1,53,-1
 880 386 l 1,54,-1
 685 164 l 1,55,-1
 849 164 l 1,53,-1
EndSplineSet
EndChar

StartChar: questiondown
Encoding: 191 191 128
Width: 508
GlyphClass: 2
Flags: W
LayerCount: 2
Fore
SplineSet
245 517 m 1,0,-1
 337 517 l 1,1,-1
 322 415 l 1,2,-1
 230 415 l 1,3,-1
 245 517 l 1,0,-1
318.5 -134.5 m 128,-1,5
 252 -171 252 -171 176 -171 c 0,6,7
 75 -171 75 -171 24 -122.5 c 128,-1,8
 -27 -74 -27 -74 -16 5 c 0,9,10
 -8 59 -8 59 21.5 94.5 c 128,-1,11
 51 130 51 130 106 171 c 0,12,13
 144 200 144 200 167.5 222 c 128,-1,14
 191 244 191 244 209.5 275.5 c 128,-1,15
 228 307 228 307 234 348 c 1,16,-1
 300 348 l 1,17,18
 293 299 293 299 273 262 c 128,-1,19
 253 225 253 225 228 201 c 128,-1,20
 203 177 203 177 163 144 c 0,21,22
 116 106 116 106 91.5 77 c 128,-1,23
 67 48 67 48 61 7 c 0,24,25
 54 -46 54 -46 88 -78 c 128,-1,26
 122 -110 122 -110 185 -110 c 0,27,28
 237 -110 237 -110 289 -81 c 128,-1,29
 341 -52 341 -52 363 -10 c 1,30,-1
 426 -33 l 1,31,4
 385 -98 385 -98 318.5 -134.5 c 128,-1,5
EndSplineSet
EndChar

StartChar: Agrave
Encoding: 192 192 129
Width: 693
GlyphClass: 2
Flags: W
AnchorPoint: "Anchor-5" -46 0 basechar 0
AnchorPoint: "Anchor-4" -46 0 basechar 0
AnchorPoint: "Anchor-3" 304 723 basechar 0
AnchorPoint: "Anchor-2" 599 11 basechar 0
LayerCount: 2
Fore
SplineSet
360 723 m 1,0,-1
 446 723 l 1,1,-1
 606 0 l 1,2,-1
 531 0 l 1,3,-1
 484 209 l 1,4,-1
 176 209 l 1,5,-1
 70 0 l 1,6,-1
 -5 0 l 1,7,-1
 360 723 l 1,0,-1
473 279 m 1,8,-1
 392 650 l 1,9,-1
 206 279 l 1,10,-1
 473 279 l 1,8,-1
539 843 m 1,11,-1
 520 802 l 1,12,-1
 282 877 l 1,13,-1
 312 938 l 1,14,-1
 539 843 l 1,11,-1
EndSplineSet
EndChar

StartChar: Aacute
Encoding: 193 193 130
Width: 693
GlyphClass: 2
Flags: W
AnchorPoint: "Anchor-5" -46 0 basechar 0
AnchorPoint: "Anchor-4" -46 0 basechar 0
AnchorPoint: "Anchor-3" 304 723 basechar 0
AnchorPoint: "Anchor-2" 599 11 basechar 0
LayerCount: 2
Fore
SplineSet
360 723 m 1,0,-1
 446 723 l 1,1,-1
 606 0 l 1,2,-1
 531 0 l 1,3,-1
 484 209 l 1,4,-1
 176 209 l 1,5,-1
 70 0 l 1,6,-1
 -5 0 l 1,7,-1
 360 723 l 1,0,-1
473 279 m 1,8,-1
 392 650 l 1,9,-1
 206 279 l 1,10,-1
 473 279 l 1,8,-1
557 877 m 1,11,-1
 300 802 l 1,12,-1
 292 843 l 1,13,-1
 546 938 l 1,14,-1
 557 877 l 1,11,-1
EndSplineSet
EndChar

StartChar: Acircumflex
Encoding: 194 194 131
Width: 693
GlyphClass: 2
Flags: W
AnchorPoint: "Anchor-5" -46 0 basechar 0
AnchorPoint: "Anchor-4" -46 0 basechar 0
AnchorPoint: "Anchor-3" 304 723 basechar 0
AnchorPoint: "Anchor-2" 599 11 basechar 0
LayerCount: 2
Fore
SplineSet
360 723 m 1,0,-1
 446 723 l 1,1,-1
 606 0 l 1,2,-1
 531 0 l 1,3,-1
 484 209 l 1,4,-1
 176 209 l 1,5,-1
 70 0 l 1,6,-1
 -5 0 l 1,7,-1
 360 723 l 1,0,-1
473 279 m 1,8,-1
 392 650 l 1,9,-1
 206 279 l 1,10,-1
 473 279 l 1,8,-1
428 888 m 1,11,-1
 343 824 l 1,12,-1
 270 824 l 1,13,-1
 408 931 l 1,14,-1
 462 931 l 1,15,-1
 568 824 l 1,16,-1
 491 824 l 1,17,-1
 428 888 l 1,11,-1
EndSplineSet
EndChar

StartChar: Atilde
Encoding: 195 195 132
Width: 693
GlyphClass: 2
Flags: W
AnchorPoint: "Anchor-5" -46 0 basechar 0
AnchorPoint: "Anchor-4" -46 0 basechar 0
AnchorPoint: "Anchor-3" 304 723 basechar 0
AnchorPoint: "Anchor-2" 599 11 basechar 0
LayerCount: 2
Fore
SplineSet
360 723 m 1,0,-1
 446 723 l 1,1,-1
 606 0 l 1,2,-1
 531 0 l 1,3,-1
 484 209 l 1,4,-1
 176 209 l 1,5,-1
 70 0 l 1,6,-1
 -5 0 l 1,7,-1
 360 723 l 1,0,-1
473 279 m 1,8,-1
 392 650 l 1,9,-1
 206 279 l 1,10,-1
 473 279 l 1,8,-1
486 848 m 0,11,12
 467 848 467 848 453 851.5 c 128,-1,13
 439 855 439 855 421 862 c 0,14,15
 389 874 389 874 369 874 c 0,16,17
 353 874 353 874 341.5 870 c 128,-1,18
 330 866 330 866 320.5 860.5 c 128,-1,19
 311 855 311 855 307 853 c 0,20,21
 303 850 303 850 300 850 c 128,-1,22
 297 850 297 850 296 858 c 2,23,-1
 290 882 l 2,24,25
 289 886 289 886 289 887 c 0,26,27
 289 889 289 889 295 894 c 0,28,29
 316 908 316 908 332.5 915.5 c 128,-1,30
 349 923 349 923 371 923 c 0,31,32
 387 923 387 923 401 919.5 c 128,-1,33
 415 916 415 916 435 909 c 0,34,35
 470 896 470 896 493 896 c 0,36,37
 509 896 509 896 521 900.5 c 128,-1,38
 533 905 533 905 551 914 c 0,39,40
 556 917 556 917 559 917 c 0,41,42
 563 917 563 917 565 910 c 2,43,-1
 570 882 l 2,44,45
 571 881 571 881 570 878 c 0,46,47
 569 874 569 874 561 870 c 0,48,49
 527 848 527 848 486 848 c 0,11,12
EndSplineSet
EndChar

StartChar: Adieresis
Encoding: 196 196 133
Width: 693
GlyphClass: 2
Flags: W
AnchorPoint: "Anchor-5" -46 0 basechar 0
AnchorPoint: "Anchor-4" -46 0 basechar 0
AnchorPoint: "Anchor-3" 304 723 basechar 0
AnchorPoint: "Anchor-2" 599 11 basechar 0
LayerCount: 2
Fore
SplineSet
360 723 m 1,0,-1
 446 723 l 1,1,-1
 606 0 l 1,2,-1
 531 0 l 1,3,-1
 484 209 l 1,4,-1
 176 209 l 1,5,-1
 70 0 l 1,6,-1
 -5 0 l 1,7,-1
 360 723 l 1,0,-1
473 279 m 1,8,-1
 392 650 l 1,9,-1
 206 279 l 1,10,-1
 473 279 l 1,8,-1
388 824 m 1,11,-1
 315 824 l 1,12,-1
 330 929 l 1,13,-1
 403 929 l 1,14,-1
 388 824 l 1,11,-1
525 824 m 1,15,-1
 450 824 l 1,16,-1
 465 929 l 1,17,-1
 540 929 l 1,18,-1
 525 824 l 1,15,-1
EndSplineSet
EndChar

StartChar: Aring
Encoding: 197 197 134
Width: 693
GlyphClass: 2
Flags: W
AnchorPoint: "Anchor-5" -46 0 basechar 0
AnchorPoint: "Anchor-4" -46 0 basechar 0
AnchorPoint: "Anchor-3" 304 723 basechar 0
AnchorPoint: "Anchor-2" 599 11 basechar 0
LayerCount: 2
Fore
SplineSet
360 723 m 1,0,-1
 446 723 l 1,1,-1
 606 0 l 1,2,-1
 531 0 l 1,3,-1
 484 209 l 1,4,-1
 176 209 l 1,5,-1
 70 0 l 1,6,-1
 -5 0 l 1,7,-1
 360 723 l 1,0,-1
473 279 m 1,8,-1
 392 650 l 1,9,-1
 206 279 l 1,10,-1
 473 279 l 1,8,-1
490.5 814.5 m 128,-1,12
 457 786 457 786 414 786 c 0,13,14
 372 786 372 786 347.5 815.5 c 128,-1,15
 323 845 323 845 329 888 c 0,16,17
 335 928 335 928 368 957 c 128,-1,18
 401 986 401 986 442 986 c 0,19,20
 485 986 485 986 510.5 957 c 128,-1,21
 536 928 536 928 530 886 c 0,22,11
 524 843 524 843 490.5 814.5 c 128,-1,12
472 925.5 m 128,-1,24
 458 941 458 941 435 941 c 0,25,26
 413 941 413 941 394.5 925 c 128,-1,27
 376 909 376 909 372 886 c 0,28,29
 369 864 369 864 383 847 c 128,-1,30
 397 830 397 830 419 830 c 0,31,32
 442 830 442 830 460.5 847 c 128,-1,33
 479 864 479 864 482 886 c 0,34,23
 486 910 486 910 472 925.5 c 128,-1,24
EndSplineSet
EndChar

StartChar: AE
Encoding: 198 198 135
Width: 996
GlyphClass: 2
Flags: W
AnchorPoint: "Anchor-5" -46 0 basechar 0
AnchorPoint: "Anchor-4" -46 0 basechar 0
AnchorPoint: "Anchor-3" 628 723 basechar 0
AnchorPoint: "Anchor-2" -46 0 basechar 0
LayerCount: 2
Fore
SplineSet
882 0 m 1,0,-1
 441 0 l 1,1,-1
 471 212 l 1,2,-1
 219 212 l 1,3,-1
 70 0 l 1,4,-1
 -5 0 l 1,5,-1
 501 723 l 1,6,-1
 972 723 l 1,7,-1
 961 658 l 1,8,-1
 616 658 l 1,9,-1
 580 397 l 1,10,-1
 844 397 l 1,11,-1
 835 333 l 1,12,-1
 571 333 l 1,13,-1
 533 65 l 1,14,-1
 891 65 l 1,15,-1
 882 0 l 1,0,-1
535 667 m 1,16,-1
 258 279 l 1,17,-1
 480 279 l 1,18,-1
 535 667 l 1,16,-1
EndSplineSet
EndChar

StartChar: Ccedilla
Encoding: 199 199 136
Width: 675
GlyphClass: 2
Flags: W
AnchorPoint: "Anchor-5" -46 0 basechar 0
AnchorPoint: "Anchor-4" 311 0 basechar 0
AnchorPoint: "Anchor-3" 311 723 basechar 0
AnchorPoint: "Anchor-2" -46 0 basechar 0
LayerCount: 2
Fore
SplineSet
537 704.5 m 128,-1,1
 592 676 592 676 620 627.5 c 128,-1,2
 648 579 648 579 647 521 c 1,3,-1
 569 516 l 1,4,5
 566 585 566 585 522.5 626 c 128,-1,6
 479 667 479 667 399 667 c 0,7,8
 293 667 293 667 227.5 590 c 128,-1,9
 162 513 162 513 141 361 c 0,10,11
 120 211 120 211 164.5 133.5 c 128,-1,12
 209 56 209 56 319 56 c 0,13,14
 388 56 388 56 443 95.5 c 128,-1,15
 498 135 498 135 523 203 c 1,16,-1
 598 194 l 1,17,18
 583 137 583 137 542 90.5 c 128,-1,19
 501 44 501 44 440.5 17 c 128,-1,20
 380 -10 380 -10 310 -10 c 0,21,22
 166 -10 166 -10 100.5 88.5 c 128,-1,23
 35 187 35 187 60 362 c 128,-1,24
 85 537 85 537 176 635 c 128,-1,25
 267 733 267 733 408 733 c 0,26,0
 482 733 482 733 537 704.5 c 128,-1,1
340 -183 m 128,-1,28
 307 -203 307 -203 263 -203 c 0,29,30
 210 -203 210 -203 179 -179 c 1,31,-1
 198 -144 l 1,32,33
 223 -167 223 -167 260 -167 c 0,34,35
 316 -167 316 -167 321 -129 c 0,36,37
 324 -106 324 -106 306.5 -95.5 c 128,-1,38
 289 -85 289 -85 249 -84 c 0,39,40
 241 -84 241 -84 244 -78 c 2,41,-1
 293 5 l 1,42,-1
 336 5 l 1,43,-1
 303 -56 l 1,44,45
 348 -59 348 -59 365 -79.5 c 128,-1,46
 382 -100 382 -100 378 -128 c 0,47,27
 373 -163 373 -163 340 -183 c 128,-1,28
EndSplineSet
EndChar

StartChar: Egrave
Encoding: 200 200 137
Width: 617
GlyphClass: 2
Flags: W
AnchorPoint: "Anchor-5" -46 0 basechar 0
AnchorPoint: "Anchor-4" 299 0 basechar 0
AnchorPoint: "Anchor-3" 284 723 basechar 0
AnchorPoint: "Anchor-2" 498 10 basechar 0
LayerCount: 2
Fore
SplineSet
155 723 m 1,0,-1
 596 723 l 1,1,-1
 585 657 l 1,2,-1
 218 657 l 1,3,-1
 182 398 l 1,4,-1
 517 398 l 1,5,-1
 508 332 l 1,6,-1
 173 332 l 1,7,-1
 136 68 l 1,8,-1
 514 67 l 1,9,-1
 505 0 l 1,10,-1
 53 0 l 1,11,-1
 155 723 l 1,0,-1
519 843 m 1,12,-1
 500 802 l 1,13,-1
 262 877 l 1,14,-1
 292 938 l 1,15,-1
 519 843 l 1,12,-1
EndSplineSet
EndChar

StartChar: Eacute
Encoding: 201 201 138
Width: 617
GlyphClass: 2
Flags: W
AnchorPoint: "Anchor-5" -46 0 basechar 0
AnchorPoint: "Anchor-4" 299 0 basechar 0
AnchorPoint: "Anchor-3" 284 723 basechar 0
AnchorPoint: "Anchor-2" 498 10 basechar 0
LayerCount: 2
Fore
SplineSet
155 723 m 1,0,-1
 596 723 l 1,1,-1
 585 657 l 1,2,-1
 218 657 l 1,3,-1
 182 398 l 1,4,-1
 517 398 l 1,5,-1
 508 332 l 1,6,-1
 173 332 l 1,7,-1
 136 68 l 1,8,-1
 514 67 l 1,9,-1
 505 0 l 1,10,-1
 53 0 l 1,11,-1
 155 723 l 1,0,-1
537 877 m 1,12,-1
 280 802 l 1,13,-1
 272 843 l 1,14,-1
 526 938 l 1,15,-1
 537 877 l 1,12,-1
EndSplineSet
EndChar

StartChar: Ecircumflex
Encoding: 202 202 139
Width: 617
GlyphClass: 2
Flags: W
AnchorPoint: "Anchor-5" -46 0 basechar 0
AnchorPoint: "Anchor-4" 299 0 basechar 0
AnchorPoint: "Anchor-3" 284 723 basechar 0
AnchorPoint: "Anchor-2" 498 10 basechar 0
LayerCount: 2
Fore
SplineSet
155 723 m 1,0,-1
 596 723 l 1,1,-1
 585 657 l 1,2,-1
 218 657 l 1,3,-1
 182 398 l 1,4,-1
 517 398 l 1,5,-1
 508 332 l 1,6,-1
 173 332 l 1,7,-1
 136 68 l 1,8,-1
 514 67 l 1,9,-1
 505 0 l 1,10,-1
 53 0 l 1,11,-1
 155 723 l 1,0,-1
408 888 m 1,12,-1
 323 824 l 1,13,-1
 250 824 l 1,14,-1
 388 931 l 1,15,-1
 442 931 l 1,16,-1
 548 824 l 1,17,-1
 471 824 l 1,18,-1
 408 888 l 1,12,-1
EndSplineSet
EndChar

StartChar: Edieresis
Encoding: 203 203 140
Width: 617
GlyphClass: 2
Flags: W
AnchorPoint: "Anchor-5" -46 0 basechar 0
AnchorPoint: "Anchor-4" 299 0 basechar 0
AnchorPoint: "Anchor-3" 284 723 basechar 0
AnchorPoint: "Anchor-2" 498 10 basechar 0
LayerCount: 2
Fore
SplineSet
155 723 m 1,0,-1
 596 723 l 1,1,-1
 585 657 l 1,2,-1
 218 657 l 1,3,-1
 182 398 l 1,4,-1
 517 398 l 1,5,-1
 508 332 l 1,6,-1
 173 332 l 1,7,-1
 136 68 l 1,8,-1
 514 67 l 1,9,-1
 505 0 l 1,10,-1
 53 0 l 1,11,-1
 155 723 l 1,0,-1
368 824 m 1,12,-1
 295 824 l 1,13,-1
 310 929 l 1,14,-1
 383 929 l 1,15,-1
 368 824 l 1,12,-1
505 824 m 1,16,-1
 430 824 l 1,17,-1
 445 929 l 1,18,-1
 520 929 l 1,19,-1
 505 824 l 1,16,-1
EndSplineSet
EndChar

StartChar: Igrave
Encoding: 204 204 141
Width: 270
GlyphClass: 2
Flags: W
AnchorPoint: "Anchor-5" -46 0 basechar 0
AnchorPoint: "Anchor-4" 93 0 basechar 0
AnchorPoint: "Anchor-3" 93 723 basechar 0
AnchorPoint: "Anchor-2" 115 8 basechar 0
LayerCount: 2
Fore
SplineSet
228 723 m 1,0,-1
 126 0 l 1,1,-1
 53 0 l 1,2,-1
 155 723 l 1,3,-1
 228 723 l 1,0,-1
328 843 m 1,4,-1
 309 802 l 1,5,-1
 71 877 l 1,6,-1
 101 938 l 1,7,-1
 328 843 l 1,4,-1
EndSplineSet
EndChar

StartChar: Iacute
Encoding: 205 205 142
Width: 270
GlyphClass: 2
Flags: W
AnchorPoint: "Anchor-5" -46 0 basechar 0
AnchorPoint: "Anchor-4" 93 0 basechar 0
AnchorPoint: "Anchor-3" 93 723 basechar 0
AnchorPoint: "Anchor-2" 115 8 basechar 0
LayerCount: 2
Fore
SplineSet
228 723 m 1,0,-1
 126 0 l 1,1,-1
 53 0 l 1,2,-1
 155 723 l 1,3,-1
 228 723 l 1,0,-1
346 877 m 1,4,-1
 89 802 l 1,5,-1
 81 843 l 1,6,-1
 335 938 l 1,7,-1
 346 877 l 1,4,-1
EndSplineSet
EndChar

StartChar: Icircumflex
Encoding: 206 206 143
Width: 270
GlyphClass: 2
Flags: W
AnchorPoint: "Anchor-5" -46 0 basechar 0
AnchorPoint: "Anchor-4" 93 0 basechar 0
AnchorPoint: "Anchor-3" 93 723 basechar 0
AnchorPoint: "Anchor-2" 115 8 basechar 0
LayerCount: 2
Fore
SplineSet
228 723 m 1,0,-1
 126 0 l 1,1,-1
 53 0 l 1,2,-1
 155 723 l 1,3,-1
 228 723 l 1,0,-1
217 888 m 1,4,-1
 132 824 l 1,5,-1
 59 824 l 1,6,-1
 197 931 l 1,7,-1
 251 931 l 1,8,-1
 357 824 l 1,9,-1
 280 824 l 1,10,-1
 217 888 l 1,4,-1
EndSplineSet
EndChar

StartChar: Idieresis
Encoding: 207 207 144
Width: 270
GlyphClass: 2
Flags: W
AnchorPoint: "Anchor-5" -46 0 basechar 0
AnchorPoint: "Anchor-4" 93 0 basechar 0
AnchorPoint: "Anchor-3" 93 723 basechar 0
AnchorPoint: "Anchor-2" 115 8 basechar 0
LayerCount: 2
Fore
SplineSet
228 723 m 1,0,-1
 126 0 l 1,1,-1
 53 0 l 1,2,-1
 155 723 l 1,3,-1
 228 723 l 1,0,-1
177 824 m 1,4,-1
 104 824 l 1,5,-1
 119 929 l 1,6,-1
 192 929 l 1,7,-1
 177 824 l 1,4,-1
314 824 m 1,8,-1
 239 824 l 1,9,-1
 254 929 l 1,10,-1
 329 929 l 1,11,-1
 314 824 l 1,8,-1
EndSplineSet
EndChar

StartChar: Eth
Encoding: 208 208 145
Width: 686
GlyphClass: 2
Flags: W
AnchorPoint: "Anchor-5" -46 0 basechar 0
AnchorPoint: "Anchor-4" -46 0 basechar 0
AnchorPoint: "Anchor-3" 293 723 basechar 0
AnchorPoint: "Anchor-2" -46 0 basechar 0
LayerCount: 2
Fore
SplineSet
584.5 632 m 128,-1,1
 662 544 662 544 637 366 c 0,2,3
 611 181 611 181 503 90.5 c 128,-1,4
 395 0 395 0 198 0 c 2,5,-1
 59 0 l 1,6,-1
 106 331 l 1,7,-1
 48 331 l 2,8,9
 40 331 40 331 37 334 c 128,-1,10
 34 337 34 337 35 344 c 2,11,-1
 41 381 l 2,12,13
 43 393 43 393 52 393 c 2,14,-1
 114 393 l 1,15,-1
 161 723 l 1,16,-1
 310 722 l 2,17,0
 507 720 507 720 584.5 632 c 128,-1,1
449 135.5 m 128,-1,19
 537 205 537 205 559 364 c 0,20,21
 582 525 582 525 514.5 591.5 c 128,-1,22
 447 658 447 658 294 658 c 2,23,-1
 227 658 l 1,24,-1
 190 393 l 1,25,-1
 354 393 l 2,26,27
 363 393 363 393 362 383 c 2,28,-1
 357 346 l 2,29,30
 356 338 356 338 351.5 334.5 c 128,-1,31
 347 331 347 331 338 331 c 2,32,-1
 182 331 l 1,33,-1
 144 66 l 1,34,-1
 206 66 l 2,35,18
 361 66 361 66 449 135.5 c 128,-1,19
EndSplineSet
EndChar

StartChar: Ntilde
Encoding: 209 209 146
Width: 740
GlyphClass: 2
Flags: W
AnchorPoint: "Anchor-5" -46 0 basechar 0
AnchorPoint: "Anchor-4" 305 0 basechar 0
AnchorPoint: "Anchor-3" 335 723 basechar 0
AnchorPoint: "Anchor-2" -46 0 basechar 0
LayerCount: 2
Fore
SplineSet
697 723 m 1,0,-1
 595 0 l 1,1,-1
 530 0 l 1,2,-1
 210 597 l 1,3,-1
 126 0 l 1,4,-1
 53 0 l 1,5,-1
 155 723 l 1,6,-1
 222 723 l 1,7,-1
 540 131 l 1,8,-1
 624 723 l 1,9,-1
 697 723 l 1,0,-1
517 848 m 0,10,11
 498 848 498 848 484 851.5 c 128,-1,12
 470 855 470 855 452 862 c 0,13,14
 420 874 420 874 400 874 c 0,15,16
 384 874 384 874 372.5 870 c 128,-1,17
 361 866 361 866 351.5 860.5 c 128,-1,18
 342 855 342 855 338 853 c 0,19,20
 334 850 334 850 331 850 c 128,-1,21
 328 850 328 850 327 858 c 2,22,-1
 321 882 l 2,23,24
 320 886 320 886 320 887 c 0,25,26
 320 889 320 889 326 894 c 0,27,28
 347 908 347 908 363.5 915.5 c 128,-1,29
 380 923 380 923 402 923 c 0,30,31
 418 923 418 923 432 919.5 c 128,-1,32
 446 916 446 916 466 909 c 0,33,34
 501 896 501 896 524 896 c 0,35,36
 540 896 540 896 552 900.5 c 128,-1,37
 564 905 564 905 582 914 c 0,38,39
 587 917 587 917 590 917 c 0,40,41
 594 917 594 917 596 910 c 2,42,-1
 601 882 l 2,43,44
 602 881 602 881 601 878 c 0,45,46
 600 874 600 874 592 870 c 0,47,48
 558 848 558 848 517 848 c 0,10,11
EndSplineSet
EndChar

StartChar: Ograve
Encoding: 210 210 147
Width: 721
GlyphClass: 2
Flags: W
AnchorPoint: "Anchor-5" -46 0 basechar 0
AnchorPoint: "Anchor-4" 317 0 basechar 0
AnchorPoint: "Anchor-3" 317 723 basechar 0
AnchorPoint: "Anchor-2" 390 9 basechar 0
LayerCount: 2
Fore
SplineSet
102.5 86 m 128,-1,1
 35 182 35 182 59 358 c 0,2,3
 76 477 76 477 125 561.5 c 128,-1,4
 174 646 174 646 249 689.5 c 128,-1,5
 324 733 324 733 419 733 c 0,6,7
 513 733 513 733 575.5 689.5 c 128,-1,8
 638 646 638 646 662.5 562 c 128,-1,9
 687 478 687 478 671 360 c 0,10,11
 646 183 646 183 551.5 86.5 c 128,-1,12
 457 -10 457 -10 314 -10 c 0,13,0
 170 -10 170 -10 102.5 86 c 128,-1,1
501.5 131 m 128,-1,15
 569 206 569 206 590 359 c 0,16,17
 612 514 612 514 565.5 590.5 c 128,-1,18
 519 667 519 667 410 667 c 128,-1,19
 301 667 301 667 231.5 590 c 128,-1,20
 162 513 162 513 140 359 c 0,21,22
 119 207 119 207 167 131.5 c 128,-1,23
 215 56 215 56 325 56 c 0,24,14
 434 56 434 56 501.5 131 c 128,-1,15
552 843 m 1,25,-1
 533 802 l 1,26,-1
 295 877 l 1,27,-1
 325 938 l 1,28,-1
 552 843 l 1,25,-1
EndSplineSet
EndChar

StartChar: Oacute
Encoding: 211 211 148
Width: 721
GlyphClass: 2
Flags: W
AnchorPoint: "Anchor-5" -46 0 basechar 0
AnchorPoint: "Anchor-4" 317 0 basechar 0
AnchorPoint: "Anchor-3" 317 723 basechar 0
AnchorPoint: "Anchor-2" 390 9 basechar 0
LayerCount: 2
Fore
SplineSet
102.5 86 m 128,-1,1
 35 182 35 182 59 358 c 0,2,3
 76 477 76 477 125 561.5 c 128,-1,4
 174 646 174 646 249 689.5 c 128,-1,5
 324 733 324 733 419 733 c 0,6,7
 513 733 513 733 575.5 689.5 c 128,-1,8
 638 646 638 646 662.5 562 c 128,-1,9
 687 478 687 478 671 360 c 0,10,11
 646 183 646 183 551.5 86.5 c 128,-1,12
 457 -10 457 -10 314 -10 c 0,13,0
 170 -10 170 -10 102.5 86 c 128,-1,1
501.5 131 m 128,-1,15
 569 206 569 206 590 359 c 0,16,17
 612 514 612 514 565.5 590.5 c 128,-1,18
 519 667 519 667 410 667 c 128,-1,19
 301 667 301 667 231.5 590 c 128,-1,20
 162 513 162 513 140 359 c 0,21,22
 119 207 119 207 167 131.5 c 128,-1,23
 215 56 215 56 325 56 c 0,24,14
 434 56 434 56 501.5 131 c 128,-1,15
570 877 m 1,25,-1
 313 802 l 1,26,-1
 305 843 l 1,27,-1
 559 938 l 1,28,-1
 570 877 l 1,25,-1
EndSplineSet
EndChar

StartChar: Ocircumflex
Encoding: 212 212 149
Width: 721
GlyphClass: 2
Flags: W
AnchorPoint: "Anchor-5" -46 0 basechar 0
AnchorPoint: "Anchor-4" 317 0 basechar 0
AnchorPoint: "Anchor-3" 317 723 basechar 0
AnchorPoint: "Anchor-2" 390 9 basechar 0
LayerCount: 2
Fore
SplineSet
102.5 86 m 128,-1,1
 35 182 35 182 59 358 c 0,2,3
 76 477 76 477 125 561.5 c 128,-1,4
 174 646 174 646 249 689.5 c 128,-1,5
 324 733 324 733 419 733 c 0,6,7
 513 733 513 733 575.5 689.5 c 128,-1,8
 638 646 638 646 662.5 562 c 128,-1,9
 687 478 687 478 671 360 c 0,10,11
 646 183 646 183 551.5 86.5 c 128,-1,12
 457 -10 457 -10 314 -10 c 0,13,0
 170 -10 170 -10 102.5 86 c 128,-1,1
501.5 131 m 128,-1,15
 569 206 569 206 590 359 c 0,16,17
 612 514 612 514 565.5 590.5 c 128,-1,18
 519 667 519 667 410 667 c 128,-1,19
 301 667 301 667 231.5 590 c 128,-1,20
 162 513 162 513 140 359 c 0,21,22
 119 207 119 207 167 131.5 c 128,-1,23
 215 56 215 56 325 56 c 0,24,14
 434 56 434 56 501.5 131 c 128,-1,15
441 888 m 1,25,-1
 356 824 l 1,26,-1
 283 824 l 1,27,-1
 421 931 l 1,28,-1
 475 931 l 1,29,-1
 581 824 l 1,30,-1
 504 824 l 1,31,-1
 441 888 l 1,25,-1
EndSplineSet
EndChar

StartChar: Otilde
Encoding: 213 213 150
Width: 721
GlyphClass: 2
Flags: W
AnchorPoint: "Anchor-5" -46 0 basechar 0
AnchorPoint: "Anchor-4" 317 0 basechar 0
AnchorPoint: "Anchor-3" 317 723 basechar 0
AnchorPoint: "Anchor-2" 390 9 basechar 0
LayerCount: 2
Fore
SplineSet
102.5 86 m 128,-1,1
 35 182 35 182 59 358 c 0,2,3
 76 477 76 477 125 561.5 c 128,-1,4
 174 646 174 646 249 689.5 c 128,-1,5
 324 733 324 733 419 733 c 0,6,7
 513 733 513 733 575.5 689.5 c 128,-1,8
 638 646 638 646 662.5 562 c 128,-1,9
 687 478 687 478 671 360 c 0,10,11
 646 183 646 183 551.5 86.5 c 128,-1,12
 457 -10 457 -10 314 -10 c 0,13,0
 170 -10 170 -10 102.5 86 c 128,-1,1
501.5 131 m 128,-1,15
 569 206 569 206 590 359 c 0,16,17
 612 514 612 514 565.5 590.5 c 128,-1,18
 519 667 519 667 410 667 c 128,-1,19
 301 667 301 667 231.5 590 c 128,-1,20
 162 513 162 513 140 359 c 0,21,22
 119 207 119 207 167 131.5 c 128,-1,23
 215 56 215 56 325 56 c 0,24,14
 434 56 434 56 501.5 131 c 128,-1,15
499 848 m 0,25,26
 480 848 480 848 466 851.5 c 128,-1,27
 452 855 452 855 434 862 c 0,28,29
 402 874 402 874 382 874 c 0,30,31
 366 874 366 874 354.5 870 c 128,-1,32
 343 866 343 866 333.5 860.5 c 128,-1,33
 324 855 324 855 320 853 c 0,34,35
 316 850 316 850 313 850 c 128,-1,36
 310 850 310 850 309 858 c 2,37,-1
 303 882 l 2,38,39
 302 886 302 886 302 887 c 0,40,41
 302 889 302 889 308 894 c 0,42,43
 329 908 329 908 345.5 915.5 c 128,-1,44
 362 923 362 923 384 923 c 0,45,46
 400 923 400 923 414 919.5 c 128,-1,47
 428 916 428 916 448 909 c 0,48,49
 483 896 483 896 506 896 c 0,50,51
 522 896 522 896 534 900.5 c 128,-1,52
 546 905 546 905 564 914 c 0,53,54
 569 917 569 917 572 917 c 0,55,56
 576 917 576 917 578 910 c 2,57,-1
 583 882 l 2,58,59
 584 881 584 881 583 878 c 0,60,61
 582 874 582 874 574 870 c 0,62,63
 540 848 540 848 499 848 c 0,25,26
EndSplineSet
EndChar

StartChar: Odieresis
Encoding: 214 214 151
Width: 721
GlyphClass: 2
Flags: W
AnchorPoint: "Anchor-5" -46 0 basechar 0
AnchorPoint: "Anchor-4" 317 0 basechar 0
AnchorPoint: "Anchor-3" 317 723 basechar 0
AnchorPoint: "Anchor-2" 390 9 basechar 0
LayerCount: 2
Fore
SplineSet
102.5 86 m 128,-1,1
 35 182 35 182 59 358 c 0,2,3
 76 477 76 477 125 561.5 c 128,-1,4
 174 646 174 646 249 689.5 c 128,-1,5
 324 733 324 733 419 733 c 0,6,7
 513 733 513 733 575.5 689.5 c 128,-1,8
 638 646 638 646 662.5 562 c 128,-1,9
 687 478 687 478 671 360 c 0,10,11
 646 183 646 183 551.5 86.5 c 128,-1,12
 457 -10 457 -10 314 -10 c 0,13,0
 170 -10 170 -10 102.5 86 c 128,-1,1
501.5 131 m 128,-1,15
 569 206 569 206 590 359 c 0,16,17
 612 514 612 514 565.5 590.5 c 128,-1,18
 519 667 519 667 410 667 c 128,-1,19
 301 667 301 667 231.5 590 c 128,-1,20
 162 513 162 513 140 359 c 0,21,22
 119 207 119 207 167 131.5 c 128,-1,23
 215 56 215 56 325 56 c 0,24,14
 434 56 434 56 501.5 131 c 128,-1,15
401 824 m 1,25,-1
 328 824 l 1,26,-1
 343 929 l 1,27,-1
 416 929 l 1,28,-1
 401 824 l 1,25,-1
538 824 m 1,29,-1
 463 824 l 1,30,-1
 478 929 l 1,31,-1
 553 929 l 1,32,-1
 538 824 l 1,29,-1
EndSplineSet
EndChar

StartChar: multiply
Encoding: 215 215 152
Width: 528
GlyphClass: 2
Flags: W
LayerCount: 2
Fore
SplineSet
309 363 m 1,0,-1
 445 206 l 1,1,-1
 397 163 l 1,2,-1
 261 321 l 1,3,-1
 82 163 l 1,4,-1
 46 206 l 1,5,-1
 225 363 l 1,6,-1
 89 521 l 1,7,-1
 137 562 l 1,8,-1
 272 405 l 1,9,-1
 452 564 l 1,10,-1
 489 522 l 1,11,-1
 309 363 l 1,0,-1
EndSplineSet
EndChar

StartChar: Oslash
Encoding: 216 216 153
Width: 712
GlyphClass: 2
Flags: W
AnchorPoint: "Anchor-5" -46 0 basechar 0
AnchorPoint: "Anchor-4" -46 0 basechar 0
AnchorPoint: "Anchor-3" 310 723 basechar 0
AnchorPoint: "Anchor-2" -46 0 basechar 0
LayerCount: 2
Fore
SplineSet
739 686 m 2,0,-1
 646 595 l 1,1,2
 686 501 686 501 666 360 c 0,3,4
 650 243 650 243 601.5 159.5 c 128,-1,5
 553 76 553 76 478 33 c 128,-1,6
 403 -10 403 -10 308 -10 c 0,7,8
 171 -10 171 -10 106 75 c 1,9,-1
 27 -1 l 2,10,11
 20 -8 20 -8 14 -8 c 0,12,13
 10 -8 10 -8 3 -2 c 2,14,-1
 -15 19 l 2,15,16
 -21 25 -21 25 -21 29 c 128,-1,17
 -21 33 -21 33 -17 37 c 2,18,-1
 74 126 l 1,19,20
 34 216 34 216 53 358 c 0,21,22
 70 477 70 477 119 561.5 c 128,-1,23
 168 646 168 646 243 689.5 c 128,-1,24
 318 733 318 733 413 733 c 0,25,26
 548 733 548 733 615 646 c 1,27,-1
 697 725 l 2,28,29
 707 735 707 735 713 728 c 2,30,-1
 740 700 l 2,31,32
 746 693 746 693 739 686 c 2,0,-1
148 193 m 1,33,-1
 554 591 l 1,34,35
 512 667 512 667 404 667 c 0,36,37
 295 667 295 667 229.5 591 c 128,-1,38
 164 515 164 515 142 359 c 0,39,40
 128 259 128 259 148 193 c 1,33,-1
571 528 m 1,41,-1
 165 131 l 1,42,43
 208 56 208 56 319 56 c 0,44,45
 427 56 427 56 490.5 130 c 128,-1,46
 554 204 554 204 575 359 c 0,47,48
 590 463 590 463 571 528 c 1,41,-1
EndSplineSet
EndChar

StartChar: Ugrave
Encoding: 217 217 154
Width: 708
GlyphClass: 2
Flags: W
AnchorPoint: "Anchor-5" -46 0 basechar 0
AnchorPoint: "Anchor-4" -46 0 basechar 0
AnchorPoint: "Anchor-3" 306 723 basechar 0
AnchorPoint: "Anchor-2" 380 10 basechar 0
LayerCount: 2
Fore
SplineSet
307 -10 m 0,0,1
 174 -10 174 -10 122 55 c 128,-1,2
 70 120 70 120 88 252 c 2,3,-1
 155 723 l 1,4,-1
 231 723 l 1,5,-1
 162 237 l 2,6,7
 149 147 149 147 188 101 c 128,-1,8
 227 55 227 55 316 55 c 128,-1,9
 405 55 405 55 458 100.5 c 128,-1,10
 511 146 511 146 523 237 c 2,11,-1
 592 723 l 1,12,-1
 665 723 l 1,13,-1
 597 240 l 2,14,15
 562 -10 562 -10 307 -10 c 0,0,1
541 843 m 1,16,-1
 522 802 l 1,17,-1
 284 877 l 1,18,-1
 314 938 l 1,19,-1
 541 843 l 1,16,-1
EndSplineSet
EndChar

StartChar: Uacute
Encoding: 218 218 155
Width: 708
GlyphClass: 2
Flags: W
AnchorPoint: "Anchor-5" -46 0 basechar 0
AnchorPoint: "Anchor-4" -46 0 basechar 0
AnchorPoint: "Anchor-3" 306 723 basechar 0
AnchorPoint: "Anchor-2" 380 10 basechar 0
LayerCount: 2
Fore
SplineSet
307 -10 m 0,0,1
 174 -10 174 -10 122 55 c 128,-1,2
 70 120 70 120 88 252 c 2,3,-1
 155 723 l 1,4,-1
 231 723 l 1,5,-1
 162 237 l 2,6,7
 149 147 149 147 188 101 c 128,-1,8
 227 55 227 55 316 55 c 128,-1,9
 405 55 405 55 458 100.5 c 128,-1,10
 511 146 511 146 523 237 c 2,11,-1
 592 723 l 1,12,-1
 665 723 l 1,13,-1
 597 240 l 2,14,15
 562 -10 562 -10 307 -10 c 0,0,1
559 877 m 1,16,-1
 302 802 l 1,17,-1
 294 843 l 1,18,-1
 548 938 l 1,19,-1
 559 877 l 1,16,-1
EndSplineSet
EndChar

StartChar: Ucircumflex
Encoding: 219 219 156
Width: 708
GlyphClass: 2
Flags: W
AnchorPoint: "Anchor-5" -46 0 basechar 0
AnchorPoint: "Anchor-4" -46 0 basechar 0
AnchorPoint: "Anchor-3" 306 723 basechar 0
AnchorPoint: "Anchor-2" 380 10 basechar 0
LayerCount: 2
Fore
SplineSet
307 -10 m 0,0,1
 174 -10 174 -10 122 55 c 128,-1,2
 70 120 70 120 88 252 c 2,3,-1
 155 723 l 1,4,-1
 231 723 l 1,5,-1
 162 237 l 2,6,7
 149 147 149 147 188 101 c 128,-1,8
 227 55 227 55 316 55 c 128,-1,9
 405 55 405 55 458 100.5 c 128,-1,10
 511 146 511 146 523 237 c 2,11,-1
 592 723 l 1,12,-1
 665 723 l 1,13,-1
 597 240 l 2,14,15
 562 -10 562 -10 307 -10 c 0,0,1
430 888 m 1,16,-1
 345 824 l 1,17,-1
 272 824 l 1,18,-1
 410 931 l 1,19,-1
 464 931 l 1,20,-1
 570 824 l 1,21,-1
 493 824 l 1,22,-1
 430 888 l 1,16,-1
EndSplineSet
EndChar

StartChar: Udieresis
Encoding: 220 220 157
Width: 708
GlyphClass: 2
Flags: W
AnchorPoint: "Anchor-5" -46 0 basechar 0
AnchorPoint: "Anchor-4" -46 0 basechar 0
AnchorPoint: "Anchor-3" 306 723 basechar 0
AnchorPoint: "Anchor-2" 380 10 basechar 0
LayerCount: 2
Fore
SplineSet
307 -10 m 0,0,1
 174 -10 174 -10 122 55 c 128,-1,2
 70 120 70 120 88 252 c 2,3,-1
 155 723 l 1,4,-1
 231 723 l 1,5,-1
 162 237 l 2,6,7
 149 147 149 147 188 101 c 128,-1,8
 227 55 227 55 316 55 c 128,-1,9
 405 55 405 55 458 100.5 c 128,-1,10
 511 146 511 146 523 237 c 2,11,-1
 592 723 l 1,12,-1
 665 723 l 1,13,-1
 597 240 l 2,14,15
 562 -10 562 -10 307 -10 c 0,0,1
390 824 m 1,16,-1
 317 824 l 1,17,-1
 332 929 l 1,18,-1
 405 929 l 1,19,-1
 390 824 l 1,16,-1
527 824 m 1,20,-1
 452 824 l 1,21,-1
 467 929 l 1,22,-1
 542 929 l 1,23,-1
 527 824 l 1,20,-1
EndSplineSet
EndChar

StartChar: Yacute
Encoding: 221 221 158
Width: 576
GlyphClass: 2
Flags: W
AnchorPoint: "Anchor-5" -46 0 basechar 0
AnchorPoint: "Anchor-4" -46 0 basechar 0
AnchorPoint: "Anchor-3" 245 723 basechar 0
AnchorPoint: "Anchor-2" -46 0 basechar 0
LayerCount: 2
Fore
SplineSet
323 309 m 1,0,-1
 280 0 l 1,1,-1
 207 0 l 1,2,-1
 251 310 l 1,3,-1
 64 723 l 1,4,-1
 144 723 l 1,5,-1
 297 376 l 1,6,-1
 544 723 l 1,7,-1
 624 723 l 1,8,-1
 323 309 l 1,0,-1
498 877 m 1,9,-1
 241 802 l 1,10,-1
 233 843 l 1,11,-1
 487 938 l 1,12,-1
 498 877 l 1,9,-1
EndSplineSet
EndChar

StartChar: Thorn
Encoding: 222 222 159
Width: 652
GlyphClass: 2
Flags: W
LayerCount: 2
Fore
SplineSet
534.5 219.5 m 128,-1,1
 458 168 458 168 340 168 c 2,2,-1
 160 168 l 1,3,-1
 136 0 l 1,4,-1
 53 0 l 1,5,-1
 155 723 l 1,6,-1
 238 723 l 1,7,-1
 216 571 l 1,8,-1
 386 571 l 2,9,10
 507 571 507 571 573 522 c 128,-1,11
 639 473 639 473 626 376 c 0,12,0
 611 271 611 271 534.5 219.5 c 128,-1,1
373 507 m 2,13,-1
 207 507 l 1,14,-1
 169 233 l 1,15,-1
 342 233 l 2,16,17
 427 233 427 233 478.5 268 c 128,-1,18
 530 303 530 303 540 377 c 0,19,20
 558 507 558 507 373 507 c 2,13,-1
EndSplineSet
EndChar

StartChar: germandbls
Encoding: 223 223 160
Width: 592
GlyphClass: 2
Flags: W
LayerCount: 2
Fore
SplineSet
487 684.5 m 128,-1,1
 522 646 522 646 514 588 c 0,2,3
 509 552 509 552 490.5 528 c 128,-1,4
 472 504 472 504 447.5 489 c 128,-1,5
 423 474 423 474 379 454 c 0,6,7
 337 433 337 433 323 422 c 128,-1,8
 309 411 309 411 306 392 c 128,-1,9
 303 373 303 373 314.5 364.5 c 128,-1,10
 326 356 326 356 361 345 c 0,11,12
 419 322 419 322 450 305.5 c 128,-1,13
 481 289 481 289 504 253 c 128,-1,14
 527 217 527 217 519 159 c 0,15,16
 508 79 508 79 447.5 34.5 c 128,-1,17
 387 -10 387 -10 303 -10 c 0,18,19
 267 -10 267 -10 230 -0.5 c 128,-1,20
 193 9 193 9 171 25 c 1,21,-1
 207 76 l 1,22,23
 231 61 231 61 252 53 c 128,-1,24
 273 45 273 45 304 45 c 0,25,26
 363 45 363 45 402 73.5 c 128,-1,27
 441 102 441 102 448 152 c 0,28,29
 453 188 453 188 439 210.5 c 128,-1,30
 425 233 425 233 400.5 246 c 128,-1,31
 376 259 376 259 335 274 c 0,32,33
 303 285 303 285 282.5 296 c 128,-1,34
 262 307 262 307 250 327.5 c 128,-1,35
 238 348 238 348 243 381 c 0,36,37
 248 416 248 416 272 440.5 c 128,-1,38
 296 465 296 465 347 491 c 0,39,40
 355 495 355 495 382 510 c 128,-1,41
 409 525 409 525 424.5 544 c 128,-1,42
 440 563 440 563 444 588 c 0,43,44
 449 625 449 625 425 646.5 c 128,-1,45
 401 668 401 668 352 668 c 0,46,47
 290 668 290 668 247.5 630.5 c 128,-1,48
 205 593 205 593 195 522 c 2,49,-1
 122 0 l 1,50,-1
 50 0 l 1,51,-1
 114 454 l 1,52,-1
 44 454 l 1,53,-1
 52 510 l 1,54,-1
 121 510 l 1,55,56
 135 606 135 606 200.5 664.5 c 128,-1,57
 266 723 266 723 367 723 c 0,58,0
 452 723 452 723 487 684.5 c 128,-1,1
EndSplineSet
EndChar

StartChar: agrave
Encoding: 224 224 161
Width: 556
GlyphClass: 2
Flags: W
AnchorPoint: "Anchor-5" -46 0 basechar 0
AnchorPoint: "Anchor-4" -46 0 basechar 0
AnchorPoint: "Anchor-3" 231 517 basechar 0
AnchorPoint: "Anchor-2" 417 13 basechar 0
LayerCount: 2
Fore
SplineSet
387 0 m 1,0,-1
 394 50 l 1,1,2
 352 18 352 18 314 4 c 128,-1,3
 276 -10 276 -10 233 -10 c 0,4,5
 165 -10 165 -10 118 23 c 128,-1,6
 71 56 71 56 51 118.5 c 128,-1,7
 31 181 31 181 43 266 c 128,-1,8
 55 351 55 351 92 409.5 c 128,-1,9
 129 468 129 468 182.5 497.5 c 128,-1,10
 236 527 236 527 298 527 c 0,11,12
 341 527 341 527 371.5 513.5 c 128,-1,13
 402 500 402 500 415.5 486.5 c 128,-1,14
 429 473 429 473 451 448 c 1,15,-1
 461 517 l 1,16,-1
 533 517 l 1,17,-1
 459 0 l 1,18,-1
 387 0 l 1,0,-1
406 137 m 1,19,-1
 434 335 l 2,20,21
 439 368 439 368 425 399.5 c 128,-1,22
 411 431 411 431 380.5 450.5 c 128,-1,23
 350 470 350 470 309 470 c 0,24,25
 240 470 240 470 186 417.5 c 128,-1,26
 132 365 132 365 118 264 c 0,27,28
 109 197 109 197 124 148 c 128,-1,29
 139 99 139 99 173 72.5 c 128,-1,30
 207 46 207 46 256 46 c 0,31,32
 331 46 331 46 406 137 c 1,19,-1
437 637 m 1,33,-1
 418 596 l 1,34,-1
 180 671 l 1,35,-1
 210 732 l 1,36,-1
 437 637 l 1,33,-1
EndSplineSet
EndChar

StartChar: aacute
Encoding: 225 225 162
Width: 556
GlyphClass: 2
Flags: W
AnchorPoint: "Anchor-5" -46 0 basechar 0
AnchorPoint: "Anchor-4" -46 0 basechar 0
AnchorPoint: "Anchor-3" 231 517 basechar 0
AnchorPoint: "Anchor-2" 417 13 basechar 0
LayerCount: 2
Fore
SplineSet
387 0 m 1,0,-1
 394 50 l 1,1,2
 352 18 352 18 314 4 c 128,-1,3
 276 -10 276 -10 233 -10 c 0,4,5
 165 -10 165 -10 118 23 c 128,-1,6
 71 56 71 56 51 118.5 c 128,-1,7
 31 181 31 181 43 266 c 128,-1,8
 55 351 55 351 92 409.5 c 128,-1,9
 129 468 129 468 182.5 497.5 c 128,-1,10
 236 527 236 527 298 527 c 0,11,12
 341 527 341 527 371.5 513.5 c 128,-1,13
 402 500 402 500 415.5 486.5 c 128,-1,14
 429 473 429 473 451 448 c 1,15,-1
 461 517 l 1,16,-1
 533 517 l 1,17,-1
 459 0 l 1,18,-1
 387 0 l 1,0,-1
406 137 m 1,19,-1
 434 335 l 2,20,21
 439 368 439 368 425 399.5 c 128,-1,22
 411 431 411 431 380.5 450.5 c 128,-1,23
 350 470 350 470 309 470 c 0,24,25
 240 470 240 470 186 417.5 c 128,-1,26
 132 365 132 365 118 264 c 0,27,28
 109 197 109 197 124 148 c 128,-1,29
 139 99 139 99 173 72.5 c 128,-1,30
 207 46 207 46 256 46 c 0,31,32
 331 46 331 46 406 137 c 1,19,-1
455 671 m 1,33,-1
 198 596 l 1,34,-1
 190 637 l 1,35,-1
 444 732 l 1,36,-1
 455 671 l 1,33,-1
EndSplineSet
EndChar

StartChar: acircumflex
Encoding: 226 226 163
Width: 556
GlyphClass: 2
Flags: W
AnchorPoint: "Anchor-5" -46 0 basechar 0
AnchorPoint: "Anchor-4" -46 0 basechar 0
AnchorPoint: "Anchor-3" 231 517 basechar 0
AnchorPoint: "Anchor-2" 417 13 basechar 0
LayerCount: 2
Fore
SplineSet
387 0 m 1,0,-1
 394 50 l 1,1,2
 352 18 352 18 314 4 c 128,-1,3
 276 -10 276 -10 233 -10 c 0,4,5
 165 -10 165 -10 118 23 c 128,-1,6
 71 56 71 56 51 118.5 c 128,-1,7
 31 181 31 181 43 266 c 128,-1,8
 55 351 55 351 92 409.5 c 128,-1,9
 129 468 129 468 182.5 497.5 c 128,-1,10
 236 527 236 527 298 527 c 0,11,12
 341 527 341 527 371.5 513.5 c 128,-1,13
 402 500 402 500 415.5 486.5 c 128,-1,14
 429 473 429 473 451 448 c 1,15,-1
 461 517 l 1,16,-1
 533 517 l 1,17,-1
 459 0 l 1,18,-1
 387 0 l 1,0,-1
406 137 m 1,19,-1
 434 335 l 2,20,21
 439 368 439 368 425 399.5 c 128,-1,22
 411 431 411 431 380.5 450.5 c 128,-1,23
 350 470 350 470 309 470 c 0,24,25
 240 470 240 470 186 417.5 c 128,-1,26
 132 365 132 365 118 264 c 0,27,28
 109 197 109 197 124 148 c 128,-1,29
 139 99 139 99 173 72.5 c 128,-1,30
 207 46 207 46 256 46 c 0,31,32
 331 46 331 46 406 137 c 1,19,-1
326 682 m 1,33,-1
 241 618 l 1,34,-1
 168 618 l 1,35,-1
 306 725 l 1,36,-1
 360 725 l 1,37,-1
 466 618 l 1,38,-1
 389 618 l 1,39,-1
 326 682 l 1,33,-1
EndSplineSet
EndChar

StartChar: atilde
Encoding: 227 227 164
Width: 556
GlyphClass: 2
Flags: W
AnchorPoint: "Anchor-5" -46 0 basechar 0
AnchorPoint: "Anchor-4" -46 0 basechar 0
AnchorPoint: "Anchor-3" 231 517 basechar 0
AnchorPoint: "Anchor-2" 417 13 basechar 0
LayerCount: 2
Fore
SplineSet
387 0 m 1,0,-1
 394 50 l 1,1,2
 352 18 352 18 314 4 c 128,-1,3
 276 -10 276 -10 233 -10 c 0,4,5
 165 -10 165 -10 118 23 c 128,-1,6
 71 56 71 56 51 118.5 c 128,-1,7
 31 181 31 181 43 266 c 128,-1,8
 55 351 55 351 92 409.5 c 128,-1,9
 129 468 129 468 182.5 497.5 c 128,-1,10
 236 527 236 527 298 527 c 0,11,12
 341 527 341 527 371.5 513.5 c 128,-1,13
 402 500 402 500 415.5 486.5 c 128,-1,14
 429 473 429 473 451 448 c 1,15,-1
 461 517 l 1,16,-1
 533 517 l 1,17,-1
 459 0 l 1,18,-1
 387 0 l 1,0,-1
406 137 m 1,19,-1
 434 335 l 2,20,21
 439 368 439 368 425 399.5 c 128,-1,22
 411 431 411 431 380.5 450.5 c 128,-1,23
 350 470 350 470 309 470 c 0,24,25
 240 470 240 470 186 417.5 c 128,-1,26
 132 365 132 365 118 264 c 0,27,28
 109 197 109 197 124 148 c 128,-1,29
 139 99 139 99 173 72.5 c 128,-1,30
 207 46 207 46 256 46 c 0,31,32
 331 46 331 46 406 137 c 1,19,-1
384 642 m 0,33,34
 365 642 365 642 351 645.5 c 128,-1,35
 337 649 337 649 319 656 c 0,36,37
 287 668 287 668 267 668 c 0,38,39
 251 668 251 668 239.5 664 c 128,-1,40
 228 660 228 660 218.5 654.5 c 128,-1,41
 209 649 209 649 205 647 c 0,42,43
 201 644 201 644 198 644 c 128,-1,44
 195 644 195 644 194 652 c 2,45,-1
 188 676 l 2,46,47
 187 680 187 680 187 681 c 0,48,49
 187 683 187 683 193 688 c 0,50,51
 214 702 214 702 230.5 709.5 c 128,-1,52
 247 717 247 717 269 717 c 0,53,54
 285 717 285 717 299 713.5 c 128,-1,55
 313 710 313 710 333 703 c 0,56,57
 368 690 368 690 391 690 c 0,58,59
 407 690 407 690 419 694.5 c 128,-1,60
 431 699 431 699 449 708 c 0,61,62
 454 711 454 711 457 711 c 0,63,64
 461 711 461 711 463 704 c 2,65,-1
 468 676 l 2,66,67
 469 675 469 675 468 672 c 0,68,69
 467 668 467 668 459 664 c 0,70,71
 425 642 425 642 384 642 c 0,33,34
EndSplineSet
EndChar

StartChar: adieresis
Encoding: 228 228 165
Width: 556
GlyphClass: 2
Flags: W
AnchorPoint: "Anchor-5" -46 0 basechar 0
AnchorPoint: "Anchor-4" -46 0 basechar 0
AnchorPoint: "Anchor-3" 231 517 basechar 0
AnchorPoint: "Anchor-2" 417 13 basechar 0
LayerCount: 2
Fore
SplineSet
387 0 m 1,0,-1
 394 50 l 1,1,2
 352 18 352 18 314 4 c 128,-1,3
 276 -10 276 -10 233 -10 c 0,4,5
 165 -10 165 -10 118 23 c 128,-1,6
 71 56 71 56 51 118.5 c 128,-1,7
 31 181 31 181 43 266 c 128,-1,8
 55 351 55 351 92 409.5 c 128,-1,9
 129 468 129 468 182.5 497.5 c 128,-1,10
 236 527 236 527 298 527 c 0,11,12
 341 527 341 527 371.5 513.5 c 128,-1,13
 402 500 402 500 415.5 486.5 c 128,-1,14
 429 473 429 473 451 448 c 1,15,-1
 461 517 l 1,16,-1
 533 517 l 1,17,-1
 459 0 l 1,18,-1
 387 0 l 1,0,-1
406 137 m 1,19,-1
 434 335 l 2,20,21
 439 368 439 368 425 399.5 c 128,-1,22
 411 431 411 431 380.5 450.5 c 128,-1,23
 350 470 350 470 309 470 c 0,24,25
 240 470 240 470 186 417.5 c 128,-1,26
 132 365 132 365 118 264 c 0,27,28
 109 197 109 197 124 148 c 128,-1,29
 139 99 139 99 173 72.5 c 128,-1,30
 207 46 207 46 256 46 c 0,31,32
 331 46 331 46 406 137 c 1,19,-1
286 618 m 1,33,-1
 213 618 l 1,34,-1
 228 723 l 1,35,-1
 301 723 l 1,36,-1
 286 618 l 1,33,-1
423 618 m 1,37,-1
 348 618 l 1,38,-1
 363 723 l 1,39,-1
 438 723 l 1,40,-1
 423 618 l 1,37,-1
EndSplineSet
EndChar

StartChar: aring
Encoding: 229 229 166
Width: 556
GlyphClass: 2
Flags: W
AnchorPoint: "Anchor-5" -46 0 basechar 0
AnchorPoint: "Anchor-4" -46 0 basechar 0
AnchorPoint: "Anchor-3" 231 517 basechar 0
AnchorPoint: "Anchor-2" 417 13 basechar 0
LayerCount: 2
Fore
SplineSet
387 0 m 1,0,-1
 394 50 l 1,1,2
 352 18 352 18 314 4 c 128,-1,3
 276 -10 276 -10 233 -10 c 0,4,5
 165 -10 165 -10 118 23 c 128,-1,6
 71 56 71 56 51 118.5 c 128,-1,7
 31 181 31 181 43 266 c 128,-1,8
 55 351 55 351 92 409.5 c 128,-1,9
 129 468 129 468 182.5 497.5 c 128,-1,10
 236 527 236 527 298 527 c 0,11,12
 341 527 341 527 371.5 513.5 c 128,-1,13
 402 500 402 500 415.5 486.5 c 128,-1,14
 429 473 429 473 451 448 c 1,15,-1
 461 517 l 1,16,-1
 533 517 l 1,17,-1
 459 0 l 1,18,-1
 387 0 l 1,0,-1
406 137 m 1,19,-1
 434 335 l 2,20,21
 439 368 439 368 425 399.5 c 128,-1,22
 411 431 411 431 380.5 450.5 c 128,-1,23
 350 470 350 470 309 470 c 0,24,25
 240 470 240 470 186 417.5 c 128,-1,26
 132 365 132 365 118 264 c 0,27,28
 109 197 109 197 124 148 c 128,-1,29
 139 99 139 99 173 72.5 c 128,-1,30
 207 46 207 46 256 46 c 0,31,32
 331 46 331 46 406 137 c 1,19,-1
388.5 608.5 m 128,-1,34
 355 580 355 580 312 580 c 0,35,36
 270 580 270 580 245.5 609.5 c 128,-1,37
 221 639 221 639 227 682 c 0,38,39
 233 722 233 722 266 751 c 128,-1,40
 299 780 299 780 340 780 c 0,41,42
 383 780 383 780 408.5 751 c 128,-1,43
 434 722 434 722 428 680 c 0,44,33
 422 637 422 637 388.5 608.5 c 128,-1,34
370 719.5 m 128,-1,46
 356 735 356 735 333 735 c 0,47,48
 311 735 311 735 292.5 719 c 128,-1,49
 274 703 274 703 270 680 c 0,50,51
 267 658 267 658 281 641 c 128,-1,52
 295 624 295 624 317 624 c 0,53,54
 340 624 340 624 358.5 641 c 128,-1,55
 377 658 377 658 380 680 c 0,56,45
 384 704 384 704 370 719.5 c 128,-1,46
EndSplineSet
EndChar

StartChar: ae
Encoding: 230 230 167
Width: 928
GlyphClass: 2
Flags: W
AnchorPoint: "Anchor-5" -46 0 basechar 0
AnchorPoint: "Anchor-4" -46 0 basechar 0
AnchorPoint: "Anchor-3" 408 517 basechar 0
AnchorPoint: "Anchor-2" -46 0 basechar 0
LayerCount: 2
Fore
SplineSet
471 148.5 m 128,-1,1
 488 103 488 103 525 75 c 128,-1,2
 562 47 562 47 609 47 c 0,3,4
 669 47 669 47 708 71.5 c 128,-1,5
 747 96 747 96 785 138 c 1,6,-1
 831 110 l 1,7,8
 790 53 790 53 729 21.5 c 128,-1,9
 668 -10 668 -10 593 -10 c 0,10,11
 520 -10 520 -10 478 20.5 c 128,-1,12
 436 51 436 51 408 97 c 0,13,14
 407 99 407 99 405.5 99 c 128,-1,15
 404 99 404 99 402 97 c 0,16,17
 354 49 354 49 301.5 19.5 c 128,-1,18
 249 -10 249 -10 169 -10 c 0,19,20
 92 -10 92 -10 54 29 c 128,-1,21
 16 68 16 68 25 134 c 0,22,23
 35 208 35 208 102.5 252 c 128,-1,24
 170 296 170 296 293 305 c 2,25,-1
 402 313 l 1,26,-1
 408 354 l 2,27,28
 416 410 416 410 386.5 441 c 128,-1,29
 357 472 357 472 294 472 c 0,30,31
 207 472 207 472 134 383 c 1,32,-1
 77 406 l 1,33,34
 117 465 117 465 176 496 c 128,-1,35
 235 527 235 527 309 527 c 0,36,37
 447 527 447 527 469 427 c 1,38,39
 505 476 505 476 556.5 501.5 c 128,-1,40
 608 527 608 527 670 527 c 0,41,42
 739 527 739 527 787.5 493.5 c 128,-1,43
 836 460 836 460 856 396 c 128,-1,44
 876 332 876 332 863 243 c 1,45,-1
 461 242 l 1,46,0
 454 194 454 194 471 148.5 c 128,-1,1
574.5 450 m 128,-1,48
 534 428 534 428 506.5 387.5 c 128,-1,49
 479 347 479 347 471 293 c 1,50,-1
 796 292 l 1,51,52
 803 340 803 340 788.5 381.5 c 128,-1,53
 774 423 774 423 741 447.5 c 128,-1,54
 708 472 708 472 661 472 c 0,55,47
 615 472 615 472 574.5 450 c 128,-1,48
303 257 m 2,56,57
 115 242 115 242 101 139 c 0,58,59
 95 96 95 96 119 70.5 c 128,-1,60
 143 45 143 45 193 45 c 0,61,62
 239 45 239 45 280.5 62 c 128,-1,63
 322 79 322 79 349.5 107.5 c 128,-1,64
 377 136 377 136 382 169 c 2,65,-1
 395 263 l 1,66,-1
 303 257 l 2,56,57
EndSplineSet
EndChar

StartChar: ccedilla
Encoding: 231 231 168
Width: 537
GlyphClass: 2
Flags: W
AnchorPoint: "Anchor-5" -46 0 basechar 0
AnchorPoint: "Anchor-4" 239 0 basechar 0
AnchorPoint: "Anchor-3" 237 517 basechar 0
AnchorPoint: "Anchor-2" -46 0 basechar 0
LayerCount: 2
Fore
SplineSet
488 391 m 1,0,-1
 426 375 l 1,1,2
 396 426 396 426 372 446 c 128,-1,3
 348 466 348 466 307 466 c 0,4,5
 231 466 231 466 179 409.5 c 128,-1,6
 127 353 127 353 113 258 c 0,7,8
 100 162 100 162 136.5 105 c 128,-1,9
 173 48 173 48 249 48 c 0,10,11
 296 48 296 48 330.5 72.5 c 128,-1,12
 365 97 365 97 401 147 c 1,13,-1
 457 130 l 1,14,15
 419 63 419 63 363.5 26.5 c 128,-1,16
 308 -10 308 -10 237 -10 c 0,17,18
 167 -10 167 -10 119 23.5 c 128,-1,19
 71 57 71 57 51 117 c 128,-1,20
 31 177 31 177 42 256 c 128,-1,21
 53 335 53 335 90 396.5 c 128,-1,22
 127 458 127 458 184.5 492.5 c 128,-1,23
 242 527 242 527 312 527 c 0,24,25
 445 527 445 527 488 391 c 1,0,-1
268 -183 m 128,-1,27
 235 -203 235 -203 191 -203 c 0,28,29
 138 -203 138 -203 107 -179 c 1,30,-1
 126 -144 l 1,31,32
 151 -167 151 -167 188 -167 c 0,33,34
 244 -167 244 -167 249 -129 c 0,35,36
 252 -106 252 -106 234.5 -95.5 c 128,-1,37
 217 -85 217 -85 177 -84 c 0,38,39
 169 -84 169 -84 172 -78 c 2,40,-1
 221 5 l 1,41,-1
 264 5 l 1,42,-1
 231 -56 l 1,43,44
 276 -59 276 -59 293 -79.5 c 128,-1,45
 310 -100 310 -100 306 -128 c 0,46,26
 301 -163 301 -163 268 -183 c 128,-1,27
EndSplineSet
EndChar

StartChar: egrave
Encoding: 232 232 169
Width: 555
GlyphClass: 2
Flags: W
AnchorPoint: "Anchor-5" -46 0 basechar 0
AnchorPoint: "Anchor-4" 231 0 basechar 0
AnchorPoint: "Anchor-3" 237 517 basechar 0
AnchorPoint: "Anchor-2" 338 20 basechar 0
LayerCount: 2
Fore
SplineSet
138 104 m 128,-1,1
 173 50 173 50 253 50 c 0,2,3
 356 50 356 50 401 134 c 1,4,-1
 466 121 l 1,5,6
 439 60 439 60 379.5 25 c 128,-1,7
 320 -10 320 -10 246 -10 c 0,8,9
 175 -10 175 -10 124.5 21.5 c 128,-1,10
 74 53 74 53 52 112.5 c 128,-1,11
 30 172 30 172 42 254 c 0,12,13
 60 380 60 380 131 453.5 c 128,-1,14
 202 527 202 527 311 527 c 0,15,16
 415 527 415 527 463.5 459.5 c 128,-1,17
 512 392 512 392 495 273 c 2,18,-1
 491 241 l 1,19,-1
 115 241 l 1,20,0
 103 158 103 158 138 104 c 128,-1,1
427 295 m 1,21,22
 438 372 438 372 407 420 c 128,-1,23
 376 468 376 468 302 468 c 0,24,25
 251 468 251 468 212.5 443 c 128,-1,26
 174 418 174 418 151.5 378.5 c 128,-1,27
 129 339 129 339 122 295 c 1,28,-1
 427 295 l 1,21,22
443 637 m 1,29,-1
 424 596 l 1,30,-1
 186 671 l 1,31,-1
 216 732 l 1,32,-1
 443 637 l 1,29,-1
EndSplineSet
EndChar

StartChar: eacute
Encoding: 233 233 170
Width: 555
GlyphClass: 2
Flags: W
AnchorPoint: "Anchor-5" -46 0 basechar 0
AnchorPoint: "Anchor-4" 231 0 basechar 0
AnchorPoint: "Anchor-3" 237 517 basechar 0
AnchorPoint: "Anchor-2" 338 20 basechar 0
LayerCount: 2
Fore
SplineSet
138 104 m 128,-1,1
 173 50 173 50 253 50 c 0,2,3
 356 50 356 50 401 134 c 1,4,-1
 466 121 l 1,5,6
 439 60 439 60 379.5 25 c 128,-1,7
 320 -10 320 -10 246 -10 c 0,8,9
 175 -10 175 -10 124.5 21.5 c 128,-1,10
 74 53 74 53 52 112.5 c 128,-1,11
 30 172 30 172 42 254 c 0,12,13
 60 380 60 380 131 453.5 c 128,-1,14
 202 527 202 527 311 527 c 0,15,16
 415 527 415 527 463.5 459.5 c 128,-1,17
 512 392 512 392 495 273 c 2,18,-1
 491 241 l 1,19,-1
 115 241 l 1,20,0
 103 158 103 158 138 104 c 128,-1,1
427 295 m 1,21,22
 438 372 438 372 407 420 c 128,-1,23
 376 468 376 468 302 468 c 0,24,25
 251 468 251 468 212.5 443 c 128,-1,26
 174 418 174 418 151.5 378.5 c 128,-1,27
 129 339 129 339 122 295 c 1,28,-1
 427 295 l 1,21,22
461 671 m 1,29,-1
 204 596 l 1,30,-1
 196 637 l 1,31,-1
 450 732 l 1,32,-1
 461 671 l 1,29,-1
EndSplineSet
EndChar

StartChar: ecircumflex
Encoding: 234 234 171
Width: 555
GlyphClass: 2
Flags: W
AnchorPoint: "Anchor-5" -46 0 basechar 0
AnchorPoint: "Anchor-4" 231 0 basechar 0
AnchorPoint: "Anchor-3" 237 517 basechar 0
AnchorPoint: "Anchor-2" 338 20 basechar 0
LayerCount: 2
Fore
SplineSet
138 104 m 128,-1,1
 173 50 173 50 253 50 c 0,2,3
 356 50 356 50 401 134 c 1,4,-1
 466 121 l 1,5,6
 439 60 439 60 379.5 25 c 128,-1,7
 320 -10 320 -10 246 -10 c 0,8,9
 175 -10 175 -10 124.5 21.5 c 128,-1,10
 74 53 74 53 52 112.5 c 128,-1,11
 30 172 30 172 42 254 c 0,12,13
 60 380 60 380 131 453.5 c 128,-1,14
 202 527 202 527 311 527 c 0,15,16
 415 527 415 527 463.5 459.5 c 128,-1,17
 512 392 512 392 495 273 c 2,18,-1
 491 241 l 1,19,-1
 115 241 l 1,20,0
 103 158 103 158 138 104 c 128,-1,1
427 295 m 1,21,22
 438 372 438 372 407 420 c 128,-1,23
 376 468 376 468 302 468 c 0,24,25
 251 468 251 468 212.5 443 c 128,-1,26
 174 418 174 418 151.5 378.5 c 128,-1,27
 129 339 129 339 122 295 c 1,28,-1
 427 295 l 1,21,22
332 682 m 1,29,-1
 247 618 l 1,30,-1
 174 618 l 1,31,-1
 312 725 l 1,32,-1
 366 725 l 1,33,-1
 472 618 l 1,34,-1
 395 618 l 1,35,-1
 332 682 l 1,29,-1
EndSplineSet
EndChar

StartChar: edieresis
Encoding: 235 235 172
Width: 555
GlyphClass: 2
Flags: W
AnchorPoint: "Anchor-5" -46 0 basechar 0
AnchorPoint: "Anchor-4" 231 0 basechar 0
AnchorPoint: "Anchor-3" 237 517 basechar 0
AnchorPoint: "Anchor-2" 338 20 basechar 0
LayerCount: 2
Fore
SplineSet
138 104 m 128,-1,1
 173 50 173 50 253 50 c 0,2,3
 356 50 356 50 401 134 c 1,4,-1
 466 121 l 1,5,6
 439 60 439 60 379.5 25 c 128,-1,7
 320 -10 320 -10 246 -10 c 0,8,9
 175 -10 175 -10 124.5 21.5 c 128,-1,10
 74 53 74 53 52 112.5 c 128,-1,11
 30 172 30 172 42 254 c 0,12,13
 60 380 60 380 131 453.5 c 128,-1,14
 202 527 202 527 311 527 c 0,15,16
 415 527 415 527 463.5 459.5 c 128,-1,17
 512 392 512 392 495 273 c 2,18,-1
 491 241 l 1,19,-1
 115 241 l 1,20,0
 103 158 103 158 138 104 c 128,-1,1
427 295 m 1,21,22
 438 372 438 372 407 420 c 128,-1,23
 376 468 376 468 302 468 c 0,24,25
 251 468 251 468 212.5 443 c 128,-1,26
 174 418 174 418 151.5 378.5 c 128,-1,27
 129 339 129 339 122 295 c 1,28,-1
 427 295 l 1,21,22
292 618 m 1,29,-1
 219 618 l 1,30,-1
 234 723 l 1,31,-1
 307 723 l 1,32,-1
 292 618 l 1,29,-1
429 618 m 1,33,-1
 354 618 l 1,34,-1
 369 723 l 1,35,-1
 444 723 l 1,36,-1
 429 618 l 1,33,-1
EndSplineSet
EndChar

StartChar: igrave
Encoding: 236 236 173
Width: 238
GlyphClass: 2
Flags: W
AnchorPoint: "Anchor-5" -46 0 basechar 0
AnchorPoint: "Anchor-4" -46 0 basechar 0
AnchorPoint: "Anchor-3" 74 517 basechar 0
AnchorPoint: "Anchor-2" 97 12 basechar 0
LayerCount: 2
Fore
SplineSet
110 0 m 1,0,-1
 37 0 l 1,1,-1
 110 517 l 1,2,-1
 183 517 l 1,3,-1
 110 0 l 1,0,-1
280 637 m 1,4,-1
 261 596 l 1,5,-1
 23 671 l 1,6,-1
 53 732 l 1,7,-1
 280 637 l 1,4,-1
EndSplineSet
EndChar

StartChar: iacute
Encoding: 237 237 174
Width: 238
GlyphClass: 2
Flags: W
AnchorPoint: "Anchor-5" -46 0 basechar 0
AnchorPoint: "Anchor-4" -46 0 basechar 0
AnchorPoint: "Anchor-3" 74 517 basechar 0
AnchorPoint: "Anchor-2" 97 12 basechar 0
LayerCount: 2
Fore
SplineSet
110 0 m 1,0,-1
 37 0 l 1,1,-1
 110 517 l 1,2,-1
 183 517 l 1,3,-1
 110 0 l 1,0,-1
298 671 m 1,4,-1
 41 596 l 1,5,-1
 33 637 l 1,6,-1
 287 732 l 1,7,-1
 298 671 l 1,4,-1
EndSplineSet
EndChar

StartChar: icircumflex
Encoding: 238 238 175
Width: 238
GlyphClass: 2
Flags: W
AnchorPoint: "Anchor-5" -46 0 basechar 0
AnchorPoint: "Anchor-4" -46 0 basechar 0
AnchorPoint: "Anchor-3" 74 517 basechar 0
AnchorPoint: "Anchor-2" 97 12 basechar 0
LayerCount: 2
Fore
SplineSet
110 0 m 1,0,-1
 37 0 l 1,1,-1
 110 517 l 1,2,-1
 183 517 l 1,3,-1
 110 0 l 1,0,-1
169 682 m 1,4,-1
 84 618 l 1,5,-1
 11 618 l 1,6,-1
 149 725 l 1,7,-1
 203 725 l 1,8,-1
 309 618 l 1,9,-1
 232 618 l 1,10,-1
 169 682 l 1,4,-1
EndSplineSet
EndChar

StartChar: idieresis
Encoding: 239 239 176
Width: 238
GlyphClass: 2
Flags: W
AnchorPoint: "Anchor-5" -46 0 basechar 0
AnchorPoint: "Anchor-4" -46 0 basechar 0
AnchorPoint: "Anchor-3" 74 517 basechar 0
AnchorPoint: "Anchor-2" 97 12 basechar 0
LayerCount: 2
Fore
SplineSet
110 0 m 1,0,-1
 37 0 l 1,1,-1
 110 517 l 1,2,-1
 183 517 l 1,3,-1
 110 0 l 1,0,-1
129 618 m 1,4,-1
 56 618 l 1,5,-1
 71 723 l 1,6,-1
 144 723 l 1,7,-1
 129 618 l 1,4,-1
266 618 m 1,8,-1
 191 618 l 1,9,-1
 206 723 l 1,10,-1
 281 723 l 1,11,-1
 266 618 l 1,8,-1
EndSplineSet
EndChar

StartChar: eth
Encoding: 240 240 177
Width: 595
GlyphClass: 2
Flags: W
LayerCount: 2
Fore
SplineSet
482 117 m 128,-1,1
 444 57 444 57 383.5 23.5 c 128,-1,2
 323 -10 323 -10 248 -10 c 0,3,4
 177 -10 177 -10 126 23 c 128,-1,5
 75 56 75 56 52.5 114 c 128,-1,6
 30 172 30 172 41 246 c 0,7,8
 52 321 52 321 90.5 380.5 c 128,-1,9
 129 440 129 440 188 473.5 c 128,-1,10
 247 507 247 507 315 507 c 0,11,12
 397 507 397 507 439 456 c 1,13,14
 409 552 409 552 320 620 c 1,15,-1
 150 531 l 1,16,-1
 133 566 l 1,17,-1
 285 644 l 1,18,19
 241 672 241 672 177 697 c 1,20,-1
 232 734 l 1,21,22
 290 713 290 713 348 678 c 1,23,-1
 459 735 l 1,24,-1
 473 699 l 1,25,-1
 384 652 l 1,26,27
 567 513 567 513 531 255 c 0,28,0
 520 177 520 177 482 117 c 128,-1,1
349 72 m 128,-1,30
 391 98 391 98 419 144.5 c 128,-1,31
 447 191 447 191 455 248 c 0,32,33
 463 306 463 306 448 352.5 c 128,-1,34
 433 399 433 399 398.5 425.5 c 128,-1,35
 364 452 364 452 316 452 c 0,36,37
 267 452 267 452 224 425.5 c 128,-1,38
 181 399 181 399 152.5 352.5 c 128,-1,39
 124 306 124 306 116 248 c 0,40,41
 108 191 108 191 123.5 144.5 c 128,-1,42
 139 98 139 98 174 72 c 128,-1,43
 209 46 209 46 258 46 c 128,-1,29
 307 46 307 46 349 72 c 128,-1,30
EndSplineSet
EndChar

StartChar: ntilde
Encoding: 241 241 178
Width: 583
GlyphClass: 2
Flags: W
AnchorPoint: "Anchor-5" -46 0 basechar 0
AnchorPoint: "Anchor-4" 246 0 basechar 0
AnchorPoint: "Anchor-3" 254 517 basechar 0
AnchorPoint: "Anchor-2" -46 0 basechar 0
LayerCount: 2
Fore
SplineSet
110 517 m 1,0,-1
 180 517 l 1,1,-1
 169 443 l 1,2,3
 196 480 196 480 242 502.5 c 128,-1,4
 288 525 288 525 347 525 c 0,5,6
 426 525 426 525 470 476.5 c 128,-1,7
 514 428 514 428 502 338 c 2,8,-1
 454 0 l 1,9,-1
 381 0 l 1,10,-1
 428 332 l 2,11,12
 437 395 437 395 408 429 c 128,-1,13
 379 463 379 463 322 463 c 0,14,15
 259 463 259 463 213 434.5 c 128,-1,16
 167 406 167 406 159 352 c 2,17,-1
 110 0 l 1,18,-1
 37 0 l 1,19,-1
 110 517 l 1,0,-1
407 642 m 0,20,21
 388 642 388 642 374 645.5 c 128,-1,22
 360 649 360 649 342 656 c 0,23,24
 310 668 310 668 290 668 c 0,25,26
 274 668 274 668 262.5 664 c 128,-1,27
 251 660 251 660 241.5 654.5 c 128,-1,28
 232 649 232 649 228 647 c 0,29,30
 224 644 224 644 221 644 c 128,-1,31
 218 644 218 644 217 652 c 2,32,-1
 211 676 l 2,33,34
 210 680 210 680 210 681 c 0,35,36
 210 683 210 683 216 688 c 0,37,38
 237 702 237 702 253.5 709.5 c 128,-1,39
 270 717 270 717 292 717 c 0,40,41
 308 717 308 717 322 713.5 c 128,-1,42
 336 710 336 710 356 703 c 0,43,44
 391 690 391 690 414 690 c 0,45,46
 430 690 430 690 442 694.5 c 128,-1,47
 454 699 454 699 472 708 c 0,48,49
 477 711 477 711 480 711 c 0,50,51
 484 711 484 711 486 704 c 2,52,-1
 491 676 l 2,53,54
 492 675 492 675 491 672 c 0,55,56
 490 668 490 668 482 664 c 0,57,58
 448 642 448 642 407 642 c 0,20,21
EndSplineSet
EndChar

StartChar: ograve
Encoding: 242 242 179
Width: 567
GlyphClass: 2
Flags: W
AnchorPoint: "Anchor-5" -46 0 basechar 0
AnchorPoint: "Anchor-4" 236 0 basechar 0
AnchorPoint: "Anchor-3" 239 517 basechar 0
AnchorPoint: "Anchor-2" 303 10 basechar 0
LayerCount: 2
Fore
SplineSet
76.5 62.5 m 128,-1,1
 25 135 25 135 42 255 c 0,2,3
 53 335 53 335 89.5 396.5 c 128,-1,4
 126 458 126 458 183.5 492.5 c 128,-1,5
 241 527 241 527 313 527 c 0,6,7
 384 527 384 527 431 492.5 c 128,-1,8
 478 458 478 458 497 397 c 128,-1,9
 516 336 516 336 505 257 c 128,-1,10
 494 178 494 178 458 117.5 c 128,-1,11
 422 57 422 57 365.5 23.5 c 128,-1,12
 309 -10 309 -10 237 -10 c 0,13,0
 128 -10 128 -10 76.5 62.5 c 128,-1,1
371 106.5 m 128,-1,15
 418 163 418 163 431 258 c 128,-1,16
 444 353 444 353 413 410 c 128,-1,17
 382 467 382 467 305 467 c 0,18,19
 227 467 227 467 178 409.5 c 128,-1,20
 129 352 129 352 116 258 c 0,21,22
 103 165 103 165 135.5 107.5 c 128,-1,23
 168 50 168 50 246 50 c 128,-1,14
 324 50 324 50 371 106.5 c 128,-1,15
445 637 m 1,24,-1
 426 596 l 1,25,-1
 188 671 l 1,26,-1
 218 732 l 1,27,-1
 445 637 l 1,24,-1
EndSplineSet
EndChar

StartChar: oacute
Encoding: 243 243 180
Width: 567
GlyphClass: 2
Flags: W
AnchorPoint: "Anchor-5" -46 0 basechar 0
AnchorPoint: "Anchor-4" 236 0 basechar 0
AnchorPoint: "Anchor-3" 239 517 basechar 0
AnchorPoint: "Anchor-2" 303 10 basechar 0
LayerCount: 2
Fore
SplineSet
76.5 62.5 m 128,-1,1
 25 135 25 135 42 255 c 0,2,3
 53 335 53 335 89.5 396.5 c 128,-1,4
 126 458 126 458 183.5 492.5 c 128,-1,5
 241 527 241 527 313 527 c 0,6,7
 384 527 384 527 431 492.5 c 128,-1,8
 478 458 478 458 497 397 c 128,-1,9
 516 336 516 336 505 257 c 128,-1,10
 494 178 494 178 458 117.5 c 128,-1,11
 422 57 422 57 365.5 23.5 c 128,-1,12
 309 -10 309 -10 237 -10 c 0,13,0
 128 -10 128 -10 76.5 62.5 c 128,-1,1
371 106.5 m 128,-1,15
 418 163 418 163 431 258 c 128,-1,16
 444 353 444 353 413 410 c 128,-1,17
 382 467 382 467 305 467 c 0,18,19
 227 467 227 467 178 409.5 c 128,-1,20
 129 352 129 352 116 258 c 0,21,22
 103 165 103 165 135.5 107.5 c 128,-1,23
 168 50 168 50 246 50 c 128,-1,14
 324 50 324 50 371 106.5 c 128,-1,15
463 671 m 1,24,-1
 206 596 l 1,25,-1
 198 637 l 1,26,-1
 452 732 l 1,27,-1
 463 671 l 1,24,-1
EndSplineSet
EndChar

StartChar: ocircumflex
Encoding: 244 244 181
Width: 567
GlyphClass: 2
Flags: W
AnchorPoint: "Anchor-5" -46 0 basechar 0
AnchorPoint: "Anchor-4" 236 0 basechar 0
AnchorPoint: "Anchor-3" 239 517 basechar 0
AnchorPoint: "Anchor-2" 303 10 basechar 0
LayerCount: 2
Fore
SplineSet
76.5 62.5 m 128,-1,1
 25 135 25 135 42 255 c 0,2,3
 53 335 53 335 89.5 396.5 c 128,-1,4
 126 458 126 458 183.5 492.5 c 128,-1,5
 241 527 241 527 313 527 c 0,6,7
 384 527 384 527 431 492.5 c 128,-1,8
 478 458 478 458 497 397 c 128,-1,9
 516 336 516 336 505 257 c 128,-1,10
 494 178 494 178 458 117.5 c 128,-1,11
 422 57 422 57 365.5 23.5 c 128,-1,12
 309 -10 309 -10 237 -10 c 0,13,0
 128 -10 128 -10 76.5 62.5 c 128,-1,1
371 106.5 m 128,-1,15
 418 163 418 163 431 258 c 128,-1,16
 444 353 444 353 413 410 c 128,-1,17
 382 467 382 467 305 467 c 0,18,19
 227 467 227 467 178 409.5 c 128,-1,20
 129 352 129 352 116 258 c 0,21,22
 103 165 103 165 135.5 107.5 c 128,-1,23
 168 50 168 50 246 50 c 128,-1,14
 324 50 324 50 371 106.5 c 128,-1,15
334 682 m 1,24,-1
 249 618 l 1,25,-1
 176 618 l 1,26,-1
 314 725 l 1,27,-1
 368 725 l 1,28,-1
 474 618 l 1,29,-1
 397 618 l 1,30,-1
 334 682 l 1,24,-1
EndSplineSet
EndChar

StartChar: otilde
Encoding: 245 245 182
Width: 567
GlyphClass: 2
Flags: W
AnchorPoint: "Anchor-5" -46 0 basechar 0
AnchorPoint: "Anchor-4" 236 0 basechar 0
AnchorPoint: "Anchor-3" 239 517 basechar 0
AnchorPoint: "Anchor-2" 303 10 basechar 0
LayerCount: 2
Fore
SplineSet
76.5 62.5 m 128,-1,1
 25 135 25 135 42 255 c 0,2,3
 53 335 53 335 89.5 396.5 c 128,-1,4
 126 458 126 458 183.5 492.5 c 128,-1,5
 241 527 241 527 313 527 c 0,6,7
 384 527 384 527 431 492.5 c 128,-1,8
 478 458 478 458 497 397 c 128,-1,9
 516 336 516 336 505 257 c 128,-1,10
 494 178 494 178 458 117.5 c 128,-1,11
 422 57 422 57 365.5 23.5 c 128,-1,12
 309 -10 309 -10 237 -10 c 0,13,0
 128 -10 128 -10 76.5 62.5 c 128,-1,1
371 106.5 m 128,-1,15
 418 163 418 163 431 258 c 128,-1,16
 444 353 444 353 413 410 c 128,-1,17
 382 467 382 467 305 467 c 0,18,19
 227 467 227 467 178 409.5 c 128,-1,20
 129 352 129 352 116 258 c 0,21,22
 103 165 103 165 135.5 107.5 c 128,-1,23
 168 50 168 50 246 50 c 128,-1,14
 324 50 324 50 371 106.5 c 128,-1,15
392 642 m 0,24,25
 373 642 373 642 359 645.5 c 128,-1,26
 345 649 345 649 327 656 c 0,27,28
 295 668 295 668 275 668 c 0,29,30
 259 668 259 668 247.5 664 c 128,-1,31
 236 660 236 660 226.5 654.5 c 128,-1,32
 217 649 217 649 213 647 c 0,33,34
 209 644 209 644 206 644 c 128,-1,35
 203 644 203 644 202 652 c 2,36,-1
 196 676 l 2,37,38
 195 680 195 680 195 681 c 0,39,40
 195 683 195 683 201 688 c 0,41,42
 222 702 222 702 238.5 709.5 c 128,-1,43
 255 717 255 717 277 717 c 0,44,45
 293 717 293 717 307 713.5 c 128,-1,46
 321 710 321 710 341 703 c 0,47,48
 376 690 376 690 399 690 c 0,49,50
 415 690 415 690 427 694.5 c 128,-1,51
 439 699 439 699 457 708 c 0,52,53
 462 711 462 711 465 711 c 0,54,55
 469 711 469 711 471 704 c 2,56,-1
 476 676 l 2,57,58
 477 675 477 675 476 672 c 0,59,60
 475 668 475 668 467 664 c 0,61,62
 433 642 433 642 392 642 c 0,24,25
EndSplineSet
EndChar

StartChar: odieresis
Encoding: 246 246 183
Width: 567
GlyphClass: 2
Flags: W
AnchorPoint: "Anchor-5" -46 0 basechar 0
AnchorPoint: "Anchor-4" 236 0 basechar 0
AnchorPoint: "Anchor-3" 239 517 basechar 0
AnchorPoint: "Anchor-2" 303 10 basechar 0
LayerCount: 2
Fore
SplineSet
76.5 62.5 m 128,-1,1
 25 135 25 135 42 255 c 0,2,3
 53 335 53 335 89.5 396.5 c 128,-1,4
 126 458 126 458 183.5 492.5 c 128,-1,5
 241 527 241 527 313 527 c 0,6,7
 384 527 384 527 431 492.5 c 128,-1,8
 478 458 478 458 497 397 c 128,-1,9
 516 336 516 336 505 257 c 128,-1,10
 494 178 494 178 458 117.5 c 128,-1,11
 422 57 422 57 365.5 23.5 c 128,-1,12
 309 -10 309 -10 237 -10 c 0,13,0
 128 -10 128 -10 76.5 62.5 c 128,-1,1
371 106.5 m 128,-1,15
 418 163 418 163 431 258 c 128,-1,16
 444 353 444 353 413 410 c 128,-1,17
 382 467 382 467 305 467 c 0,18,19
 227 467 227 467 178 409.5 c 128,-1,20
 129 352 129 352 116 258 c 0,21,22
 103 165 103 165 135.5 107.5 c 128,-1,23
 168 50 168 50 246 50 c 128,-1,14
 324 50 324 50 371 106.5 c 128,-1,15
294 618 m 1,24,-1
 221 618 l 1,25,-1
 236 723 l 1,26,-1
 309 723 l 1,27,-1
 294 618 l 1,24,-1
431 618 m 1,28,-1
 356 618 l 1,29,-1
 371 723 l 1,30,-1
 446 723 l 1,31,-1
 431 618 l 1,28,-1
EndSplineSet
EndChar

StartChar: divide
Encoding: 247 247 184
Width: 546
GlyphClass: 2
Flags: W
LayerCount: 2
Fore
SplineSet
346 482 m 1,0,-1
 243 482 l 1,1,-1
 257 582 l 1,2,-1
 360 582 l 1,3,-1
 346 482 l 1,0,-1
481 334 m 1,4,-1
 64 333 l 1,5,-1
 72 392 l 1,6,-1
 489 393 l 1,7,-1
 481 334 l 1,4,-1
299 146 m 1,8,-1
 196 146 l 1,9,-1
 209 245 l 1,10,-1
 312 245 l 1,11,-1
 299 146 l 1,8,-1
EndSplineSet
EndChar

StartChar: oslash
Encoding: 248 248 185
Width: 572
GlyphClass: 2
Flags: W
AnchorPoint: "Anchor-5" -46 0 basechar 0
AnchorPoint: "Anchor-4" 236 0 basechar 0
AnchorPoint: "Anchor-3" 239 517 basechar 0
AnchorPoint: "Anchor-2" 303 10 basechar 0
LayerCount: 2
Fore
SplineSet
491 413 m 1,0,1
 518 349 518 349 505 257 c 0,2,3
 494 178 494 178 458 117.5 c 128,-1,4
 422 57 422 57 365.5 23.5 c 128,-1,5
 309 -10 309 -10 237 -10 c 0,6,7
 184 -10 184 -10 144 8 c 128,-1,8
 104 26 104 26 78 60 c 1,9,-1
 2 -5 l 1,10,-1
 -26 30 l 1,11,-1
 56 100 l 1,12,13
 29 163 29 163 42 255 c 0,14,15
 53 335 53 335 89.5 396.5 c 128,-1,16
 126 458 126 458 183.5 492.5 c 128,-1,17
 241 527 241 527 313 527 c 0,18,19
 365 527 365 527 405 508 c 128,-1,20
 445 489 445 489 470 454 c 1,21,-1
 547 520 l 1,22,-1
 575 485 l 1,23,-1
 491 413 l 1,0,1
119 153 m 1,24,-1
 415 407 l 1,25,26
 382 467 382 467 305 467 c 0,27,28
 227 467 227 467 178 409.5 c 128,-1,29
 129 352 129 352 116 258 c 0,30,31
 108 196 108 196 119 153 c 1,24,-1
431 361 m 1,32,-1
 135 108 l 1,33,34
 169 50 169 50 246 50 c 0,35,36
 324 50 324 50 371 106.5 c 128,-1,37
 418 163 418 163 431 258 c 0,38,39
 440 316 440 316 431 361 c 1,32,-1
EndSplineSet
EndChar

StartChar: ugrave
Encoding: 249 249 186
Width: 583
GlyphClass: 2
Flags: W
AnchorPoint: "Anchor-5" -46 0 basechar 0
AnchorPoint: "Anchor-4" 244 0 basechar 0
AnchorPoint: "Anchor-3" 236 517 basechar 0
AnchorPoint: "Anchor-2" 440 11 basechar 0
LayerCount: 2
Fore
SplineSet
142.5 9 m 128,-1,1
 100 27 100 27 76 67 c 128,-1,2
 52 107 52 107 61 169 c 2,3,-1
 110 519 l 1,4,-1
 183 519 l 1,5,-1
 135 175 l 2,6,7
 126 110 126 110 162 80 c 128,-1,8
 198 50 198 50 249 50 c 0,9,10
 306 50 306 50 351.5 84.5 c 128,-1,11
 397 119 397 119 407 182 c 2,12,-1
 454 519 l 1,13,-1
 527 519 l 1,14,-1
 453 1 l 1,15,-1
 394 1 l 1,16,-1
 403 82 l 1,17,18
 382 46 382 46 332 18.5 c 128,-1,19
 282 -9 282 -9 232 -9 c 0,20,0
 185 -9 185 -9 142.5 9 c 128,-1,1
442 637 m 1,21,-1
 423 596 l 1,22,-1
 185 671 l 1,23,-1
 215 732 l 1,24,-1
 442 637 l 1,21,-1
EndSplineSet
EndChar

StartChar: uacute
Encoding: 250 250 187
Width: 583
GlyphClass: 2
Flags: W
AnchorPoint: "Anchor-5" -46 0 basechar 0
AnchorPoint: "Anchor-4" 244 0 basechar 0
AnchorPoint: "Anchor-3" 236 517 basechar 0
AnchorPoint: "Anchor-2" 440 11 basechar 0
LayerCount: 2
Fore
SplineSet
142.5 9 m 128,-1,1
 100 27 100 27 76 67 c 128,-1,2
 52 107 52 107 61 169 c 2,3,-1
 110 519 l 1,4,-1
 183 519 l 1,5,-1
 135 175 l 2,6,7
 126 110 126 110 162 80 c 128,-1,8
 198 50 198 50 249 50 c 0,9,10
 306 50 306 50 351.5 84.5 c 128,-1,11
 397 119 397 119 407 182 c 2,12,-1
 454 519 l 1,13,-1
 527 519 l 1,14,-1
 453 1 l 1,15,-1
 394 1 l 1,16,-1
 403 82 l 1,17,18
 382 46 382 46 332 18.5 c 128,-1,19
 282 -9 282 -9 232 -9 c 0,20,0
 185 -9 185 -9 142.5 9 c 128,-1,1
460 671 m 1,21,-1
 203 596 l 1,22,-1
 195 637 l 1,23,-1
 449 732 l 1,24,-1
 460 671 l 1,21,-1
EndSplineSet
EndChar

StartChar: ucircumflex
Encoding: 251 251 188
Width: 583
GlyphClass: 2
Flags: W
AnchorPoint: "Anchor-5" -46 0 basechar 0
AnchorPoint: "Anchor-4" 244 0 basechar 0
AnchorPoint: "Anchor-3" 236 517 basechar 0
AnchorPoint: "Anchor-2" 440 11 basechar 0
LayerCount: 2
Fore
SplineSet
142.5 9 m 128,-1,1
 100 27 100 27 76 67 c 128,-1,2
 52 107 52 107 61 169 c 2,3,-1
 110 519 l 1,4,-1
 183 519 l 1,5,-1
 135 175 l 2,6,7
 126 110 126 110 162 80 c 128,-1,8
 198 50 198 50 249 50 c 0,9,10
 306 50 306 50 351.5 84.5 c 128,-1,11
 397 119 397 119 407 182 c 2,12,-1
 454 519 l 1,13,-1
 527 519 l 1,14,-1
 453 1 l 1,15,-1
 394 1 l 1,16,-1
 403 82 l 1,17,18
 382 46 382 46 332 18.5 c 128,-1,19
 282 -9 282 -9 232 -9 c 0,20,0
 185 -9 185 -9 142.5 9 c 128,-1,1
331 682 m 1,21,-1
 246 618 l 1,22,-1
 173 618 l 1,23,-1
 311 725 l 1,24,-1
 365 725 l 1,25,-1
 471 618 l 1,26,-1
 394 618 l 1,27,-1
 331 682 l 1,21,-1
EndSplineSet
EndChar

StartChar: udieresis
Encoding: 252 252 189
Width: 583
GlyphClass: 2
Flags: W
AnchorPoint: "Anchor-5" -46 0 basechar 0
AnchorPoint: "Anchor-4" 244 0 basechar 0
AnchorPoint: "Anchor-3" 236 517 basechar 0
AnchorPoint: "Anchor-2" 440 11 basechar 0
LayerCount: 2
Fore
SplineSet
142.5 9 m 128,-1,1
 100 27 100 27 76 67 c 128,-1,2
 52 107 52 107 61 169 c 2,3,-1
 110 519 l 1,4,-1
 183 519 l 1,5,-1
 135 175 l 2,6,7
 126 110 126 110 162 80 c 128,-1,8
 198 50 198 50 249 50 c 0,9,10
 306 50 306 50 351.5 84.5 c 128,-1,11
 397 119 397 119 407 182 c 2,12,-1
 454 519 l 1,13,-1
 527 519 l 1,14,-1
 453 1 l 1,15,-1
 394 1 l 1,16,-1
 403 82 l 1,17,18
 382 46 382 46 332 18.5 c 128,-1,19
 282 -9 282 -9 232 -9 c 0,20,0
 185 -9 185 -9 142.5 9 c 128,-1,1
291 618 m 1,21,-1
 218 618 l 1,22,-1
 233 723 l 1,23,-1
 306 723 l 1,24,-1
 291 618 l 1,21,-1
428 618 m 1,25,-1
 353 618 l 1,26,-1
 368 723 l 1,27,-1
 443 723 l 1,28,-1
 428 618 l 1,25,-1
EndSplineSet
EndChar

StartChar: yacute
Encoding: 253 253 190
Width: 516
GlyphClass: 2
Flags: W
AnchorPoint: "Anchor-5" -46 0 basechar 0
AnchorPoint: "Anchor-4" -46 0 basechar 0
AnchorPoint: "Anchor-3" 219 517 basechar 0
AnchorPoint: "Anchor-2" -46 0 basechar 0
LayerCount: 2
Fore
SplineSet
8 -162.5 m 128,-1,1
 -8 -160 -8 -160 -15.5 -157.5 c 128,-1,2
 -23 -155 -23 -155 -24 -154 c 2,3,-1
 -17 -106 l 1,4,-1
 37 -107 l 2,5,6
 86 -108 86 -108 111 -91.5 c 128,-1,7
 136 -75 136 -75 151 -47 c 2,8,-1
 180 9 l 1,9,-1
 50 517 l 1,10,-1
 125 517 l 1,11,-1
 227 95 l 1,12,-1
 449 517 l 1,13,-1
 520 517 l 1,14,-1
 219 -52 l 2,15,16
 185 -114 185 -114 143.5 -139.5 c 128,-1,17
 102 -165 102 -165 49 -165 c 0,18,0
 24 -165 24 -165 8 -162.5 c 128,-1,1
443 671 m 1,19,-1
 186 596 l 1,20,-1
 178 637 l 1,21,-1
 432 732 l 1,22,-1
 443 671 l 1,19,-1
EndSplineSet
EndChar

StartChar: thorn
Encoding: 254 254 191
Width: 589
GlyphClass: 2
Flags: W
LayerCount: 2
Fore
SplineSet
170 444 m 2,0,1
 173 447 173 447 197 470.5 c 128,-1,2
 221 494 221 494 262 510.5 c 128,-1,3
 303 527 303 527 348 527 c 0,4,5
 410 527 410 527 455 497.5 c 128,-1,6
 500 468 500 468 519.5 409.5 c 128,-1,7
 539 351 539 351 527 266 c 128,-1,8
 515 181 515 181 478.5 118.5 c 128,-1,9
 442 56 442 56 386.5 23 c 128,-1,10
 331 -10 331 -10 263 -10 c 0,11,12
 183 -10 183 -10 129 39 c 0,13,14
 123 45 123 45 120 45 c 0,15,16
 116 45 116 45 115 33 c 2,17,-1
 87 -161 l 1,18,-1
 14 -161 l 1,19,-1
 139 723 l 1,20,-1
 210 723 l 1,21,-1
 170 444 l 2,0,1
183.5 62 m 128,-1,23
 214 45 214 45 252 45 c 0,24,25
 328 45 328 45 382.5 102 c 128,-1,26
 437 159 437 159 452 264 c 0,27,28
 467 368 467 368 428 420 c 128,-1,29
 389 472 389 472 318 472 c 0,30,31
 278 472 278 472 243 454 c 128,-1,32
 208 436 208 436 186 409 c 128,-1,33
 164 382 164 382 160 355 c 2,34,-1
 126 111 l 1,35,22
 153 79 153 79 183.5 62 c 128,-1,23
EndSplineSet
EndChar

StartChar: ydieresis
Encoding: 255 255 192
Width: 516
GlyphClass: 2
Flags: W
AnchorPoint: "Anchor-5" -46 0 basechar 0
AnchorPoint: "Anchor-4" -46 0 basechar 0
AnchorPoint: "Anchor-3" 219 517 basechar 0
AnchorPoint: "Anchor-2" -46 0 basechar 0
LayerCount: 2
Fore
SplineSet
8 -162.5 m 128,-1,1
 -8 -160 -8 -160 -15.5 -157.5 c 128,-1,2
 -23 -155 -23 -155 -24 -154 c 2,3,-1
 -17 -106 l 1,4,-1
 37 -107 l 2,5,6
 86 -108 86 -108 111 -91.5 c 128,-1,7
 136 -75 136 -75 151 -47 c 2,8,-1
 180 9 l 1,9,-1
 50 517 l 1,10,-1
 125 517 l 1,11,-1
 227 95 l 1,12,-1
 449 517 l 1,13,-1
 520 517 l 1,14,-1
 219 -52 l 2,15,16
 185 -114 185 -114 143.5 -139.5 c 128,-1,17
 102 -165 102 -165 49 -165 c 0,18,0
 24 -165 24 -165 8 -162.5 c 128,-1,1
274 618 m 1,19,-1
 201 618 l 1,20,-1
 216 723 l 1,21,-1
 289 723 l 1,22,-1
 274 618 l 1,19,-1
411 618 m 1,23,-1
 336 618 l 1,24,-1
 351 723 l 1,25,-1
 426 723 l 1,26,-1
 411 618 l 1,23,-1
EndSplineSet
EndChar

StartChar: Amacron
Encoding: 256 256 193
Width: 693
GlyphClass: 2
Flags: W
AnchorPoint: "Anchor-5" -46 0 basechar 0
AnchorPoint: "Anchor-4" -46 0 basechar 0
AnchorPoint: "Anchor-3" 304 723 basechar 0
AnchorPoint: "Anchor-2" 599 11 basechar 0
LayerCount: 2
Fore
SplineSet
360 723 m 1,0,-1
 446 723 l 1,1,-1
 606 0 l 1,2,-1
 531 0 l 1,3,-1
 484 209 l 1,4,-1
 176 209 l 1,5,-1
 70 0 l 1,6,-1
 -5 0 l 1,7,-1
 360 723 l 1,0,-1
473 279 m 1,8,-1
 392 650 l 1,9,-1
 206 279 l 1,10,-1
 473 279 l 1,8,-1
564 859 m 1,11,-1
 286 859 l 1,12,-1
 294 914 l 1,13,-1
 572 914 l 1,14,-1
 564 859 l 1,11,-1
EndSplineSet
EndChar

StartChar: amacron
Encoding: 257 257 194
Width: 556
GlyphClass: 2
Flags: W
AnchorPoint: "Anchor-5" -46 0 basechar 0
AnchorPoint: "Anchor-4" -46 0 basechar 0
AnchorPoint: "Anchor-3" 231 517 basechar 0
AnchorPoint: "Anchor-2" 417 13 basechar 0
LayerCount: 2
Fore
SplineSet
387 0 m 1,0,-1
 394 50 l 1,1,2
 352 18 352 18 314 4 c 128,-1,3
 276 -10 276 -10 233 -10 c 0,4,5
 165 -10 165 -10 118 23 c 128,-1,6
 71 56 71 56 51 118.5 c 128,-1,7
 31 181 31 181 43 266 c 128,-1,8
 55 351 55 351 92 409.5 c 128,-1,9
 129 468 129 468 182.5 497.5 c 128,-1,10
 236 527 236 527 298 527 c 0,11,12
 341 527 341 527 371.5 513.5 c 128,-1,13
 402 500 402 500 415.5 486.5 c 128,-1,14
 429 473 429 473 451 448 c 1,15,-1
 461 517 l 1,16,-1
 533 517 l 1,17,-1
 459 0 l 1,18,-1
 387 0 l 1,0,-1
406 137 m 1,19,-1
 434 335 l 2,20,21
 439 368 439 368 425 399.5 c 128,-1,22
 411 431 411 431 380.5 450.5 c 128,-1,23
 350 470 350 470 309 470 c 0,24,25
 240 470 240 470 186 417.5 c 128,-1,26
 132 365 132 365 118 264 c 0,27,28
 109 197 109 197 124 148 c 128,-1,29
 139 99 139 99 173 72.5 c 128,-1,30
 207 46 207 46 256 46 c 0,31,32
 331 46 331 46 406 137 c 1,19,-1
462 653 m 1,33,-1
 184 653 l 1,34,-1
 192 708 l 1,35,-1
 470 708 l 1,36,-1
 462 653 l 1,33,-1
EndSplineSet
EndChar

StartChar: Abreve
Encoding: 258 258 195
Width: 693
GlyphClass: 2
Flags: W
AnchorPoint: "Anchor-5" -46 0 basechar 0
AnchorPoint: "Anchor-4" -46 0 basechar 0
AnchorPoint: "Anchor-3" 304 723 basechar 0
AnchorPoint: "Anchor-2" 599 11 basechar 0
LayerCount: 2
Fore
SplineSet
360 723 m 1,0,-1
 446 723 l 1,1,-1
 606 0 l 1,2,-1
 531 0 l 1,3,-1
 484 209 l 1,4,-1
 176 209 l 1,5,-1
 70 0 l 1,6,-1
 -5 0 l 1,7,-1
 360 723 l 1,0,-1
473 279 m 1,8,-1
 392 650 l 1,9,-1
 206 279 l 1,10,-1
 473 279 l 1,8,-1
518.5 858.5 m 128,-1,12
 476 828 476 828 420 828 c 0,13,14
 363 828 363 828 331 857 c 128,-1,15
 299 886 299 886 294 929 c 1,16,-1
 353 929 l 1,17,18
 363 908 363 908 379 893 c 128,-1,19
 395 878 395 878 427 878 c 0,20,21
 455 878 455 878 478.5 893 c 128,-1,22
 502 908 502 908 517 929 c 1,23,-1
 579 929 l 1,24,11
 561 889 561 889 518.5 858.5 c 128,-1,12
EndSplineSet
EndChar

StartChar: abreve
Encoding: 259 259 196
Width: 556
GlyphClass: 2
Flags: W
AnchorPoint: "Anchor-5" -46 0 basechar 0
AnchorPoint: "Anchor-4" -46 0 basechar 0
AnchorPoint: "Anchor-3" 231 517 basechar 0
AnchorPoint: "Anchor-2" 417 13 basechar 0
LayerCount: 2
Fore
SplineSet
387 0 m 1,0,-1
 394 50 l 1,1,2
 352 18 352 18 314 4 c 128,-1,3
 276 -10 276 -10 233 -10 c 0,4,5
 165 -10 165 -10 118 23 c 128,-1,6
 71 56 71 56 51 118.5 c 128,-1,7
 31 181 31 181 43 266 c 128,-1,8
 55 351 55 351 92 409.5 c 128,-1,9
 129 468 129 468 182.5 497.5 c 128,-1,10
 236 527 236 527 298 527 c 0,11,12
 341 527 341 527 371.5 513.5 c 128,-1,13
 402 500 402 500 415.5 486.5 c 128,-1,14
 429 473 429 473 451 448 c 1,15,-1
 461 517 l 1,16,-1
 533 517 l 1,17,-1
 459 0 l 1,18,-1
 387 0 l 1,0,-1
406 137 m 1,19,-1
 434 335 l 2,20,21
 439 368 439 368 425 399.5 c 128,-1,22
 411 431 411 431 380.5 450.5 c 128,-1,23
 350 470 350 470 309 470 c 0,24,25
 240 470 240 470 186 417.5 c 128,-1,26
 132 365 132 365 118 264 c 0,27,28
 109 197 109 197 124 148 c 128,-1,29
 139 99 139 99 173 72.5 c 128,-1,30
 207 46 207 46 256 46 c 0,31,32
 331 46 331 46 406 137 c 1,19,-1
416.5 652.5 m 128,-1,34
 374 622 374 622 318 622 c 0,35,36
 261 622 261 622 229 651 c 128,-1,37
 197 680 197 680 192 723 c 1,38,-1
 251 723 l 1,39,40
 261 702 261 702 277 687 c 128,-1,41
 293 672 293 672 325 672 c 0,42,43
 353 672 353 672 376.5 687 c 128,-1,44
 400 702 400 702 415 723 c 1,45,-1
 477 723 l 1,46,33
 459 683 459 683 416.5 652.5 c 128,-1,34
EndSplineSet
EndChar

StartChar: Aogonek
Encoding: 260 260 197
Width: 693
GlyphClass: 2
Flags: W
AnchorPoint: "Anchor-5" -46 0 basechar 0
AnchorPoint: "Anchor-4" -46 0 basechar 0
AnchorPoint: "Anchor-3" 304 723 basechar 0
AnchorPoint: "Anchor-2" 599 11 basechar 0
LayerCount: 2
Fore
SplineSet
360 723 m 1,0,-1
 446 723 l 1,1,-1
 606 0 l 1,2,-1
 531 0 l 1,3,-1
 484 209 l 1,4,-1
 176 209 l 1,5,-1
 70 0 l 1,6,-1
 -5 0 l 1,7,-1
 360 723 l 1,0,-1
473 279 m 1,8,-1
 392 650 l 1,9,-1
 206 279 l 1,10,-1
 473 279 l 1,8,-1
467.5 -32.5 m 128,-1,12
 494 -9 494 -9 554 9 c 1,13,-1
 608 2 l 1,14,15
 553 -20 553 -20 528 -39.5 c 128,-1,16
 503 -59 503 -59 499 -84 c 0,17,18
 494 -122 494 -122 544 -122 c 0,19,20
 563 -122 563 -122 580 -118 c 128,-1,21
 597 -114 597 -114 608 -109 c 0,22,23
 612 -107 612 -107 614 -107 c 0,24,25
 618 -107 618 -107 617 -114 c 2,26,-1
 613 -140 l 2,27,28
 612 -147 612 -147 605 -150 c 0,29,30
 593 -156 593 -156 569.5 -161 c 128,-1,31
 546 -166 546 -166 521 -166 c 0,32,33
 474 -166 474 -166 453 -145 c 128,-1,34
 432 -124 432 -124 437 -88 c 0,35,11
 441 -56 441 -56 467.5 -32.5 c 128,-1,12
EndSplineSet
EndChar

StartChar: aogonek
Encoding: 261 261 198
Width: 556
GlyphClass: 2
Flags: W
AnchorPoint: "Anchor-5" -46 0 basechar 0
AnchorPoint: "Anchor-4" -46 0 basechar 0
AnchorPoint: "Anchor-3" 231 517 basechar 0
AnchorPoint: "Anchor-2" 417 13 basechar 0
LayerCount: 2
Fore
SplineSet
387 0 m 1,0,-1
 394 50 l 1,1,2
 352 18 352 18 314 4 c 128,-1,3
 276 -10 276 -10 233 -10 c 0,4,5
 165 -10 165 -10 118 23 c 128,-1,6
 71 56 71 56 51 118.5 c 128,-1,7
 31 181 31 181 43 266 c 128,-1,8
 55 351 55 351 92 409.5 c 128,-1,9
 129 468 129 468 182.5 497.5 c 128,-1,10
 236 527 236 527 298 527 c 0,11,12
 341 527 341 527 371.5 513.5 c 128,-1,13
 402 500 402 500 415.5 486.5 c 128,-1,14
 429 473 429 473 451 448 c 1,15,-1
 461 517 l 1,16,-1
 533 517 l 1,17,-1
 459 0 l 1,18,-1
 387 0 l 1,0,-1
406 137 m 1,19,-1
 434 335 l 2,20,21
 439 368 439 368 425 399.5 c 128,-1,22
 411 431 411 431 380.5 450.5 c 128,-1,23
 350 470 350 470 309 470 c 0,24,25
 240 470 240 470 186 417.5 c 128,-1,26
 132 365 132 365 118 264 c 0,27,28
 109 197 109 197 124 148 c 128,-1,29
 139 99 139 99 173 72.5 c 128,-1,30
 207 46 207 46 256 46 c 0,31,32
 331 46 331 46 406 137 c 1,19,-1
285.5 -30.5 m 128,-1,34
 312 -7 312 -7 372 11 c 1,35,-1
 426 4 l 1,36,37
 371 -18 371 -18 346 -37.5 c 128,-1,38
 321 -57 321 -57 317 -82 c 0,39,40
 312 -120 312 -120 362 -120 c 0,41,42
 381 -120 381 -120 398 -116 c 128,-1,43
 415 -112 415 -112 426 -107 c 0,44,45
 430 -105 430 -105 432 -105 c 0,46,47
 436 -105 436 -105 435 -112 c 2,48,-1
 431 -138 l 2,49,50
 430 -145 430 -145 423 -148 c 0,51,52
 411 -154 411 -154 387.5 -159 c 128,-1,53
 364 -164 364 -164 339 -164 c 0,54,55
 292 -164 292 -164 271 -143 c 128,-1,56
 250 -122 250 -122 255 -86 c 0,57,33
 259 -54 259 -54 285.5 -30.5 c 128,-1,34
EndSplineSet
EndChar

StartChar: Cacute
Encoding: 262 262 199
Width: 675
GlyphClass: 2
Flags: W
AnchorPoint: "Anchor-5" -46 0 basechar 0
AnchorPoint: "Anchor-4" 311 0 basechar 0
AnchorPoint: "Anchor-3" 311 723 basechar 0
AnchorPoint: "Anchor-2" -46 0 basechar 0
LayerCount: 2
Fore
SplineSet
537 704.5 m 128,-1,1
 592 676 592 676 620 627.5 c 128,-1,2
 648 579 648 579 647 521 c 1,3,-1
 569 516 l 1,4,5
 566 585 566 585 522.5 626 c 128,-1,6
 479 667 479 667 399 667 c 0,7,8
 293 667 293 667 227.5 590 c 128,-1,9
 162 513 162 513 141 361 c 0,10,11
 120 211 120 211 164.5 133.5 c 128,-1,12
 209 56 209 56 319 56 c 0,13,14
 388 56 388 56 443 95.5 c 128,-1,15
 498 135 498 135 523 203 c 1,16,-1
 598 194 l 1,17,18
 583 137 583 137 542 90.5 c 128,-1,19
 501 44 501 44 440.5 17 c 128,-1,20
 380 -10 380 -10 310 -10 c 0,21,22
 166 -10 166 -10 100.5 88.5 c 128,-1,23
 35 187 35 187 60 362 c 128,-1,24
 85 537 85 537 176 635 c 128,-1,25
 267 733 267 733 408 733 c 0,26,0
 482 733 482 733 537 704.5 c 128,-1,1
564 877 m 1,27,-1
 307 802 l 1,28,-1
 299 843 l 1,29,-1
 553 938 l 1,30,-1
 564 877 l 1,27,-1
EndSplineSet
EndChar

StartChar: cacute
Encoding: 263 263 200
Width: 537
GlyphClass: 2
Flags: W
AnchorPoint: "Anchor-5" -46 0 basechar 0
AnchorPoint: "Anchor-4" 239 0 basechar 0
AnchorPoint: "Anchor-3" 237 517 basechar 0
AnchorPoint: "Anchor-2" -46 0 basechar 0
LayerCount: 2
Fore
SplineSet
488 391 m 1,0,-1
 426 375 l 1,1,2
 396 426 396 426 372 446 c 128,-1,3
 348 466 348 466 307 466 c 0,4,5
 231 466 231 466 179 409.5 c 128,-1,6
 127 353 127 353 113 258 c 0,7,8
 100 162 100 162 136.5 105 c 128,-1,9
 173 48 173 48 249 48 c 0,10,11
 296 48 296 48 330.5 72.5 c 128,-1,12
 365 97 365 97 401 147 c 1,13,-1
 457 130 l 1,14,15
 419 63 419 63 363.5 26.5 c 128,-1,16
 308 -10 308 -10 237 -10 c 0,17,18
 167 -10 167 -10 119 23.5 c 128,-1,19
 71 57 71 57 51 117 c 128,-1,20
 31 177 31 177 42 256 c 128,-1,21
 53 335 53 335 90 396.5 c 128,-1,22
 127 458 127 458 184.5 492.5 c 128,-1,23
 242 527 242 527 312 527 c 0,24,25
 445 527 445 527 488 391 c 1,0,-1
461 671 m 1,26,-1
 204 596 l 1,27,-1
 196 637 l 1,28,-1
 450 732 l 1,29,-1
 461 671 l 1,26,-1
EndSplineSet
EndChar

StartChar: Ccircumflex
Encoding: 264 264 201
Width: 675
GlyphClass: 2
Flags: W
AnchorPoint: "Anchor-5" -46 0 basechar 0
AnchorPoint: "Anchor-4" 311 0 basechar 0
AnchorPoint: "Anchor-3" 311 723 basechar 0
AnchorPoint: "Anchor-2" -46 0 basechar 0
LayerCount: 2
Fore
SplineSet
537 704.5 m 128,-1,1
 592 676 592 676 620 627.5 c 128,-1,2
 648 579 648 579 647 521 c 1,3,-1
 569 516 l 1,4,5
 566 585 566 585 522.5 626 c 128,-1,6
 479 667 479 667 399 667 c 0,7,8
 293 667 293 667 227.5 590 c 128,-1,9
 162 513 162 513 141 361 c 0,10,11
 120 211 120 211 164.5 133.5 c 128,-1,12
 209 56 209 56 319 56 c 0,13,14
 388 56 388 56 443 95.5 c 128,-1,15
 498 135 498 135 523 203 c 1,16,-1
 598 194 l 1,17,18
 583 137 583 137 542 90.5 c 128,-1,19
 501 44 501 44 440.5 17 c 128,-1,20
 380 -10 380 -10 310 -10 c 0,21,22
 166 -10 166 -10 100.5 88.5 c 128,-1,23
 35 187 35 187 60 362 c 128,-1,24
 85 537 85 537 176 635 c 128,-1,25
 267 733 267 733 408 733 c 0,26,0
 482 733 482 733 537 704.5 c 128,-1,1
435 888 m 1,27,-1
 350 824 l 1,28,-1
 277 824 l 1,29,-1
 415 931 l 1,30,-1
 469 931 l 1,31,-1
 575 824 l 1,32,-1
 498 824 l 1,33,-1
 435 888 l 1,27,-1
EndSplineSet
EndChar

StartChar: ccircumflex
Encoding: 265 265 202
Width: 537
GlyphClass: 2
Flags: W
AnchorPoint: "Anchor-5" -46 0 basechar 0
AnchorPoint: "Anchor-4" 239 0 basechar 0
AnchorPoint: "Anchor-3" 237 517 basechar 0
AnchorPoint: "Anchor-2" -46 0 basechar 0
LayerCount: 2
Fore
SplineSet
488 391 m 1,0,-1
 426 375 l 1,1,2
 396 426 396 426 372 446 c 128,-1,3
 348 466 348 466 307 466 c 0,4,5
 231 466 231 466 179 409.5 c 128,-1,6
 127 353 127 353 113 258 c 0,7,8
 100 162 100 162 136.5 105 c 128,-1,9
 173 48 173 48 249 48 c 0,10,11
 296 48 296 48 330.5 72.5 c 128,-1,12
 365 97 365 97 401 147 c 1,13,-1
 457 130 l 1,14,15
 419 63 419 63 363.5 26.5 c 128,-1,16
 308 -10 308 -10 237 -10 c 0,17,18
 167 -10 167 -10 119 23.5 c 128,-1,19
 71 57 71 57 51 117 c 128,-1,20
 31 177 31 177 42 256 c 128,-1,21
 53 335 53 335 90 396.5 c 128,-1,22
 127 458 127 458 184.5 492.5 c 128,-1,23
 242 527 242 527 312 527 c 0,24,25
 445 527 445 527 488 391 c 1,0,-1
332 682 m 1,26,-1
 247 618 l 1,27,-1
 174 618 l 1,28,-1
 312 725 l 1,29,-1
 366 725 l 1,30,-1
 472 618 l 1,31,-1
 395 618 l 1,32,-1
 332 682 l 1,26,-1
EndSplineSet
EndChar

StartChar: Cdotaccent
Encoding: 266 266 203
Width: 675
GlyphClass: 2
Flags: W
AnchorPoint: "Anchor-5" -46 0 basechar 0
AnchorPoint: "Anchor-4" 311 0 basechar 0
AnchorPoint: "Anchor-3" 311 723 basechar 0
AnchorPoint: "Anchor-2" -46 0 basechar 0
LayerCount: 2
Fore
SplineSet
537 704.5 m 128,-1,1
 592 676 592 676 620 627.5 c 128,-1,2
 648 579 648 579 647 521 c 1,3,-1
 569 516 l 1,4,5
 566 585 566 585 522.5 626 c 128,-1,6
 479 667 479 667 399 667 c 0,7,8
 293 667 293 667 227.5 590 c 128,-1,9
 162 513 162 513 141 361 c 0,10,11
 120 211 120 211 164.5 133.5 c 128,-1,12
 209 56 209 56 319 56 c 0,13,14
 388 56 388 56 443 95.5 c 128,-1,15
 498 135 498 135 523 203 c 1,16,-1
 598 194 l 1,17,18
 583 137 583 137 542 90.5 c 128,-1,19
 501 44 501 44 440.5 17 c 128,-1,20
 380 -10 380 -10 310 -10 c 0,21,22
 166 -10 166 -10 100.5 88.5 c 128,-1,23
 35 187 35 187 60 362 c 128,-1,24
 85 537 85 537 176 635 c 128,-1,25
 267 733 267 733 408 733 c 0,26,0
 482 733 482 733 537 704.5 c 128,-1,1
467 819 m 1,27,-1
 387 819 l 1,28,-1
 403 929 l 1,29,-1
 483 929 l 1,30,-1
 467 819 l 1,27,-1
EndSplineSet
EndChar

StartChar: cdotaccent
Encoding: 267 267 204
Width: 537
GlyphClass: 2
Flags: W
AnchorPoint: "Anchor-5" -46 0 basechar 0
AnchorPoint: "Anchor-4" 239 0 basechar 0
AnchorPoint: "Anchor-3" 237 517 basechar 0
AnchorPoint: "Anchor-2" -46 0 basechar 0
LayerCount: 2
Fore
SplineSet
488 391 m 1,0,-1
 426 375 l 1,1,2
 396 426 396 426 372 446 c 128,-1,3
 348 466 348 466 307 466 c 0,4,5
 231 466 231 466 179 409.5 c 128,-1,6
 127 353 127 353 113 258 c 0,7,8
 100 162 100 162 136.5 105 c 128,-1,9
 173 48 173 48 249 48 c 0,10,11
 296 48 296 48 330.5 72.5 c 128,-1,12
 365 97 365 97 401 147 c 1,13,-1
 457 130 l 1,14,15
 419 63 419 63 363.5 26.5 c 128,-1,16
 308 -10 308 -10 237 -10 c 0,17,18
 167 -10 167 -10 119 23.5 c 128,-1,19
 71 57 71 57 51 117 c 128,-1,20
 31 177 31 177 42 256 c 128,-1,21
 53 335 53 335 90 396.5 c 128,-1,22
 127 458 127 458 184.5 492.5 c 128,-1,23
 242 527 242 527 312 527 c 0,24,25
 445 527 445 527 488 391 c 1,0,-1
364 613 m 1,26,-1
 284 613 l 1,27,-1
 300 723 l 1,28,-1
 380 723 l 1,29,-1
 364 613 l 1,26,-1
EndSplineSet
EndChar

StartChar: Ccaron
Encoding: 268 268 205
Width: 675
GlyphClass: 2
Flags: W
AnchorPoint: "Anchor-5" -46 0 basechar 0
AnchorPoint: "Anchor-4" 311 0 basechar 0
AnchorPoint: "Anchor-3" 311 723 basechar 0
AnchorPoint: "Anchor-2" -46 0 basechar 0
LayerCount: 2
Fore
SplineSet
537 704.5 m 128,-1,1
 592 676 592 676 620 627.5 c 128,-1,2
 648 579 648 579 647 521 c 1,3,-1
 569 516 l 1,4,5
 566 585 566 585 522.5 626 c 128,-1,6
 479 667 479 667 399 667 c 0,7,8
 293 667 293 667 227.5 590 c 128,-1,9
 162 513 162 513 141 361 c 0,10,11
 120 211 120 211 164.5 133.5 c 128,-1,12
 209 56 209 56 319 56 c 0,13,14
 388 56 388 56 443 95.5 c 128,-1,15
 498 135 498 135 523 203 c 1,16,-1
 598 194 l 1,17,18
 583 137 583 137 542 90.5 c 128,-1,19
 501 44 501 44 440.5 17 c 128,-1,20
 380 -10 380 -10 310 -10 c 0,21,22
 166 -10 166 -10 100.5 88.5 c 128,-1,23
 35 187 35 187 60 362 c 128,-1,24
 85 537 85 537 176 635 c 128,-1,25
 267 733 267 733 408 733 c 0,26,0
 482 733 482 733 537 704.5 c 128,-1,1
590 929 m 1,27,-1
 453 821 l 1,28,-1
 399 821 l 1,29,-1
 292 929 l 1,30,-1
 365 929 l 1,31,-1
 431 864 l 1,32,-1
 513 929 l 1,33,-1
 590 929 l 1,27,-1
EndSplineSet
EndChar

StartChar: ccaron
Encoding: 269 269 206
Width: 537
GlyphClass: 2
Flags: W
AnchorPoint: "Anchor-5" -46 0 basechar 0
AnchorPoint: "Anchor-4" 239 0 basechar 0
AnchorPoint: "Anchor-3" 237 517 basechar 0
AnchorPoint: "Anchor-2" -46 0 basechar 0
LayerCount: 2
Fore
SplineSet
488 391 m 1,0,-1
 426 375 l 1,1,2
 396 426 396 426 372 446 c 128,-1,3
 348 466 348 466 307 466 c 0,4,5
 231 466 231 466 179 409.5 c 128,-1,6
 127 353 127 353 113 258 c 0,7,8
 100 162 100 162 136.5 105 c 128,-1,9
 173 48 173 48 249 48 c 0,10,11
 296 48 296 48 330.5 72.5 c 128,-1,12
 365 97 365 97 401 147 c 1,13,-1
 457 130 l 1,14,15
 419 63 419 63 363.5 26.5 c 128,-1,16
 308 -10 308 -10 237 -10 c 0,17,18
 167 -10 167 -10 119 23.5 c 128,-1,19
 71 57 71 57 51 117 c 128,-1,20
 31 177 31 177 42 256 c 128,-1,21
 53 335 53 335 90 396.5 c 128,-1,22
 127 458 127 458 184.5 492.5 c 128,-1,23
 242 527 242 527 312 527 c 0,24,25
 445 527 445 527 488 391 c 1,0,-1
487 723 m 1,26,-1
 350 615 l 1,27,-1
 296 615 l 1,28,-1
 189 723 l 1,29,-1
 262 723 l 1,30,-1
 328 658 l 1,31,-1
 410 723 l 1,32,-1
 487 723 l 1,26,-1
EndSplineSet
EndChar

StartChar: Dcaron
Encoding: 270 270 207
Width: 680
GlyphClass: 2
Flags: W
AnchorPoint: "Anchor-5" -46 0 basechar 0
AnchorPoint: "Anchor-4" -46 0 basechar 0
AnchorPoint: "Anchor-3" 287 723 basechar 0
AnchorPoint: "Anchor-2" -46 0 basechar 0
LayerCount: 2
Fore
SplineSet
304 722 m 2,0,1
 501 720 501 720 578.5 632 c 128,-1,2
 656 544 656 544 631 366 c 0,3,4
 605 181 605 181 497 90.5 c 128,-1,5
 389 0 389 0 192 0 c 2,6,-1
 53 0 l 1,7,-1
 155 723 l 1,8,-1
 304 722 l 2,0,1
138 66 m 1,9,-1
 200 66 l 2,10,11
 355 66 355 66 443 135.5 c 128,-1,12
 531 205 531 205 553 364 c 0,13,14
 576 525 576 525 508.5 591.5 c 128,-1,15
 441 658 441 658 288 658 c 2,16,-1
 221 658 l 1,17,-1
 138 66 l 1,9,-1
566 929 m 1,18,-1
 429 821 l 1,19,-1
 375 821 l 1,20,-1
 268 929 l 1,21,-1
 341 929 l 1,22,-1
 407 864 l 1,23,-1
 489 929 l 1,24,-1
 566 929 l 1,18,-1
EndSplineSet
EndChar

StartChar: dcaron
Encoding: 271 271 208
Width: 579
GlyphClass: 2
Flags: W
AnchorPoint: "Anchor-5" 550 678 basechar 0
AnchorPoint: "Anchor-4" 241 0 basechar 0
AnchorPoint: "Anchor-3" -46 0 basechar 0
AnchorPoint: "Anchor-2" -46 0 basechar 0
LayerCount: 2
Fore
SplineSet
71.5 58 m 128,-1,1
 24 126 24 126 41 252 c 0,2,3
 59 377 59 377 127 452 c 128,-1,4
 195 527 195 527 298 527 c 0,5,6
 342 527 342 527 377 511 c 128,-1,7
 412 495 412 495 442 462 c 1,8,-1
 481 743 l 1,9,-1
 555 743 l 1,10,-1
 451 0 l 1,11,-1
 392 0 l 1,12,-1
 399 75 l 1,13,14
 320 -10 320 -10 218 -10 c 0,15,0
 119 -10 119 -10 71.5 58 c 128,-1,1
315.5 68.5 m 128,-1,17
 351 88 351 88 374.5 119 c 128,-1,18
 398 150 398 150 403 182 c 2,19,-1
 431 386 l 1,20,21
 388 467 388 467 305 467 c 0,22,23
 230 467 230 467 179.5 412.5 c 128,-1,24
 129 358 129 358 115 255 c 128,-1,25
 101 152 101 152 136 100.5 c 128,-1,26
 171 49 171 49 240 49 c 0,27,16
 280 49 280 49 315.5 68.5 c 128,-1,17
551 495.5 m 128,-1,29
 549 498 549 498 551 501 c 2,30,-1
 591 571 l 2,31,32
 594 577 594 577 593 579.5 c 128,-1,33
 592 582 592 582 588 583 c 2,34,-1
 581 584 l 2,35,36
 575 585 575 585 573.5 586.5 c 128,-1,37
 572 588 572 588 573 593 c 2,38,-1
 583 670 l 2,39,40
 584 678 584 678 593 678 c 2,41,-1
 646 678 l 2,42,43
 653 678 653 678 652 671 c 2,44,-1
 639 584 l 2,45,46
 639 582 639 582 638.5 581 c 128,-1,47
 638 580 638 580 638 579 c 2,48,-1
 594 501 l 2,49,50
 591 496 591 496 587 494.5 c 128,-1,51
 583 493 583 493 576 493 c 2,52,-1
 556 493 l 2,53,28
 553 493 553 493 551 495.5 c 128,-1,29
EndSplineSet
EndChar

StartChar: Dcroat
Encoding: 272 272 209
Width: 685
GlyphClass: 2
Flags: W
AnchorPoint: "Anchor-5" -46 0 basechar 0
AnchorPoint: "Anchor-4" -46 0 basechar 0
AnchorPoint: "Anchor-3" 293 723 basechar 0
AnchorPoint: "Anchor-2" -46 0 basechar 0
LayerCount: 2
Fore
SplineSet
584.5 632 m 128,-1,1
 662 544 662 544 637 366 c 0,2,3
 611 181 611 181 503 90.5 c 128,-1,4
 395 0 395 0 198 0 c 2,5,-1
 59 0 l 1,6,-1
 106 331 l 1,7,-1
 48 331 l 2,8,9
 40 331 40 331 37 334 c 128,-1,10
 34 337 34 337 35 344 c 2,11,-1
 41 381 l 2,12,13
 43 393 43 393 52 393 c 2,14,-1
 114 393 l 1,15,-1
 161 723 l 1,16,-1
 310 722 l 2,17,0
 507 720 507 720 584.5 632 c 128,-1,1
449 135.5 m 128,-1,19
 537 205 537 205 559 364 c 0,20,21
 582 525 582 525 514.5 591.5 c 128,-1,22
 447 658 447 658 294 658 c 2,23,-1
 227 658 l 1,24,-1
 190 393 l 1,25,-1
 354 393 l 2,26,27
 363 393 363 393 362 383 c 2,28,-1
 357 346 l 2,29,30
 356 338 356 338 351.5 334.5 c 128,-1,31
 347 331 347 331 338 331 c 2,32,-1
 182 331 l 1,33,-1
 144 66 l 1,34,-1
 206 66 l 2,35,18
 361 66 361 66 449 135.5 c 128,-1,19
EndSplineSet
EndChar

StartChar: dcroat
Encoding: 273 273 210
Width: 596
GlyphClass: 2
Flags: W
AnchorPoint: "Anchor-5" 550 678 basechar 0
AnchorPoint: "Anchor-4" 241 0 basechar 0
AnchorPoint: "Anchor-3" -46 0 basechar 0
AnchorPoint: "Anchor-2" -46 0 basechar 0
LayerCount: 2
Fore
SplineSet
608 601 m 1,0,-1
 535 601 l 1,1,-1
 451 0 l 1,2,-1
 392 0 l 1,3,-1
 399 75 l 1,4,5
 320 -10 320 -10 218 -10 c 0,6,7
 119 -10 119 -10 71.5 58 c 128,-1,8
 24 126 24 126 41 252 c 0,9,10
 59 377 59 377 127 452 c 128,-1,11
 195 527 195 527 298 527 c 0,12,13
 342 527 342 527 377 511 c 128,-1,14
 412 495 412 495 442 462 c 1,15,-1
 461 601 l 1,16,-1
 309 601 l 1,17,-1
 316 650 l 1,18,-1
 468 650 l 1,19,-1
 481 743 l 1,20,-1
 555 743 l 1,21,-1
 542 650 l 1,22,-1
 615 650 l 1,23,-1
 608 601 l 1,0,-1
431 386 m 1,24,25
 388 467 388 467 305 467 c 0,26,27
 230 467 230 467 179.5 412.5 c 128,-1,28
 129 358 129 358 115 255 c 128,-1,29
 101 152 101 152 136 100.5 c 128,-1,30
 171 49 171 49 240 49 c 0,31,32
 280 49 280 49 315.5 68.5 c 128,-1,33
 351 88 351 88 374.5 119 c 128,-1,34
 398 150 398 150 403 182 c 2,35,-1
 431 386 l 1,24,25
EndSplineSet
EndChar

StartChar: Emacron
Encoding: 274 274 211
Width: 617
GlyphClass: 2
Flags: W
AnchorPoint: "Anchor-5" -46 0 basechar 0
AnchorPoint: "Anchor-4" 299 0 basechar 0
AnchorPoint: "Anchor-3" 284 723 basechar 0
AnchorPoint: "Anchor-2" 498 10 basechar 0
LayerCount: 2
Fore
SplineSet
155 723 m 1,0,-1
 596 723 l 1,1,-1
 585 657 l 1,2,-1
 218 657 l 1,3,-1
 182 398 l 1,4,-1
 517 398 l 1,5,-1
 508 332 l 1,6,-1
 173 332 l 1,7,-1
 136 68 l 1,8,-1
 514 67 l 1,9,-1
 505 0 l 1,10,-1
 53 0 l 1,11,-1
 155 723 l 1,0,-1
544 859 m 1,12,-1
 266 859 l 1,13,-1
 274 914 l 1,14,-1
 552 914 l 1,15,-1
 544 859 l 1,12,-1
EndSplineSet
EndChar

StartChar: emacron
Encoding: 275 275 212
Width: 555
GlyphClass: 2
Flags: W
AnchorPoint: "Anchor-5" -46 0 basechar 0
AnchorPoint: "Anchor-4" 231 0 basechar 0
AnchorPoint: "Anchor-3" 237 517 basechar 0
AnchorPoint: "Anchor-2" 338 20 basechar 0
LayerCount: 2
Fore
SplineSet
138 104 m 128,-1,1
 173 50 173 50 253 50 c 0,2,3
 356 50 356 50 401 134 c 1,4,-1
 466 121 l 1,5,6
 439 60 439 60 379.5 25 c 128,-1,7
 320 -10 320 -10 246 -10 c 0,8,9
 175 -10 175 -10 124.5 21.5 c 128,-1,10
 74 53 74 53 52 112.5 c 128,-1,11
 30 172 30 172 42 254 c 0,12,13
 60 380 60 380 131 453.5 c 128,-1,14
 202 527 202 527 311 527 c 0,15,16
 415 527 415 527 463.5 459.5 c 128,-1,17
 512 392 512 392 495 273 c 2,18,-1
 491 241 l 1,19,-1
 115 241 l 1,20,0
 103 158 103 158 138 104 c 128,-1,1
427 295 m 1,21,22
 438 372 438 372 407 420 c 128,-1,23
 376 468 376 468 302 468 c 0,24,25
 251 468 251 468 212.5 443 c 128,-1,26
 174 418 174 418 151.5 378.5 c 128,-1,27
 129 339 129 339 122 295 c 1,28,-1
 427 295 l 1,21,22
468 653 m 1,29,-1
 190 653 l 1,30,-1
 198 708 l 1,31,-1
 476 708 l 1,32,-1
 468 653 l 1,29,-1
EndSplineSet
EndChar

StartChar: Ebreve
Encoding: 276 276 213
Width: 617
GlyphClass: 2
Flags: W
AnchorPoint: "Anchor-5" -46 0 basechar 0
AnchorPoint: "Anchor-4" 299 0 basechar 0
AnchorPoint: "Anchor-3" 284 723 basechar 0
AnchorPoint: "Anchor-2" 498 10 basechar 0
LayerCount: 2
Fore
SplineSet
155 723 m 1,0,-1
 596 723 l 1,1,-1
 585 657 l 1,2,-1
 218 657 l 1,3,-1
 182 398 l 1,4,-1
 517 398 l 1,5,-1
 508 332 l 1,6,-1
 173 332 l 1,7,-1
 136 68 l 1,8,-1
 514 67 l 1,9,-1
 505 0 l 1,10,-1
 53 0 l 1,11,-1
 155 723 l 1,0,-1
498.5 858.5 m 128,-1,13
 456 828 456 828 400 828 c 0,14,15
 343 828 343 828 311 857 c 128,-1,16
 279 886 279 886 274 929 c 1,17,-1
 333 929 l 1,18,19
 343 908 343 908 359 893 c 128,-1,20
 375 878 375 878 407 878 c 0,21,22
 435 878 435 878 458.5 893 c 128,-1,23
 482 908 482 908 497 929 c 1,24,-1
 559 929 l 1,25,12
 541 889 541 889 498.5 858.5 c 128,-1,13
EndSplineSet
EndChar

StartChar: ebreve
Encoding: 277 277 214
Width: 555
GlyphClass: 2
Flags: W
AnchorPoint: "Anchor-5" -46 0 basechar 0
AnchorPoint: "Anchor-4" 231 0 basechar 0
AnchorPoint: "Anchor-3" 237 517 basechar 0
AnchorPoint: "Anchor-2" 338 20 basechar 0
LayerCount: 2
Fore
SplineSet
138 104 m 128,-1,1
 173 50 173 50 253 50 c 0,2,3
 356 50 356 50 401 134 c 1,4,-1
 466 121 l 1,5,6
 439 60 439 60 379.5 25 c 128,-1,7
 320 -10 320 -10 246 -10 c 0,8,9
 175 -10 175 -10 124.5 21.5 c 128,-1,10
 74 53 74 53 52 112.5 c 128,-1,11
 30 172 30 172 42 254 c 0,12,13
 60 380 60 380 131 453.5 c 128,-1,14
 202 527 202 527 311 527 c 0,15,16
 415 527 415 527 463.5 459.5 c 128,-1,17
 512 392 512 392 495 273 c 2,18,-1
 491 241 l 1,19,-1
 115 241 l 1,20,0
 103 158 103 158 138 104 c 128,-1,1
427 295 m 1,21,22
 438 372 438 372 407 420 c 128,-1,23
 376 468 376 468 302 468 c 0,24,25
 251 468 251 468 212.5 443 c 128,-1,26
 174 418 174 418 151.5 378.5 c 128,-1,27
 129 339 129 339 122 295 c 1,28,-1
 427 295 l 1,21,22
422.5 652.5 m 128,-1,30
 380 622 380 622 324 622 c 0,31,32
 267 622 267 622 235 651 c 128,-1,33
 203 680 203 680 198 723 c 1,34,-1
 257 723 l 1,35,36
 267 702 267 702 283 687 c 128,-1,37
 299 672 299 672 331 672 c 0,38,39
 359 672 359 672 382.5 687 c 128,-1,40
 406 702 406 702 421 723 c 1,41,-1
 483 723 l 1,42,29
 465 683 465 683 422.5 652.5 c 128,-1,30
EndSplineSet
EndChar

StartChar: Edotaccent
Encoding: 278 278 215
Width: 617
GlyphClass: 2
Flags: W
AnchorPoint: "Anchor-5" -46 0 basechar 0
AnchorPoint: "Anchor-4" 299 0 basechar 0
AnchorPoint: "Anchor-3" 284 723 basechar 0
AnchorPoint: "Anchor-2" 498 10 basechar 0
LayerCount: 2
Fore
SplineSet
155 723 m 1,0,-1
 596 723 l 1,1,-1
 585 657 l 1,2,-1
 218 657 l 1,3,-1
 182 398 l 1,4,-1
 517 398 l 1,5,-1
 508 332 l 1,6,-1
 173 332 l 1,7,-1
 136 68 l 1,8,-1
 514 67 l 1,9,-1
 505 0 l 1,10,-1
 53 0 l 1,11,-1
 155 723 l 1,0,-1
440 819 m 1,12,-1
 360 819 l 1,13,-1
 376 929 l 1,14,-1
 456 929 l 1,15,-1
 440 819 l 1,12,-1
EndSplineSet
EndChar

StartChar: edotaccent
Encoding: 279 279 216
Width: 555
GlyphClass: 2
Flags: W
AnchorPoint: "Anchor-5" -46 0 basechar 0
AnchorPoint: "Anchor-4" 231 0 basechar 0
AnchorPoint: "Anchor-3" 237 517 basechar 0
AnchorPoint: "Anchor-2" 338 20 basechar 0
LayerCount: 2
Fore
SplineSet
138 104 m 128,-1,1
 173 50 173 50 253 50 c 0,2,3
 356 50 356 50 401 134 c 1,4,-1
 466 121 l 1,5,6
 439 60 439 60 379.5 25 c 128,-1,7
 320 -10 320 -10 246 -10 c 0,8,9
 175 -10 175 -10 124.5 21.5 c 128,-1,10
 74 53 74 53 52 112.5 c 128,-1,11
 30 172 30 172 42 254 c 0,12,13
 60 380 60 380 131 453.5 c 128,-1,14
 202 527 202 527 311 527 c 0,15,16
 415 527 415 527 463.5 459.5 c 128,-1,17
 512 392 512 392 495 273 c 2,18,-1
 491 241 l 1,19,-1
 115 241 l 1,20,0
 103 158 103 158 138 104 c 128,-1,1
427 295 m 1,21,22
 438 372 438 372 407 420 c 128,-1,23
 376 468 376 468 302 468 c 0,24,25
 251 468 251 468 212.5 443 c 128,-1,26
 174 418 174 418 151.5 378.5 c 128,-1,27
 129 339 129 339 122 295 c 1,28,-1
 427 295 l 1,21,22
364 613 m 1,29,-1
 284 613 l 1,30,-1
 300 723 l 1,31,-1
 380 723 l 1,32,-1
 364 613 l 1,29,-1
EndSplineSet
EndChar

StartChar: Eogonek
Encoding: 280 280 217
Width: 617
GlyphClass: 2
Flags: W
AnchorPoint: "Anchor-5" -46 0 basechar 0
AnchorPoint: "Anchor-4" 299 0 basechar 0
AnchorPoint: "Anchor-3" 284 723 basechar 0
AnchorPoint: "Anchor-2" 498 10 basechar 0
LayerCount: 2
Fore
SplineSet
155 723 m 1,0,-1
 596 723 l 1,1,-1
 585 657 l 1,2,-1
 218 657 l 1,3,-1
 182 398 l 1,4,-1
 517 398 l 1,5,-1
 508 332 l 1,6,-1
 173 332 l 1,7,-1
 136 68 l 1,8,-1
 514 67 l 1,9,-1
 505 0 l 1,10,-1
 53 0 l 1,11,-1
 155 723 l 1,0,-1
366.5 -33.5 m 128,-1,13
 393 -10 393 -10 453 8 c 1,14,-1
 507 1 l 1,15,16
 452 -21 452 -21 427 -40.5 c 128,-1,17
 402 -60 402 -60 398 -85 c 0,18,19
 393 -123 393 -123 443 -123 c 0,20,21
 462 -123 462 -123 479 -119 c 128,-1,22
 496 -115 496 -115 507 -110 c 0,23,24
 511 -108 511 -108 513 -108 c 0,25,26
 517 -108 517 -108 516 -115 c 2,27,-1
 512 -141 l 2,28,29
 511 -148 511 -148 504 -151 c 0,30,31
 492 -157 492 -157 468.5 -162 c 128,-1,32
 445 -167 445 -167 420 -167 c 0,33,34
 373 -167 373 -167 352 -146 c 128,-1,35
 331 -125 331 -125 336 -89 c 0,36,12
 340 -57 340 -57 366.5 -33.5 c 128,-1,13
EndSplineSet
EndChar

StartChar: eogonek
Encoding: 281 281 218
Width: 555
GlyphClass: 2
Flags: W
AnchorPoint: "Anchor-5" -46 0 basechar 0
AnchorPoint: "Anchor-4" 231 0 basechar 0
AnchorPoint: "Anchor-3" 237 517 basechar 0
AnchorPoint: "Anchor-2" 338 20 basechar 0
LayerCount: 2
Fore
SplineSet
138 104 m 128,-1,1
 173 50 173 50 253 50 c 0,2,3
 356 50 356 50 401 134 c 1,4,-1
 466 121 l 1,5,6
 439 60 439 60 379.5 25 c 128,-1,7
 320 -10 320 -10 246 -10 c 0,8,9
 175 -10 175 -10 124.5 21.5 c 128,-1,10
 74 53 74 53 52 112.5 c 128,-1,11
 30 172 30 172 42 254 c 0,12,13
 60 380 60 380 131 453.5 c 128,-1,14
 202 527 202 527 311 527 c 0,15,16
 415 527 415 527 463.5 459.5 c 128,-1,17
 512 392 512 392 495 273 c 2,18,-1
 491 241 l 1,19,-1
 115 241 l 1,20,0
 103 158 103 158 138 104 c 128,-1,1
427 295 m 1,21,22
 438 372 438 372 407 420 c 128,-1,23
 376 468 376 468 302 468 c 0,24,25
 251 468 251 468 212.5 443 c 128,-1,26
 174 418 174 418 151.5 378.5 c 128,-1,27
 129 339 129 339 122 295 c 1,28,-1
 427 295 l 1,21,22
207.5 -23.5 m 128,-1,30
 234 0 234 0 294 18 c 1,31,-1
 348 11 l 1,32,33
 293 -11 293 -11 268 -30.5 c 128,-1,34
 243 -50 243 -50 239 -75 c 0,35,36
 234 -113 234 -113 284 -113 c 0,37,38
 303 -113 303 -113 320 -109 c 128,-1,39
 337 -105 337 -105 348 -100 c 0,40,41
 352 -98 352 -98 354 -98 c 0,42,43
 358 -98 358 -98 357 -105 c 2,44,-1
 353 -131 l 2,45,46
 352 -138 352 -138 345 -141 c 0,47,48
 333 -147 333 -147 309.5 -152 c 128,-1,49
 286 -157 286 -157 261 -157 c 0,50,51
 214 -157 214 -157 193 -136 c 128,-1,52
 172 -115 172 -115 177 -79 c 0,53,29
 181 -47 181 -47 207.5 -23.5 c 128,-1,30
EndSplineSet
EndChar

StartChar: Ecaron
Encoding: 282 282 219
Width: 617
GlyphClass: 2
Flags: W
AnchorPoint: "Anchor-5" -46 0 basechar 0
AnchorPoint: "Anchor-4" 299 0 basechar 0
AnchorPoint: "Anchor-3" 284 723 basechar 0
AnchorPoint: "Anchor-2" 498 10 basechar 0
LayerCount: 2
Fore
SplineSet
155 723 m 1,0,-1
 596 723 l 1,1,-1
 585 657 l 1,2,-1
 218 657 l 1,3,-1
 182 398 l 1,4,-1
 517 398 l 1,5,-1
 508 332 l 1,6,-1
 173 332 l 1,7,-1
 136 68 l 1,8,-1
 514 67 l 1,9,-1
 505 0 l 1,10,-1
 53 0 l 1,11,-1
 155 723 l 1,0,-1
563 929 m 1,12,-1
 426 821 l 1,13,-1
 372 821 l 1,14,-1
 265 929 l 1,15,-1
 338 929 l 1,16,-1
 404 864 l 1,17,-1
 486 929 l 1,18,-1
 563 929 l 1,12,-1
EndSplineSet
EndChar

StartChar: ecaron
Encoding: 283 283 220
Width: 555
GlyphClass: 2
Flags: W
AnchorPoint: "Anchor-5" -46 0 basechar 0
AnchorPoint: "Anchor-4" 231 0 basechar 0
AnchorPoint: "Anchor-3" 237 517 basechar 0
AnchorPoint: "Anchor-2" 338 20 basechar 0
LayerCount: 2
Fore
SplineSet
138 104 m 128,-1,1
 173 50 173 50 253 50 c 0,2,3
 356 50 356 50 401 134 c 1,4,-1
 466 121 l 1,5,6
 439 60 439 60 379.5 25 c 128,-1,7
 320 -10 320 -10 246 -10 c 0,8,9
 175 -10 175 -10 124.5 21.5 c 128,-1,10
 74 53 74 53 52 112.5 c 128,-1,11
 30 172 30 172 42 254 c 0,12,13
 60 380 60 380 131 453.5 c 128,-1,14
 202 527 202 527 311 527 c 0,15,16
 415 527 415 527 463.5 459.5 c 128,-1,17
 512 392 512 392 495 273 c 2,18,-1
 491 241 l 1,19,-1
 115 241 l 1,20,0
 103 158 103 158 138 104 c 128,-1,1
427 295 m 1,21,22
 438 372 438 372 407 420 c 128,-1,23
 376 468 376 468 302 468 c 0,24,25
 251 468 251 468 212.5 443 c 128,-1,26
 174 418 174 418 151.5 378.5 c 128,-1,27
 129 339 129 339 122 295 c 1,28,-1
 427 295 l 1,21,22
487 723 m 1,29,-1
 350 615 l 1,30,-1
 296 615 l 1,31,-1
 189 723 l 1,32,-1
 262 723 l 1,33,-1
 328 658 l 1,34,-1
 410 723 l 1,35,-1
 487 723 l 1,29,-1
EndSplineSet
EndChar

StartChar: Gcircumflex
Encoding: 284 284 221
Width: 720
GlyphClass: 2
Flags: W
AnchorPoint: "Anchor-5" -46 0 basechar 0
AnchorPoint: "Anchor-4" 314 0 basechar 0
AnchorPoint: "Anchor-3" 310 723 basechar 0
AnchorPoint: "Anchor-2" -46 0 basechar 0
LayerCount: 2
Fore
SplineSet
153.5 34.5 m 128,-1,1
 92 79 92 79 67.5 162 c 128,-1,2
 43 245 43 245 59 359 c 0,3,4
 75 476 75 476 124.5 560 c 128,-1,5
 174 644 174 644 248.5 688.5 c 128,-1,6
 323 733 323 733 415 733 c 0,7,8
 482 733 482 733 536.5 704 c 128,-1,9
 591 675 591 675 621.5 626.5 c 128,-1,10
 652 578 652 578 649 523 c 1,11,-1
 568 516 l 1,12,13
 566 580 566 580 521 623 c 128,-1,14
 476 666 476 666 405 666 c 0,15,16
 300 666 300 666 229.5 587.5 c 128,-1,17
 159 509 159 509 138 365 c 0,18,19
 117 213 117 213 166 135 c 128,-1,20
 215 57 215 57 321 57 c 0,21,22
 383 57 383 57 431.5 86 c 128,-1,23
 480 115 480 115 508.5 158 c 128,-1,24
 537 201 537 201 545 244 c 2,25,-1
 557 316 l 1,26,-1
 371 316 l 1,27,-1
 379 372 l 1,28,-1
 640 371 l 1,29,-1
 588 0 l 1,30,-1
 529 0 l 1,31,-1
 545 116 l 1,32,33
 505 60 505 60 446 25 c 128,-1,34
 387 -10 387 -10 308 -10 c 0,35,0
 215 -10 215 -10 153.5 34.5 c 128,-1,1
434 888 m 1,36,-1
 349 824 l 1,37,-1
 276 824 l 1,38,-1
 414 931 l 1,39,-1
 468 931 l 1,40,-1
 574 824 l 1,41,-1
 497 824 l 1,42,-1
 434 888 l 1,36,-1
EndSplineSet
EndChar

StartChar: gcircumflex
Encoding: 285 285 222
Width: 595
GlyphClass: 2
Flags: W
AnchorPoint: "Anchor-5" -46 0 basechar 0
AnchorPoint: "Anchor-4" -46 0 basechar 0
AnchorPoint: "Anchor-3" 247 517 basechar 0
AnchorPoint: "Anchor-2" -46 0 basechar 0
LayerCount: 2
Fore
SplineSet
37.5 -134 m 128,-1,1
 -22 -97 -22 -97 -12 -32 c 0,2,3
 -6 9 -6 9 22 34 c 128,-1,4
 50 59 50 59 73 71 c 128,-1,5
 96 83 96 83 101 86 c 1,6,7
 98 88 98 88 85 96 c 128,-1,8
 72 104 72 104 64.5 117 c 128,-1,9
 57 130 57 130 60 147 c 0,10,11
 63 171 63 171 88 190 c 128,-1,12
 113 209 113 209 156 219 c 1,13,14
 111 245 111 245 93.5 279 c 128,-1,15
 76 313 76 313 83 361 c 0,16,17
 94 438 94 438 159 481.5 c 128,-1,18
 224 525 224 525 323 525 c 0,19,20
 371 525 371 525 404 513.5 c 128,-1,21
 437 502 437 502 464 479 c 1,22,-1
 597 531 l 1,23,-1
 586 455 l 1,24,-1
 492 437 l 1,25,26
 497 422 497 422 500 399.5 c 128,-1,27
 503 377 503 377 501 361 c 0,28,29
 491 291 491 291 431 245.5 c 128,-1,30
 371 200 371 200 269 200 c 1,31,-1
 246 201 l 2,32,33
 188 200 188 200 161.5 188.5 c 128,-1,34
 135 177 135 177 133 161 c 0,35,36
 131 146 131 146 151.5 140 c 128,-1,37
 172 134 172 134 230 130 c 2,38,-1
 343 123 l 2,39,40
 424 118 424 118 459 82 c 128,-1,41
 494 46 494 46 486 -14 c 0,42,43
 476 -88 476 -88 405.5 -129.5 c 128,-1,44
 335 -171 335 -171 217 -171 c 0,45,0
 97 -171 97 -171 37.5 -134 c 128,-1,1
384 280 m 128,-1,47
 423 308 423 308 431 361 c 0,48,49
 439 415 439 415 407.5 445 c 128,-1,50
 376 475 376 475 310 475 c 0,51,52
 245 475 245 475 204 444.5 c 128,-1,53
 163 414 163 414 156 361 c 0,54,55
 149 309 149 309 180.5 280.5 c 128,-1,56
 212 252 212 252 278 252 c 0,57,46
 345 252 345 252 384 280 c 128,-1,47
362 -96 m 128,-1,59
 405 -72 405 -72 412 -23 c 0,60,61
 417 14 417 14 396.5 34 c 128,-1,62
 376 54 376 54 324 57 c 2,63,-1
 170 67 l 2,64,65
 152 69 152 69 127.5 57 c 128,-1,66
 103 45 103 45 84 23 c 128,-1,67
 65 1 65 1 62 -24 c 0,68,69
 55 -71 55 -71 100.5 -95.5 c 128,-1,70
 146 -120 146 -120 238 -120 c 0,71,58
 319 -120 319 -120 362 -96 c 128,-1,59
342 682 m 1,72,-1
 257 618 l 1,73,-1
 184 618 l 1,74,-1
 322 725 l 1,75,-1
 376 725 l 1,76,-1
 482 618 l 1,77,-1
 405 618 l 1,78,-1
 342 682 l 1,72,-1
EndSplineSet
EndChar

StartChar: Gbreve
Encoding: 286 286 223
Width: 720
GlyphClass: 2
Flags: W
AnchorPoint: "Anchor-5" -46 0 basechar 0
AnchorPoint: "Anchor-4" 314 0 basechar 0
AnchorPoint: "Anchor-3" 310 723 basechar 0
AnchorPoint: "Anchor-2" -46 0 basechar 0
LayerCount: 2
Fore
SplineSet
153.5 34.5 m 128,-1,1
 92 79 92 79 67.5 162 c 128,-1,2
 43 245 43 245 59 359 c 0,3,4
 75 476 75 476 124.5 560 c 128,-1,5
 174 644 174 644 248.5 688.5 c 128,-1,6
 323 733 323 733 415 733 c 0,7,8
 482 733 482 733 536.5 704 c 128,-1,9
 591 675 591 675 621.5 626.5 c 128,-1,10
 652 578 652 578 649 523 c 1,11,-1
 568 516 l 1,12,13
 566 580 566 580 521 623 c 128,-1,14
 476 666 476 666 405 666 c 0,15,16
 300 666 300 666 229.5 587.5 c 128,-1,17
 159 509 159 509 138 365 c 0,18,19
 117 213 117 213 166 135 c 128,-1,20
 215 57 215 57 321 57 c 0,21,22
 383 57 383 57 431.5 86 c 128,-1,23
 480 115 480 115 508.5 158 c 128,-1,24
 537 201 537 201 545 244 c 2,25,-1
 557 316 l 1,26,-1
 371 316 l 1,27,-1
 379 372 l 1,28,-1
 640 371 l 1,29,-1
 588 0 l 1,30,-1
 529 0 l 1,31,-1
 545 116 l 1,32,33
 505 60 505 60 446 25 c 128,-1,34
 387 -10 387 -10 308 -10 c 0,35,0
 215 -10 215 -10 153.5 34.5 c 128,-1,1
524.5 858.5 m 128,-1,37
 482 828 482 828 426 828 c 0,38,39
 369 828 369 828 337 857 c 128,-1,40
 305 886 305 886 300 929 c 1,41,-1
 359 929 l 1,42,43
 369 908 369 908 385 893 c 128,-1,44
 401 878 401 878 433 878 c 0,45,46
 461 878 461 878 484.5 893 c 128,-1,47
 508 908 508 908 523 929 c 1,48,-1
 585 929 l 1,49,36
 567 889 567 889 524.5 858.5 c 128,-1,37
EndSplineSet
EndChar

StartChar: gbreve
Encoding: 287 287 224
Width: 595
GlyphClass: 2
Flags: W
AnchorPoint: "Anchor-5" -46 0 basechar 0
AnchorPoint: "Anchor-4" -46 0 basechar 0
AnchorPoint: "Anchor-3" 247 517 basechar 0
AnchorPoint: "Anchor-2" -46 0 basechar 0
LayerCount: 2
Fore
SplineSet
37.5 -134 m 128,-1,1
 -22 -97 -22 -97 -12 -32 c 0,2,3
 -6 9 -6 9 22 34 c 128,-1,4
 50 59 50 59 73 71 c 128,-1,5
 96 83 96 83 101 86 c 1,6,7
 98 88 98 88 85 96 c 128,-1,8
 72 104 72 104 64.5 117 c 128,-1,9
 57 130 57 130 60 147 c 0,10,11
 63 171 63 171 88 190 c 128,-1,12
 113 209 113 209 156 219 c 1,13,14
 111 245 111 245 93.5 279 c 128,-1,15
 76 313 76 313 83 361 c 0,16,17
 94 438 94 438 159 481.5 c 128,-1,18
 224 525 224 525 323 525 c 0,19,20
 371 525 371 525 404 513.5 c 128,-1,21
 437 502 437 502 464 479 c 1,22,-1
 597 531 l 1,23,-1
 586 455 l 1,24,-1
 492 437 l 1,25,26
 497 422 497 422 500 399.5 c 128,-1,27
 503 377 503 377 501 361 c 0,28,29
 491 291 491 291 431 245.5 c 128,-1,30
 371 200 371 200 269 200 c 1,31,-1
 246 201 l 2,32,33
 188 200 188 200 161.5 188.5 c 128,-1,34
 135 177 135 177 133 161 c 0,35,36
 131 146 131 146 151.5 140 c 128,-1,37
 172 134 172 134 230 130 c 2,38,-1
 343 123 l 2,39,40
 424 118 424 118 459 82 c 128,-1,41
 494 46 494 46 486 -14 c 0,42,43
 476 -88 476 -88 405.5 -129.5 c 128,-1,44
 335 -171 335 -171 217 -171 c 0,45,0
 97 -171 97 -171 37.5 -134 c 128,-1,1
384 280 m 128,-1,47
 423 308 423 308 431 361 c 0,48,49
 439 415 439 415 407.5 445 c 128,-1,50
 376 475 376 475 310 475 c 0,51,52
 245 475 245 475 204 444.5 c 128,-1,53
 163 414 163 414 156 361 c 0,54,55
 149 309 149 309 180.5 280.5 c 128,-1,56
 212 252 212 252 278 252 c 0,57,46
 345 252 345 252 384 280 c 128,-1,47
362 -96 m 128,-1,59
 405 -72 405 -72 412 -23 c 0,60,61
 417 14 417 14 396.5 34 c 128,-1,62
 376 54 376 54 324 57 c 2,63,-1
 170 67 l 2,64,65
 152 69 152 69 127.5 57 c 128,-1,66
 103 45 103 45 84 23 c 128,-1,67
 65 1 65 1 62 -24 c 0,68,69
 55 -71 55 -71 100.5 -95.5 c 128,-1,70
 146 -120 146 -120 238 -120 c 0,71,58
 319 -120 319 -120 362 -96 c 128,-1,59
432.5 652.5 m 128,-1,73
 390 622 390 622 334 622 c 0,74,75
 277 622 277 622 245 651 c 128,-1,76
 213 680 213 680 208 723 c 1,77,-1
 267 723 l 1,78,79
 277 702 277 702 293 687 c 128,-1,80
 309 672 309 672 341 672 c 0,81,82
 369 672 369 672 392.5 687 c 128,-1,83
 416 702 416 702 431 723 c 1,84,-1
 493 723 l 1,85,72
 475 683 475 683 432.5 652.5 c 128,-1,73
EndSplineSet
EndChar

